<svg width="14" height="12" viewBox="0 0 14 12" fill="none" xmlns="http://www.w3.org/2000/svg">
<path d="M13.7917 1.60903C13.2727 1.83707 12.7225 1.98646 12.1593 2.05225C12.753 1.69912 13.1979 1.14268 13.411 0.486571C12.8521 0.814543 12.2417 1.04612 11.6056 1.17156C11.177 0.718306 10.6109 0.418421 9.99457 0.318197C9.37824 0.217973 8.746 0.322982 8.19542 0.617014C7.64485 0.911046 7.20657 1.37775 6.94824 1.94508C6.68991 2.51242 6.62589 3.14883 6.76607 3.75608C5.63703 3.69934 4.5325 3.40666 3.52397 2.897C2.51544 2.38734 1.62537 1.67204 0.911372 0.797405C0.54878 1.42098 0.437617 2.1589 0.60046 2.8613C0.763302 3.56371 1.18794 4.17792 1.78814 4.57922C1.34516 4.56348 0.912242 4.44315 0.524904 4.22809C0.519484 4.89233 0.747261 5.5375 1.16871 6.05165C1.59016 6.5658 2.17869 6.91649 2.83218 7.04287C2.41462 7.15667 1.97632 7.17243 1.55164 7.08892C1.73235 7.65256 2.08546 8.14556 2.56137 8.49865C3.03727 8.85174 3.61207 9.04719 4.205 9.05753C3.01082 9.98065 1.49904 10.3945 0 10.2088C1.29889 11.0418 2.81094 11.4835 4.35497 11.4809C5.44915 11.4886 6.53336 11.2731 7.54105 10.8476C8.54874 10.422 9.45864 9.79542 10.2149 9.00626C10.9711 8.21709 11.5577 7.282 11.9387 6.2584C12.3197 5.2348 12.487 4.14429 12.4304 3.05383C12.9624 2.65208 13.4226 2.16362 13.7917 1.60903Z" fill="#292929"/>
</svg>
