<svg width="14" height="14" viewBox="0 0 14 14" fill="none" xmlns="http://www.w3.org/2000/svg">
<path d="M6.92181 1.40218C8.76763 1.40218 8.98682 1.40218 9.71938 1.44255C11.594 1.52908 12.4708 2.41738 12.5573 4.2805C12.5919 5.01306 12.5977 5.23225 12.5977 7.07806C12.5977 8.92388 12.5977 9.14307 12.5573 9.87563C12.4708 11.733 11.594 12.6271 9.71938 12.7136C8.98682 12.7482 8.7734 12.754 6.92181 12.754C5.07023 12.754 4.85681 12.754 4.12425 12.7136C2.24382 12.6271 1.37283 11.733 1.2863 9.87563C1.25169 9.14307 1.24593 8.92965 1.24593 7.07806C1.24593 5.22648 1.24593 5.01306 1.2863 4.2805C1.37283 2.41738 2.24959 1.52908 4.12425 1.44255C4.85681 1.40794 5.076 1.40218 6.92181 1.40218ZM6.92181 0.15625C5.04139 0.15625 4.80489 0.15625 4.06657 0.196627C1.55164 0.311991 0.155741 1.70789 0.0288409 4.23435C0 4.96114 0 5.19764 0 7.07806C0 8.95849 0 9.19499 0.0403772 9.96215C0.155741 12.4771 1.55164 13.873 4.0781 13.9999C4.80489 13.9999 5.04139 13.9999 6.92181 13.9999C8.80224 13.9999 9.03874 13.9999 9.77706 13.9595C12.2862 13.8441 13.6879 12.4482 13.8148 9.92178C13.8436 9.19499 13.8436 8.95849 13.8436 7.07806C13.8436 5.19764 13.8436 4.96114 13.8033 4.22282C13.6879 1.71366 12.292 0.311991 9.76553 0.185091C9.03874 0.15625 8.80224 0.15625 6.92181 0.15625ZM6.92181 3.52487C6.21906 3.52487 5.53208 3.73326 4.94776 4.12369C4.36344 4.51412 3.90802 5.06905 3.63909 5.71831C3.37015 6.36758 3.29979 7.08201 3.43689 7.77126C3.57399 8.46051 3.9124 9.09363 4.40932 9.59055C4.90625 10.0875 5.53937 10.4259 6.22862 10.563C6.91787 10.7001 7.6323 10.6297 8.28156 10.3608C8.93083 10.0919 9.48576 9.63644 9.87619 9.05211C10.2666 8.46779 10.475 7.78082 10.475 7.07806C10.475 6.1357 10.1007 5.23193 9.4343 4.56557C8.76795 3.89922 7.86418 3.52487 6.92181 3.52487ZM6.92181 9.38533C6.46548 9.38533 6.01939 9.25002 5.63996 8.99649C5.26053 8.74296 4.9648 8.38262 4.79017 7.96102C4.61554 7.53942 4.56985 7.0755 4.65888 6.62794C4.7479 6.18037 4.96765 5.76925 5.29033 5.44658C5.613 5.1239 6.02412 4.90415 6.47169 4.81513C6.91925 4.7261 7.38317 4.77179 7.80477 4.94642C8.22637 5.12105 8.58671 5.41678 8.84024 5.79621C9.09377 6.17564 9.22908 6.62173 9.22908 7.07806C9.22908 7.68999 8.986 8.27685 8.5533 8.70955C8.1206 9.14225 7.53374 9.38533 6.92181 9.38533ZM10.6192 2.55004C10.4549 2.55004 10.2943 2.59876 10.1578 2.69003C10.0212 2.7813 9.91469 2.91102 9.85182 3.0628C9.78896 3.21457 9.77251 3.38158 9.80456 3.54271C9.83661 3.70383 9.91572 3.85183 10.0319 3.968C10.148 4.08416 10.296 4.16327 10.4572 4.19532C10.6183 4.22737 10.7853 4.21092 10.9371 4.14805C11.0889 4.08518 11.2186 3.97872 11.3098 3.84213C11.4011 3.70553 11.4498 3.54494 11.4498 3.38066C11.4498 3.16037 11.3623 2.9491 11.2066 2.79333C11.0508 2.63756 10.8395 2.55004 10.6192 2.55004Z" fill="#292929"/>
</svg>
