<svg width="14" height="14" viewBox="0 0 14 14" fill="none" xmlns="http://www.w3.org/2000/svg">
<path d="M10.9595 0.15625H2.88409C2.11918 0.15625 1.3856 0.460108 0.84473 1.00098C0.303858 1.54185 0 2.27543 0 3.04034L0 11.1158C0 11.4945 0.0745992 11.8696 0.219538 12.2195C0.364477 12.5694 0.576918 12.8873 0.84473 13.1551C1.3856 13.696 2.11918 13.9999 2.88409 13.9999H10.9595C11.3383 13.9999 11.7133 13.9253 12.0632 13.7803C12.4131 13.6354 12.7311 13.423 12.9989 13.1551C13.2667 12.8873 13.4792 12.5694 13.6241 12.2195C13.769 11.8696 13.8436 11.4945 13.8436 11.1158V3.04034C13.8436 2.6616 13.769 2.28656 13.6241 1.93665C13.4792 1.58673 13.2667 1.26879 12.9989 1.00098C12.7311 0.733168 12.4131 0.520727 12.0632 0.375788C11.7133 0.230849 11.3383 0.15625 10.9595 0.15625V0.15625ZM4.61454 11.1158H2.88409V4.77079H4.61454V11.1158ZM3.74932 4.03823C3.54594 4.04048 3.34653 3.98193 3.17665 3.8701C3.00676 3.75826 2.87416 3.59823 2.79583 3.41053C2.71749 3.22283 2.69701 3.01602 2.737 2.8166C2.77699 2.61718 2.87562 2.43425 3.02027 2.29126C3.16491 2.14827 3.34896 2.05174 3.54883 2.01405C3.74869 1.97635 3.95526 1.99921 4.14205 2.0797C4.32883 2.16018 4.48733 2.29462 4.5972 2.46577C4.70708 2.63693 4.76333 2.837 4.75875 3.04034C4.75571 3.30605 4.64802 3.55985 4.45904 3.74667C4.27007 3.93349 4.01505 4.03825 3.74932 4.03823ZM11.5364 11.1158H9.8059V7.88561C9.8059 5.94173 7.49863 6.08594 7.49863 7.88561V11.1158H5.76818V4.77079H7.49863V5.79176C8.30618 4.2978 11.5364 4.18821 11.5364 7.2165V11.1158Z" fill="#292929"/>
</svg>
