<svg width="14" height="14" viewBox="0 0 14 14" fill="none" xmlns="http://www.w3.org/2000/svg">
<path d="M10.9595 0H2.88409C2.11918 0 1.3856 0.303858 0.84473 0.84473C0.303858 1.3856 0 2.11918 0 2.88409L0 10.9595C0 11.3383 0.0745992 11.7133 0.219538 12.0632C0.364477 12.4131 0.576918 12.7311 0.84473 12.9989C1.3856 13.5398 2.11918 13.8436 2.88409 13.8436H10.9595C11.3383 13.8436 11.7133 13.769 12.0632 13.6241C12.4131 13.4792 12.7311 13.2667 12.9989 12.9989C13.2667 12.7311 13.4792 12.4131 13.6241 12.0632C13.769 11.7133 13.8436 11.3383 13.8436 10.9595V2.88409C13.8436 2.50535 13.769 2.13031 13.6241 1.7804C13.4792 1.43048 13.2667 1.11254 12.9989 0.84473C12.7311 0.576918 12.4131 0.364477 12.0632 0.219538C11.7133 0.0745992 11.3383 0 10.9595 0V0ZM9.22908 4.03772H8.12159C7.76397 4.03772 7.49863 4.18193 7.49863 4.55109V5.19136H9.22908L9.09065 6.92181H7.49863V11.5364H5.76818V6.92181H4.61454V5.19136H5.76818V4.08387C5.76818 2.9187 6.3796 2.30727 7.76397 2.30727H9.22908V4.03772Z" fill="#292929"/>
</svg>
