<svg width="172" height="36" viewBox="0 0 172 36" fill="none" xmlns="http://www.w3.org/2000/svg">
<path d="M25.2637 0V36H35.8514V8.00308L25.2637 0Z" fill="black"/>
<path d="M21.0547 3.1846V36H23.2193V1.54614L21.0547 3.1846Z" fill="black"/>
<path d="M16.8418 6.36456V35.9999H19.0064V4.73071L16.8418 6.36456Z" fill="black"/>
<path d="M12.6328 9.54923V36H14.7974V7.91077L12.6328 9.54923Z" fill="black"/>
<path d="M37.8965 36H48.4842V24.1385L37.8965 16.14V36Z" fill="black"/>
<path d="M8.42383 19.2785V36H10.5884V17.64L8.42383 19.2785Z" fill="black"/>
<path d="M4.20898 22.463V36H6.3736V20.8246L4.20898 22.463Z" fill="black"/>
<path d="M0 25.6431V36H2.16461V24.0093L0 25.6431Z" fill="black"/>
<path d="M75.8315 20.0446C72.6469 20.0446 70.6992 18.263 70.6992 14.7738V7.99841H73.2884V14.7184C73.2884 16.6523 74.2531 17.6492 75.8454 17.6492C77.4377 17.6492 78.4023 16.6846 78.4023 14.8061V8.01226H81.0146V14.7046C81.0146 18.2953 78.9977 20.0584 75.8131 20.0584" fill="black"/>
<path d="M88.8823 20.0262C87.0295 20.0321 85.2392 19.357 83.8516 18.1293L85.3931 16.2831C86.3609 17.1743 87.6181 17.6857 88.9331 17.7231C90.0039 17.7231 90.6454 17.2985 90.6454 16.6016V16.5647C90.6454 15.9047 90.2393 15.5631 88.2593 15.0554C85.8685 14.4462 84.3269 13.74 84.3269 11.3631V11.3308C84.3269 9.18005 86.0531 7.7539 88.4808 7.7539C90.0809 7.72881 91.6396 8.26253 92.8885 9.26312L91.5316 11.2293C90.6454 10.5377 89.5705 10.1306 88.4485 10.0616C87.4469 10.0616 86.9254 10.5231 86.9254 11.0908V11.1277C86.9254 11.9077 87.4331 12.2077 89.4823 12.7339C91.8869 13.3616 93.2439 14.2247 93.2439 16.2924V16.3247C93.2439 18.6785 91.4439 20.017 88.8869 20.017" fill="black"/>
<path d="M104.192 19.8553V15.0969H99.3831V19.8553H96.7754V7.99841H99.3831V12.6923H104.192V7.99841H106.805V19.8553H104.192Z" fill="black"/>
<path d="M149.451 19.8553L143.866 12.4384V19.8553H141.291V7.99841H143.696L149.253 15.5399V7.99841H151.828V19.8553H149.451Z" fill="black"/>
<path d="M98.4323 36L94.7539 30.9507L93.3831 32.3723V36H90.7754V24.1384H93.3831V29.3261L98.1923 24.1384H101.345L96.5169 29.1692L101.566 36H98.4323Z" fill="black"/>
<path d="M104.492 36V24.1384H113.358V26.46H107.086V28.8646H112.597V31.1907H107.086V33.6784H113.446V36H104.492Z" fill="black"/>
<path d="M132.315 24.1384H129.707V35.9953H132.315V24.1384Z" fill="black"/>
<path d="M136.162 35.9816V24.1246H145.028V26.4462H138.751V28.8508H144.267V31.1723H138.751V33.66H145.111V35.9816H136.162Z" fill="black"/>
<path d="M149.008 36V24.1384H151.616V33.6277H157.532V36H149.008Z" fill="black"/>
<path d="M168.868 30.0692C168.892 29.5934 168.816 29.1178 168.644 28.6733C168.473 28.2288 168.21 27.8251 167.873 27.4885C167.536 27.1518 167.132 26.8896 166.687 26.7188C166.243 26.548 165.767 26.4724 165.291 26.4969H163.288V33.6415H165.3C165.775 33.67 166.25 33.5982 166.695 33.4306C167.139 33.263 167.544 33.0034 167.881 32.6689C168.219 32.3343 168.482 31.9323 168.654 31.4892C168.825 31.046 168.902 30.5715 168.877 30.0969L168.868 30.0692ZM165.291 36H160.676V24.1384H165.291C169.02 24.1384 171.596 26.7 171.596 30.0369V30.0692C171.596 33.4061 169.02 36 165.291 36Z" fill="black"/>
<path d="M62.9485 17.64C60.7792 17.6769 59.33 16.0061 59.2931 13.9753V13.9384C59.2656 13.4602 59.3353 12.9813 59.4978 12.5307C59.6604 12.08 59.9125 11.667 60.2389 11.3164C60.5654 10.9658 60.9594 10.6849 61.3973 10.4906C61.8352 10.2964 62.3079 10.1928 62.7869 10.1861C63.339 10.1748 63.8867 10.2856 64.391 10.5106C64.8952 10.7356 65.3435 11.0692 65.7038 11.4877L67.3561 9.51227C66.7453 8.93625 66.0259 8.48774 65.2397 8.19295C64.4536 7.89816 63.6166 7.76299 62.7777 7.79534C61.9566 7.78471 61.1417 7.93906 60.3814 8.24924C59.6211 8.55942 58.9307 9.0191 58.3514 9.60104C57.772 10.183 57.3154 10.8753 57.0086 11.637C56.7018 12.3987 56.5511 13.2143 56.5654 14.0353V14.0676C56.6254 17.4415 59.3023 20.123 62.9577 20.0676C63.8426 20.0553 64.7149 19.856 65.5175 19.483C66.32 19.1099 67.0347 18.5715 67.6146 17.903L65.8561 16.1861C65.5169 16.6385 65.0783 17.0069 64.5742 17.263C64.0701 17.5191 63.5139 17.6559 62.9485 17.663" fill="black"/>
<path d="M120.065 7.99841H122.862V19.8553H120.374V12.1015L117.014 17.1784H116.936L113.571 12.1015V19.8553H111.088V7.99841H113.88L116.973 12.9692L120.065 7.99841Z" fill="black"/>
<path d="M130.468 14.8938L132.042 11.0261L133.621 14.8753L130.468 14.8938ZM130.838 7.99841L125.793 19.8553H128.451L129.536 17.1969H134.548L135.633 19.8553H138.365L133.321 7.99841H130.838Z" fill="black"/>
<path d="M79.9527 31.0338L81.5266 27.18L83.1004 31.0246L79.9527 31.0338ZM80.322 24.1384L75.2773 36H77.9358L79.0204 33.3415H84.0327L85.1173 36H87.845L82.8004 24.1384H80.322Z" fill="black"/>
<path d="M119.723 26.5107V29.0353H125.303V31.4077H119.723V36H117.115V24.1384H126.148V26.5107H119.723Z" fill="black"/>
<path d="M72.4793 24.1384L69.7331 32.4L66.9823 24.1384H64.467L61.7162 32.4L58.9654 24.1384H56.1777L60.4516 36H63.0408L65.7223 27.8584L68.4039 36H70.9977L75.2716 24.1384H72.4793Z" fill="black"/>
<path d="M164.087 11.8938C163.725 11.6149 163.46 11.2289 163.33 10.7908C163.31 10.6765 163.315 10.5594 163.344 10.4472C163.373 10.3349 163.426 10.2303 163.499 10.1402C163.572 10.0501 163.664 9.97675 163.767 9.92497C163.871 9.87318 163.985 9.84421 164.101 9.83999C164.221 9.82553 164.343 9.83772 164.458 9.87571C164.573 9.91369 164.679 9.97654 164.767 10.0598C164.855 10.143 164.924 10.2446 164.968 10.3574C165.012 10.4702 165.031 10.5913 165.024 10.7123C165.024 11.2615 164.465 11.6908 164.101 11.8938H164.087ZM165.564 16.8231C165.358 17.1335 165.085 17.394 164.766 17.5857C164.447 17.7773 164.088 17.8952 163.718 17.9308C163.298 17.9256 162.897 17.7618 162.594 17.4724C162.29 17.1829 162.108 16.7892 162.084 16.3708C162.084 15.8446 162.471 15.06 163.648 14.5246L165.564 16.8231ZM168.49 16.9292L169.875 15.4015L168.227 13.6385L167.013 15.0692L165.536 13.3154C166.015 13.0414 166.411 12.6444 166.685 12.1656C166.958 11.6868 167.099 11.1436 167.091 10.5923C167.056 9.81276 166.713 9.07913 166.138 8.55162C165.562 8.02412 164.802 7.74561 164.022 7.77692C163.631 7.7719 163.243 7.84667 162.882 7.99665C162.521 8.14664 162.195 8.36869 161.922 8.64922C161.654 8.92766 161.446 9.258 161.31 9.61994C161.174 9.98187 161.114 10.3678 161.133 10.7538C161.161 11.6492 161.761 12.4015 162.199 12.9185C161.508 13.2046 160.914 13.6862 160.492 14.3043C160.07 14.9223 159.837 15.6501 159.822 16.3985C159.873 17.3988 160.308 18.3408 161.036 19.0286C161.765 19.7164 162.73 20.0968 163.731 20.0908C164.343 20.0643 164.943 19.9173 165.497 19.6583C166.052 19.3993 166.55 19.0334 166.962 18.5815L168.024 19.8784H171.079L168.49 16.9292Z" fill="black"/>
</svg>
