<svg width="122" height="36" viewBox="0 0 122 36" fill="none" xmlns="http://www.w3.org/2000/svg">
<path d="M0 0.0507411C0.207576 0.0507411 0.419764 0 0.62734 0H12.5238C12.7083 0 12.8974 3.37838e-06 13.128 0.032293V1.28698H9.19793V16.0756H24.3003V1.31465H20.038V0.0369033H33.3783V1.2593H29.4343V33.6043H33.3783V34.8774H20.0242V33.632H24.3003V17.8331H9.17025V33.5951H13.128V34.8774C12.9491 34.9035 12.769 34.9204 12.5883 34.9282H0.562761C0.378249 34.9282 0.189125 34.8959 0 34.8774V33.6135H4.05927V1.28698H0V0.0507411Z" fill="#292929"/>
<path d="M57.1163 33.2906H60.4006V34.5822H49.3852V33.3183H52.6418V12.4177H49.0254V11.1814L57.0609 10.8724V16.869H57.1808C57.4899 16.3109 57.7851 15.7389 58.1034 15.19C59.3581 13.1234 60.991 11.4997 63.4589 10.9923C65.1093 10.6258 66.8118 10.5555 68.4868 10.7847C71.1299 11.1999 72.8044 13.0496 72.869 15.7666C72.9382 18.5619 72.9013 21.3619 72.9013 24.1573C72.9013 27.0418 72.9013 29.9248 72.9013 32.8063V33.6181H76.2594V34.8959H65.2348V33.6827H68.2423V32.9631C68.2423 27.723 68.2423 22.4828 68.2423 17.2473C68.228 16.22 68.1089 15.1968 67.8871 14.1936C67.615 12.9481 66.7386 12.3162 65.4654 12.1501C64.6274 12.0312 63.7732 12.1112 62.9718 12.3836C62.1704 12.6561 61.4445 13.1134 60.8526 13.7185C59.7405 14.7396 58.8417 15.971 58.2083 17.3415C57.5749 18.712 57.2194 20.1945 57.1624 21.7032C57.0148 25.4673 57.1255 29.236 57.1255 33C57.1323 33.1054 57.1461 33.2102 57.167 33.3137" fill="#292929"/>
<path d="M99.8857 21.1451H82.5416C82.477 21.2373 82.4309 21.2696 82.4309 21.3019C82.3986 24.0327 82.2879 26.7635 82.8599 29.4712C83.6856 33.4013 86.5501 35.085 90.6048 34.5453C94.3458 34.0425 96.749 31.6438 98.1098 28.175C98.1744 27.9997 98.2251 27.8198 98.2897 27.6122H100.255C100.195 27.8659 100.153 28.1058 100.084 28.3318C98.7833 32.6079 95.9787 35.1403 91.5043 35.8322C88.6546 36.2378 85.752 35.6535 83.2812 34.1767C80.8105 32.7 78.9212 30.4203 77.9288 27.7183C76.2636 22.9072 78.1733 14.2951 84.6819 11.3705C89.5208 9.19792 95.582 10.8262 98.2759 15.0608C99.4036 16.8883 99.9668 19.008 99.895 21.1543L99.8857 21.1451ZM94.6318 19.4799C94.558 18.2206 94.5672 17.0028 94.3919 15.7896C94.3193 15.123 94.09 14.4829 93.7228 13.9217C93.3557 13.3606 92.861 12.8942 92.2792 12.5607C90.0236 11.2645 86.0197 11.0476 83.8378 14.558C82.9152 16.0202 82.8138 17.7224 82.7353 19.4476L94.6318 19.4799Z" fill="#292929"/>
<path d="M116.474 12.7544C117.106 11.961 117.295 10.5817 118.808 11.2045V17.7547C118.665 17.7547 118.541 17.7823 118.421 17.8054C117.752 17.9392 117.429 17.667 117.217 17.0028C116.794 15.5878 115.997 14.3131 114.91 13.3125C112.918 11.5043 109.311 11.2229 107.069 12.7036C106.104 13.3284 105.409 14.2933 105.122 15.4067C104.744 16.8136 105.122 17.8008 106.451 18.3589C107.736 18.8786 109.057 19.304 110.404 19.6321C112.341 20.1164 114.329 20.4162 116.257 20.9283C118.329 21.4818 120.114 22.5243 120.783 24.7384C122.208 29.4666 120.008 34.3146 114.887 35.6477C113.376 36.0736 111.782 36.114 110.251 35.7651C108.72 35.4162 107.301 34.6891 106.123 33.6504C105.879 33.4474 105.662 33.2352 105.348 32.9723C105.048 33.3398 104.78 33.7317 104.546 34.1439C104.158 34.9881 103.521 35.0896 102.7 34.8728V26.9757C102.802 26.9757 102.899 26.9295 102.996 26.9249C103.946 26.888 103.941 26.888 104.232 27.7829C105.279 31.0119 107.276 33.3183 110.731 34.0932C112.862 34.5545 114.883 34.3377 116.654 32.9216C117.16 32.5402 117.584 32.0611 117.901 31.5128C118.218 30.9644 118.421 30.358 118.499 29.7295C118.599 29.2378 118.539 28.727 118.327 28.2721C118.115 27.8172 117.763 27.442 117.323 27.2017C116.147 26.5417 114.911 25.9935 113.633 25.5641C111.695 24.9276 109.703 24.4617 107.738 23.9128C107.313 23.7928 106.893 23.6544 106.478 23.5022C103.766 22.4828 102.304 20.6607 102.723 17.0212C103.286 12.1316 107.244 10.102 111.612 10.4803C113.169 10.6693 114.64 11.2981 115.852 12.2931C116.045 12.4453 116.248 12.5883 116.465 12.7544" fill="#292929"/>
<path d="M34.8457 34.9511V33.6826H38.8266V12.4637H34.8688V11.1491C37.7425 11.0291 40.6486 11.3382 43.5501 10.4756V33.6503H47.1619C47.2219 33.7518 47.2588 33.7887 47.2634 33.8256C47.3695 34.9788 47.3695 34.9788 46.2301 34.9788H34.8457V34.9511Z" fill="#292929"/>
<path d="M43.8577 0.0599365H38.9082V4.97719H43.8577V0.0599365Z" fill="#292929"/>
</svg>
