<svg width="49" height="72" viewBox="0 0 49 72" fill="none" xmlns="http://www.w3.org/2000/svg">
<g clip-path="url(#clip0_714_46)">
<path d="M20.4783 12.3531H21.4833V11.9344H20.4783V11.5017H21.6208V11.085H20.0117V13.2185H21.6368V12.7998H20.4783V12.3531Z" fill="#292929"/>
<path d="M23.7747 11.9422C23.4058 11.8464 23.3141 11.8006 23.3141 11.661C23.3141 11.5573 23.4098 11.4756 23.5893 11.4756C23.791 11.4876 23.9843 11.5606 24.1436 11.6849L24.3869 11.332C24.1611 11.1507 23.8788 11.0547 23.5893 11.0608C23.1526 11.0608 22.8416 11.316 22.8416 11.7029C22.8416 12.1276 23.1187 12.2472 23.5494 12.3569C23.9063 12.4466 23.9801 12.5084 23.9801 12.6281C23.9801 12.7517 23.8625 12.8275 23.671 12.8275C23.4347 12.8205 23.2088 12.7285 23.035 12.5683L22.7578 12.8993C23.007 13.1212 23.3294 13.2434 23.6631 13.2422C24.1217 13.2422 24.4447 13.0029 24.4447 12.5802C24.4507 12.2093 24.2074 12.0538 23.7747 11.9422Z" fill="#292929"/>
<path d="M25.5605 11.5177H26.2086V13.2185H26.6792V11.5177H27.3272V11.085H25.5605V11.5177Z" fill="#292929"/>
<path d="M18.8418 58.5028L18.9395 58.8876L19.3104 58.7959V60.4688H19.775V58.3193H19.4539L18.8418 58.5028Z" fill="#292929"/>
<path d="M21.8936 58.2994C21.7903 58.2909 21.6864 58.3038 21.5883 58.3374C21.4903 58.371 21.4002 58.4244 21.3238 58.4945C21.2474 58.5645 21.1863 58.6496 21.1444 58.7443C21.1024 58.8391 21.0806 58.9415 21.0801 59.0452C21.0801 59.4778 21.3772 59.7351 21.8418 59.7351C21.9987 59.7394 22.1521 59.6878 22.2745 59.5895C22.2565 59.771 22.1648 60.074 21.8418 60.074C21.6687 60.0736 21.5022 60.0081 21.3752 59.8906L21.1279 60.2475C21.3207 60.4183 21.5703 60.5108 21.8278 60.5067C22.426 60.5067 22.759 60.0342 22.759 59.3423C22.759 58.9215 22.6593 58.6882 22.5058 58.5447C22.4282 58.4611 22.3331 58.3958 22.2272 58.3534C22.1214 58.311 22.0074 58.2925 21.8936 58.2994ZM22.2824 59.0332C22.2823 59.079 22.2724 59.1242 22.2533 59.1658C22.2343 59.2075 22.2065 59.2445 22.172 59.2746C22.1374 59.3046 22.0968 59.3269 22.0529 59.3399C22.0091 59.353 21.9629 59.3565 21.9175 59.3502C21.6862 59.3502 21.5447 59.2186 21.5447 59.0312C21.544 58.9851 21.5532 58.9394 21.5718 58.8972C21.5904 58.855 21.6178 58.8173 21.6522 58.7867C21.6867 58.756 21.7273 58.7331 21.7713 58.7196C21.8154 58.7061 21.8619 58.7022 21.9076 58.7082C21.9541 58.702 22.0014 58.7057 22.0463 58.7191C22.0913 58.7326 22.1328 58.7554 22.1683 58.7862C22.2037 58.8169 22.2322 58.8548 22.2519 58.8974C22.2716 58.94 22.282 58.9863 22.2824 59.0332Z" fill="#292929"/>
<path d="M24.9267 59.7955C25.3056 59.5044 25.487 59.3269 25.487 58.97C25.487 58.5712 25.1939 58.312 24.7532 58.312C24.5927 58.3069 24.4338 58.3453 24.2934 58.4233C24.1529 58.5012 24.0362 58.6157 23.9556 58.7546L24.2847 59.0198C24.4422 58.8204 24.5558 58.7327 24.7213 58.7327C24.759 58.7292 24.7969 58.7338 24.8326 58.7464C24.8683 58.7589 24.9008 58.7791 24.9279 58.8055C24.955 58.8318 24.9761 58.8637 24.9896 58.899C25.0032 58.9343 25.0089 58.9721 25.0065 59.0099C25.0065 59.1873 24.9028 59.303 24.6376 59.5223L23.9277 60.1046V60.4754H25.507V60.0766H24.5798L24.9267 59.7955Z" fill="#292929"/>
<path d="M26.7383 58.7407H27.7412L26.7881 60.4695H27.3185L28.2756 58.6889V58.3359H26.7383V58.7407Z" fill="#292929"/>
<path d="M24.0213 0C17.6527 0.00738814 11.5471 2.54057 7.04383 7.04383C2.54057 11.5471 0.00738814 17.6527 0 24.0213V47.9807C0 54.3516 2.53081 60.4615 7.03567 64.9663C11.5405 69.4712 17.6504 72.002 24.0213 72.002C30.3921 72.002 36.502 69.4712 41.0069 64.9663C45.5117 60.4615 48.0425 54.3516 48.0425 47.9807V24.0213C48.0357 17.6525 45.5027 11.5466 40.9993 7.04325C36.4959 2.53987 30.39 0.00686144 24.0213 0ZM46.7823 47.9807C46.7823 54.0173 44.3843 59.8067 40.1158 64.0752C35.8473 68.3438 30.0579 70.7418 24.0213 70.7418C17.9847 70.7418 12.1953 68.3438 7.92675 64.0752C3.65822 59.8067 1.26018 54.0173 1.26018 47.9807V24.0213C1.26018 17.9847 3.65822 12.1953 7.92675 7.92675C12.1953 3.65822 17.9847 1.26018 24.0213 1.26018C30.0579 1.26018 35.8473 3.65822 40.1158 7.92675C44.3843 12.1953 46.7823 17.9847 46.7823 24.0213V47.9807Z" fill="#292929"/>
<path d="M24.0221 2.63184C18.3512 2.63817 12.9145 4.8937 8.90457 8.90359C4.89468 12.9135 2.63915 18.3502 2.63281 24.0211V47.9805C2.63281 50.7894 3.18606 53.5708 4.26097 56.1658C5.33588 58.7609 6.9114 61.1188 8.89757 63.105C10.8837 65.0912 13.2417 66.6667 15.8367 67.7416C18.4318 68.8165 21.2132 69.3698 24.0221 69.3698C26.8309 69.3698 29.6123 68.8165 32.2074 67.7416C34.8024 66.6667 37.1604 65.0912 39.1465 63.105C41.1327 61.1188 42.7082 58.7609 43.7831 56.1658C44.858 53.5708 45.4113 50.7894 45.4113 47.9805V24.0211C45.405 18.3502 43.1494 12.9135 39.1395 8.90359C35.1296 4.8937 29.6929 2.63817 24.0221 2.63184ZM44.7812 47.9805C44.8081 50.7239 44.291 53.4454 43.2597 55.9877C42.2285 58.5301 40.7036 60.8428 38.7732 62.7922C36.8427 64.7417 34.5451 66.2891 32.013 67.3453C29.4809 68.4014 26.7646 68.9451 24.0211 68.9451C21.2775 68.9451 18.5612 68.4014 16.0291 67.3453C13.497 66.2891 11.1994 64.7417 9.26895 62.7922C7.33853 60.8428 5.81362 58.5301 4.78238 55.9877C3.75115 53.4454 3.23402 50.7239 3.26091 47.9805V43.546C3.67582 44.2924 4.28293 44.9142 5.01923 45.3469C5.75554 45.7796 6.59422 46.0073 7.44823 46.0065C7.71161 46.0055 7.97442 45.9821 8.23386 45.9367C8.25538 45.9353 8.27674 45.932 8.29766 45.9267H8.33355C9.15937 45.7708 9.92954 45.4 10.5666 44.8519C11.2037 44.3037 11.6851 43.5975 11.9626 42.8042L16.8119 29.2213L23.6811 44.9517L21.9264 48.9616C21.7714 49.3104 21.706 49.6924 21.7362 50.0729C21.7663 50.4534 21.8911 50.8204 22.0991 51.1404C22.3071 51.4604 22.5917 51.7235 22.9272 51.9055C23.2627 52.0876 23.6384 52.183 24.0201 52.183C24.4018 52.183 24.7774 52.0876 25.1129 51.9055C25.4484 51.7235 25.7331 51.4604 25.9411 51.1404C26.1491 50.8204 26.2738 50.4534 26.304 50.0729C26.3341 49.6924 26.2687 49.3104 26.1137 48.9616L24.361 44.9457L31.2322 29.2213L36.0835 42.7803C36.3607 43.5739 36.842 44.2806 37.4791 44.8291C38.1162 45.3776 38.8865 45.7486 39.7125 45.9048H39.7504C39.7706 45.9102 39.7914 45.9136 39.8122 45.9148C40.0717 45.9602 40.3345 45.9836 40.5979 45.9846C41.4519 45.9854 42.2906 45.7576 43.0269 45.325C43.7632 44.8923 44.3703 44.2705 44.7852 43.524L44.7812 47.9805ZM15.2705 26.1745L15.4301 25.7119L15.5756 25.2912L15.7351 24.8266L15.8807 24.4079L16.0402 23.9433L16.1838 23.5246L16.3453 23.06L16.4889 22.6393L16.6484 22.1767L16.7939 21.7559L16.9535 21.2913L17.099 20.8726L17.2067 20.5596C17.4122 20.6302 17.6038 20.7362 17.773 20.8726C18.0595 21.1008 18.273 21.4079 18.3871 21.7559C18.4325 21.8924 18.4626 22.0335 18.4768 22.1767C18.4799 22.2364 18.4799 22.2963 18.4768 22.3561C18.4766 22.4509 18.4692 22.5455 18.4549 22.6393C18.4397 22.7426 18.4163 22.8446 18.3851 22.9443L18.3432 23.06L18.1777 23.5246L18.0282 23.9433L17.8607 24.4079L17.7112 24.8266L17.5457 25.2912L17.3961 25.7119L17.2306 26.1745L17.0791 26.5953L16.9136 27.0599L16.764 27.4786L16.5985 27.9432L16.447 28.3619L16.2855 28.8225L16.1359 29.2433L15.9704 29.7079L15.8209 30.1266L15.6534 30.5912L15.5038 31.0099L15.3383 31.4745L15.1888 31.8952L15.0213 32.3578L14.8718 32.7786L14.7063 33.2432L14.5567 33.6619L14.3892 34.1265L14.2397 34.5452L14.0742 35.0098L13.9246 35.4305L13.7571 35.8931L13.6076 36.3139L13.4421 36.7784L13.2925 37.1972L13.127 37.6618L12.9755 38.0805L12.81 38.5451L12.6605 38.9658L12.495 39.4284L12.3434 39.8491L12.1779 40.3137L12.0284 40.7325L11.8629 41.1971L11.7113 41.6158L11.5458 42.0804L11.3963 42.5011L11.3664 42.5849C11.3205 42.7145 11.2667 42.8401 11.2108 42.9657C11.1433 43.1092 11.0681 43.249 10.9855 43.3844C10.8857 43.5465 10.7751 43.7017 10.6545 43.849C10.1608 44.4506 9.50888 44.9022 8.77222 45.1531L8.71839 45.173V45.1531L8.86395 44.7324L9.02346 44.2678L9.16902 43.849L9.32854 43.3844L9.4721 42.9657L9.63362 42.5011L9.77718 42.0804L9.9367 41.6158L10.0823 41.1971L10.2418 40.7325L10.3873 40.3137L10.5469 39.8491L10.6924 39.4284L10.8519 38.9658L10.9955 38.5451L11.155 38.0805L11.3006 37.6618L11.4601 37.1972L11.6056 36.7784L11.7652 36.3139L11.9107 35.8931L12.0702 35.4305L12.2138 35.0098L12.3753 34.5452L12.5189 34.1265L12.6784 33.6619L12.824 33.2432L12.9835 32.7786L13.129 32.3578L13.2885 31.8952L13.4321 31.4745L13.5936 31.0099L13.7372 30.5912L13.8967 30.1266L14.0423 29.7079L14.2018 29.2433L14.3473 28.8225L14.5069 28.3579L14.6524 27.9392L14.8119 27.4746L14.9555 27.0559L15.117 26.5913L15.2705 26.1745ZM14.8339 23.1098C14.7305 22.872 14.6776 22.6154 14.6783 22.3561C14.6789 21.8523 14.8788 21.3691 15.2345 21.0123C15.5903 20.6555 16.0728 20.454 16.5766 20.4519L15.2965 24.1686L14.8339 23.1098ZM24.0221 45.7393L25.5415 49.2208C25.6343 49.4312 25.6819 49.6588 25.681 49.8887C25.6888 50.1116 25.6515 50.3337 25.5716 50.5418C25.4916 50.75 25.3706 50.9399 25.2157 51.1003C25.0608 51.2606 24.8752 51.3882 24.67 51.4753C24.4647 51.5624 24.244 51.6073 24.0211 51.6073C23.7981 51.6073 23.5774 51.5624 23.3722 51.4753C23.1669 51.3882 22.9813 51.2606 22.8264 51.1003C22.6715 50.9399 22.5505 50.75 22.4705 50.5418C22.3906 50.3337 22.3534 50.1116 22.3611 49.8887C22.3609 49.6586 22.4091 49.431 22.5027 49.2208L24.0221 45.7393ZM31.5592 22.6412L31.7028 23.062L31.8643 23.5266L32.0079 23.9453L32.1674 24.4099L32.3129 24.8286L32.4725 25.2932L32.618 25.7139L32.7775 26.1765L32.9211 26.5973L33.0826 27.0619L33.2262 27.4806L33.3857 27.9452L33.5313 28.3639L33.6908 28.8285L33.8363 29.2492L33.9959 29.7138L34.1414 30.1326L34.3009 30.5972L34.4445 31.0159L34.606 31.4805L34.7496 31.9012L34.9091 32.3638L35.0546 32.7845L35.2142 33.2491L35.3597 33.6679L35.5192 34.1325L35.6628 34.5512L35.8243 35.0158L35.9679 35.4365L36.1274 35.8991L36.273 36.3198L36.4325 36.7844L36.584 37.1972L36.7435 37.6618L36.8871 38.0805L37.0486 38.5451L37.1922 38.9658L37.3517 39.4284L37.4972 39.8491L37.6568 40.3137L37.8023 40.7325L37.9618 41.1971L38.1074 41.6158L38.2669 42.0804L38.4105 42.5011L38.572 42.9657L38.7156 43.3844L38.8751 43.849L39.0206 44.2678L39.1802 44.7324L39.3257 45.1531V45.173L39.2719 45.1531C38.9626 45.0479 38.6668 44.9067 38.3905 44.7324C38.1777 44.5956 37.9775 44.4401 37.7924 44.2678C37.6503 44.1371 37.5171 43.9973 37.3936 43.849C37.273 43.7017 37.1624 43.5465 37.0626 43.3844C36.9807 43.249 36.9061 43.1092 36.8392 42.9657C36.7814 42.8401 36.7276 42.7125 36.6817 42.5809L36.6518 42.5011L36.5023 42.0804L36.3368 41.6158L36.1852 41.1971L36.0197 40.7325L35.8702 40.3137L35.7047 39.8491L35.5531 39.4284L35.3876 38.9658L35.2381 38.5451L35.0726 38.0805L34.9211 37.6618L34.7556 37.1972L34.606 36.7784L34.4405 36.3139L34.291 35.8931L34.1235 35.4305L33.9739 35.0098L33.8084 34.5452L33.6589 34.1265L33.4914 33.6619L33.3418 33.2432L33.1763 32.7786L33.0268 32.3578L32.8593 31.8952L32.7097 31.4745L32.5442 31.0099L32.3947 30.5912L32.2272 30.1266L32.0777 29.7079L31.9122 29.2433L31.7586 28.8225L31.5931 28.3579L31.4416 27.9392L31.2761 27.4746L31.1265 27.0559L30.961 26.5913L30.8095 26.1706L30.644 25.708L30.4945 25.2872L30.329 24.8226L30.1774 24.4039L30.0119 23.9393L29.8624 23.5206L29.6969 23.056L29.6729 22.9922L29.657 22.9463C29.6241 22.8449 29.6001 22.7408 29.5852 22.6353C29.5709 22.5416 29.5636 22.4469 29.5633 22.3521C29.5602 22.2923 29.5602 22.2324 29.5633 22.1727C29.5766 22.0294 29.6067 21.8882 29.653 21.7519C29.7072 21.5874 29.7837 21.4311 29.8803 21.2873C29.9884 21.1298 30.1187 20.9888 30.2671 20.8686C30.4363 20.7322 30.6279 20.6263 30.8334 20.5556L30.9411 20.8686L31.0867 21.2873L31.2462 21.7519L31.3917 22.1727L31.5592 22.6412ZM31.4715 20.4479C31.7862 20.4495 32.0957 20.529 32.3723 20.6793C32.6489 20.8295 32.884 21.0458 33.0567 21.3089C33.2294 21.5721 33.3344 21.8738 33.3622 22.1874C33.39 22.5009 33.3399 22.8164 33.2162 23.1058L32.7536 24.1686L31.4715 20.4479ZM44.7812 38.896C44.2386 37.9203 43.372 37.165 42.3313 36.7608C41.2906 36.3566 40.1414 36.329 39.0825 36.6827C39.0432 36.6958 39.0069 36.7165 38.9756 36.7437C38.9443 36.7708 38.9187 36.8038 38.9002 36.8408C38.8816 36.8779 38.8706 36.9182 38.8677 36.9595C38.8647 37.0008 38.87 37.0423 38.8831 37.0815C38.8961 37.1208 38.9168 37.1571 38.944 37.1884C38.9711 37.2197 39.0041 37.2453 39.0412 37.2638C39.0782 37.2823 39.1185 37.2934 39.1598 37.2963C39.2011 37.2992 39.2426 37.294 39.2818 37.2809C39.8533 37.0875 40.4601 37.0209 41.0599 37.0856C41.6597 37.1503 42.2383 37.3449 42.7553 37.6558C43.2724 37.9667 43.7155 38.3865 44.054 38.8859C44.3924 39.3854 44.6181 39.9525 44.7152 40.548C44.8123 41.1434 44.7787 41.7529 44.6165 42.334C44.4543 42.9151 44.1675 43.4539 43.7761 43.9131C43.3847 44.3722 42.898 44.7405 42.3498 44.9925C41.8016 45.2446 41.2052 45.3742 40.6019 45.3724C40.4164 45.3723 40.2311 45.3589 40.0475 45.3325L33.0567 25.0519L33.7945 23.3591C33.9601 22.9734 34.0275 22.5526 33.9905 22.1345C33.9535 21.7164 33.8132 21.314 33.5824 20.9634C33.3516 20.6128 33.0373 20.3249 32.6679 20.1257C32.2984 19.9265 31.8853 19.822 31.4655 19.8218C31.3143 19.8223 31.1634 19.8369 31.0149 19.8657H30.985L30.9411 19.8756C30.588 19.9507 30.2551 20.1004 29.9646 20.3146C29.6741 20.5289 29.4328 20.8028 29.2568 21.1179C29.0809 21.4331 28.9743 21.7822 28.9442 22.1419C28.9142 22.5016 28.9614 22.8636 29.0827 23.2035L30.9251 28.3599L24.0221 44.176L17.119 28.3699L18.8477 23.5325L18.9594 23.2175C19.0807 22.8775 19.1279 22.5156 19.0979 22.1559C19.0678 21.7962 18.9613 21.447 18.7853 21.1319C18.6093 20.8167 18.368 20.5429 18.0775 20.3286C17.787 20.1143 17.4541 19.9647 17.101 19.8896L17.0571 19.8796H17.0272C16.8787 19.8509 16.7278 19.8362 16.5766 19.8357C15.9088 19.8389 15.2691 20.1053 14.7965 20.5772C14.3239 21.049 14.0564 21.6883 14.0522 22.3561C14.0494 22.6986 14.1173 23.038 14.2516 23.3531L14.9874 25.04L7.99657 45.3365C7.81297 45.3629 7.62774 45.3762 7.44225 45.3764C6.84076 45.3755 6.24663 45.2441 5.70095 44.991C5.15527 44.738 4.67106 44.3694 4.2818 43.9109C3.89254 43.4523 3.60752 42.9147 3.44645 42.3352C3.28539 41.7557 3.25211 41.1481 3.34893 40.5544C3.44575 39.9608 3.67036 39.3952 4.00722 38.8969C4.34407 38.3986 4.78515 37.9794 5.29993 37.6683C5.81472 37.3572 6.39093 37.1616 6.98874 37.0951C7.58654 37.0285 8.19166 37.0926 8.76225 37.2829C8.80153 37.296 8.843 37.3012 8.8843 37.2983C8.9256 37.2954 8.96592 37.2843 9.00295 37.2658C9.03998 37.2473 9.073 37.2217 9.10013 37.1904C9.12725 37.1591 9.14795 37.1228 9.16105 37.0835C9.17414 37.0442 9.17937 37.0028 9.17643 36.9615C9.1735 36.9202 9.16246 36.8799 9.14394 36.8428C9.12543 36.8058 9.0998 36.7728 9.06852 36.7456C9.03724 36.7185 9.00093 36.6978 8.96165 36.6847C7.90248 36.3304 6.75276 36.3578 5.71163 36.762C4.6705 37.1662 3.80354 37.9219 3.26091 38.898V24.0211C3.23402 21.2777 3.75115 18.5562 4.78238 16.0139C5.81362 13.4715 7.33853 11.1588 9.26895 9.20938C11.1994 7.25994 13.497 5.71245 16.0291 4.65634C18.5612 3.60024 21.2775 3.05647 24.0211 3.05647C26.7646 3.05647 29.4809 3.60024 32.013 4.65634C34.5451 5.71245 36.8427 7.25994 38.7732 9.20938C40.7036 11.1588 42.2285 13.4715 43.2597 16.0139C44.291 18.5562 44.8081 21.2777 44.7812 24.0211V38.896Z" fill="#292929"/>
<path d="M18.0393 21.7559H17.1221L16.9785 22.1766H18.155C18.1361 22.0316 18.0972 21.89 18.0393 21.7559Z" fill="#292929"/>
<path d="M30.9213 21.7559H30.0041C29.9496 21.8905 29.914 22.0321 29.8984 22.1766H31.0749L30.9213 21.7559Z" fill="#292929"/>
<path d="M18.0736 22.8908L18.0915 22.8449C18.1115 22.7795 18.1274 22.7129 18.1394 22.6455H16.8194L16.6738 23.0662H18.0138L18.0736 22.8908Z" fill="#292929"/>
<path d="M31.2263 22.6416H29.9062C29.9174 22.7091 29.9334 22.7758 29.9541 22.841L29.9701 22.8849L30.0319 23.0544H31.3718L31.2263 22.6416Z" fill="#292929"/>
<path d="M30.3469 23.9442H31.6748L31.5293 23.5234H30.1953L30.3469 23.9442Z" fill="#292929"/>
<path d="M17.8467 23.5234H16.5127L16.3691 23.9442H17.6971L17.8467 23.5234Z" fill="#292929"/>
<path d="M17.5301 24.4082H16.2081L16.0625 24.8269H17.3805L17.5301 24.4082Z" fill="#292929"/>
<path d="M30.6613 24.8269H31.9793L31.8337 24.4082H30.5117L30.6613 24.8269Z" fill="#292929"/>
<path d="M17.2134 25.291H15.9034L15.7578 25.7097H17.0639L17.2134 25.291Z" fill="#292929"/>
<path d="M30.9777 25.7097H32.2838L32.1382 25.291H30.8262L30.9777 25.7097Z" fill="#292929"/>
<path d="M16.8987 26.1748H15.5987L15.4531 26.5955H16.7492L16.8987 26.1748Z" fill="#292929"/>
<path d="M31.2941 26.5955H32.5882L32.4446 26.1748H31.1445L31.2941 26.5955Z" fill="#292929"/>
<path d="M16.5841 27.0586H15.294L15.1504 27.4793H16.4325L16.5841 27.0586Z" fill="#292929"/>
<path d="M31.6105 27.4793H32.8926L32.7491 27.0586H31.459L31.6105 27.4793Z" fill="#292929"/>
<path d="M16.1179 28.3621L16.1896 28.1587L16.2674 27.9434H14.9893L14.8457 28.3621H16.1179Z" fill="#292929"/>
<path d="M31.8532 28.1627L31.9249 28.3621H33.1971L33.0515 27.9434H31.7754L31.8532 28.1627Z" fill="#292929"/>
<path d="M30.6579 20.9902C30.5214 21.072 30.3978 21.1735 30.291 21.2913H30.7616L30.6579 20.9902Z" fill="#292929"/>
<path d="M17.3869 20.9902L17.2832 21.2913H17.7518C17.6467 21.1725 17.5235 21.0709 17.3869 20.9902Z" fill="#292929"/>
<path d="M14.5391 29.2459H15.7992L15.9508 28.8271H14.6846L14.5391 29.2459Z" fill="#292929"/>
<path d="M32.2413 29.2459H33.5035L33.358 28.8271H32.0918L32.2413 29.2459Z" fill="#292929"/>
<path d="M32.5578 30.1317H33.806L33.6624 29.7109H32.4082L32.5578 30.1317Z" fill="#292929"/>
<path d="M14.2344 30.1317H15.4846L15.6341 29.7109H14.3799L14.2344 30.1317Z" fill="#292929"/>
<path d="M32.8722 31.0135H34.1105L33.9669 30.5928H32.7227L32.8722 31.0135Z" fill="#292929"/>
<path d="M13.9316 31.0144H15.1699L15.3194 30.5957H14.0752L13.9316 31.0144Z" fill="#292929"/>
<path d="M33.1886 31.8972H34.4149L34.2693 31.4785H33.0391L33.1886 31.8972Z" fill="#292929"/>
<path d="M13.627 31.8972H14.8532L15.0028 31.4785H13.7705L13.627 31.8972Z" fill="#292929"/>
<path d="M13.3223 32.783H14.5386L14.6881 32.3623H13.4678L13.3223 32.783Z" fill="#292929"/>
<path d="M33.505 32.783H34.7213L34.5758 32.3623H33.3555L33.505 32.783Z" fill="#292929"/>
<path d="M13.0156 33.6658H14.22L14.3695 33.2451H13.1612L13.0156 33.6658Z" fill="#292929"/>
<path d="M33.8214 33.6658H35.0238L34.8802 33.2451H33.6719L33.8214 33.6658Z" fill="#292929"/>
<path d="M12.7129 34.5496H13.9033L14.0548 34.1309H12.8565L12.7129 34.5496Z" fill="#292929"/>
<path d="M34.1359 34.5496H35.3283L35.1847 34.1289H33.9863L34.1359 34.5496Z" fill="#292929"/>
<path d="M34.4543 35.4334H35.6347L35.4911 35.0146H34.3027L34.4543 35.4334Z" fill="#292929"/>
<path d="M12.4082 35.4334H13.5886L13.7382 35.0146H12.5518L12.4082 35.4334Z" fill="#292929"/>
<path d="M34.7687 36.3152H35.9391L35.7936 35.8965H34.6191L34.7687 36.3152Z" fill="#292929"/>
<path d="M12.1035 36.3172H13.274L13.4235 35.8965H12.2491L12.1035 36.3172Z" fill="#292929"/>
<path d="M11.7988 37.201H12.9573L13.1069 36.7803H11.9444L11.7988 37.201Z" fill="#292929"/>
<path d="M35.0851 37.201H36.2416L36.098 36.7803H34.9355L35.0851 37.201Z" fill="#292929"/>
<path d="M11.4961 38.0847H12.6426L12.7922 37.666H11.6397L11.4961 38.0847Z" fill="#292929"/>
<path d="M35.4015 38.0847H36.548L36.4045 37.666H35.252L35.4015 38.0847Z" fill="#292929"/>
<path d="M35.7179 38.9675H36.8525L36.7089 38.5488H35.5684L35.7179 38.9675Z" fill="#292929"/>
<path d="M11.1895 38.9675H12.324L12.4736 38.5488H11.333L11.1895 38.9675Z" fill="#292929"/>
<path d="M10.8848 39.8533H12.0094L12.1589 39.4326H11.0283L10.8848 39.8533Z" fill="#292929"/>
<path d="M36.0324 39.8533H37.157L37.0114 39.4326H35.8828L36.0324 39.8533Z" fill="#292929"/>
<path d="M10.5801 40.7371H11.6927L11.8443 40.3164H10.7256L10.5801 40.7371Z" fill="#292929"/>
<path d="M36.3508 40.7371H37.4634L37.3178 40.3164H36.1992L36.3508 40.7371Z" fill="#292929"/>
<path d="M36.6652 41.6199H37.7658L37.6223 41.2012H36.5156L36.6652 41.6199Z" fill="#292929"/>
<path d="M10.2754 41.6199H11.3781L11.5276 41.2012H10.4209L10.2754 41.6199Z" fill="#292929"/>
<path d="M36.9716 42.4788L36.9816 42.5027H38.0703L37.9268 42.084H36.8301L36.9716 42.4788Z" fill="#292929"/>
<path d="M9.97266 42.5027H11.0614L11.0713 42.4788L11.2129 42.084H10.1162L9.97266 42.5027Z" fill="#292929"/>
<path d="M37.4349 43.3894H38.378L38.2345 42.9707H37.1816C37.2567 43.1157 37.3413 43.2556 37.4349 43.3894Z" fill="#292929"/>
<path d="M9.66406 43.3883H10.6072C10.7004 43.2577 10.785 43.1211 10.8604 42.9795H9.81361L9.66406 43.3883Z" fill="#292929"/>
<path d="M9.36328 44.2713H9.76207C9.92847 44.145 10.0839 44.005 10.2267 43.8525H9.49887L9.36328 44.2713Z" fill="#292929"/>
<path d="M38.2714 44.2713H38.6702L38.5266 43.8525H37.7988C37.9446 44.0049 38.1026 44.1449 38.2714 44.2713Z" fill="#292929"/>
</g>
<defs>
<clipPath id="clip0_714_46">
<rect width="48.0406" height="72" fill="white"/>
</clipPath>
</defs>
</svg>
