<svg width="248" height="36" viewBox="0 0 248 36" fill="none" xmlns="http://www.w3.org/2000/svg">
<path d="M20.2574 0.646973H17.4221H16.6614L10.6449 15.9697L4.2135 0.646973H2.83535H0V23.2655H1.37816V4.87035H1.3831H1.44731L1.45225 4.88023L9.10373 23.2655H9.67673L16.7651 5.08276H16.8343V23.2655H21.0478V0.646973H20.2574Z" fill="white"/>
<path d="M49.7767 12.4082H51.8514C55.5166 12.4082 57.285 10.5904 57.285 6.71777C57.285 4.38133 56.1439 1.59044 51.7526 1.59044H49.7767V12.4082ZM45.5632 0.646973H54.7213C58.0753 0.646973 61.4985 2.91426 61.4985 7.34511C61.4985 12.2353 58.5594 13.5246 52.8541 13.5246H49.7767V23.2606H45.5632V0.646973Z" fill="white"/>
<path d="M65.3662 0.646973V23.2655H78.5698V22.1442H69.5846V0.646973H65.3662Z" fill="white"/>
<path d="M82.304 0.646973V23.2655H95.6854V22.1541H86.5224V13.4505H95.0284V12.3243H86.5224V1.76333H95.5471V0.646973H82.304Z" fill="white"/>
<path d="M31.5493 7.60719L34.8342 15.9107H28.299L31.5493 7.60719ZM32.9324 0.622559L23.8879 23.2609H25.4538L27.8396 16.9925H35.2491L37.7782 23.2411H42.1003L32.9324 0.622559Z" fill="white"/>
<path d="M130.816 23.246V0.627441H144.059V1.7438H135.035V12.3047H143.541V13.431H135.035V22.1346H144.198V23.246H130.816Z" fill="white"/>
<path d="M234.272 0.627441V23.246H247.653V22.1346H238.49V13.431H246.996V12.3047H238.49V1.7438H247.515V0.627441H234.272Z" fill="white"/>
<path d="M109.245 0.627441V1.73886H115.592V23.246H119.811V1.73886H126.158V0.627441H109.245Z" fill="white"/>
<path d="M194.221 15.8758L197.472 7.57231L200.756 15.8758H194.221ZM198.85 0.562988L189.82 23.2161H191.386L193.767 16.9922H201.176L203.7 23.2408H208.023L198.85 0.562988Z" fill="white"/>
<path d="M149.399 23.2411V0.627441H159.081C163.161 0.627441 165.443 3.66531 165.443 7.291C165.443 10.7487 163.581 12.9913 159.599 13.4013L165.527 23.2411H160.913L154.793 12.3739H155.07C159.629 12.6505 161.121 10.1757 161.121 6.78716C161.121 4.27783 160.014 1.55609 155.899 1.55609H153.617V23.2262L149.399 23.2411Z" fill="white"/>
<path d="M170.723 23.2411V0.627441H180.4C184.48 0.627441 186.762 3.66531 186.762 7.291C186.762 10.7487 184.9 12.9913 180.919 13.4013L186.846 23.2411H182.213L176.093 12.3739H176.369C180.929 12.6505 182.42 10.1757 182.42 6.78716C182.42 4.27783 181.314 1.55609 177.199 1.55609H174.917V23.2262L170.723 23.2411Z" fill="white"/>
<path d="M229.021 5.28046C227.401 3.15148 225.425 1.27936 222.145 0.978044C216.711 0.484081 213.915 5.51262 213.915 12.0379C213.915 17.1356 216.474 22.5099 221.626 22.4555C225.296 22.421 227.949 20.208 229.317 17.264L230.542 17.8666C228.507 22.1246 225.084 23.8683 220.796 23.8683C214.469 23.8683 209.386 18.5285 209.386 12.2157C209.386 4.98902 214.642 0 221.211 0C222.925 0.0217893 224.607 0.458225 226.115 1.272C227.623 2.08577 228.912 3.25266 229.87 4.67288L229.021 5.28046Z" fill="white"/>
<path d="M0 33.6095V30.5024H0.93853V33.5699C0.93853 34.5579 1.43249 35.1062 2.29199 35.1062C3.15148 35.1062 3.63557 34.6122 3.63557 33.6243V30.5173H4.57903V33.5798C4.57903 35.1901 3.67508 36.0002 2.27717 36.0002C0.879254 36.0002 0 35.1901 0 33.6243" fill="white"/>
<path d="M9.88913 33.293C10.6004 33.293 11.0401 32.8929 11.0401 32.3298C11.0401 31.6975 10.5906 31.3419 9.88913 31.3419H8.79747V33.293H9.88913ZM7.854 30.4873H9.96323C11.2179 30.4873 11.9984 31.2035 11.9984 32.2903C11.9984 33.5005 11.0104 34.1327 9.85949 34.1327H8.79747V35.8715H7.854V30.4873Z" fill="white"/>
<path d="M14.562 30.5024V31.3817H16.2612V35.9015H17.2097V31.3817H18.9039V30.5024H14.562Z" fill="white"/>
<path d="M26.2542 33.214C26.2648 32.9676 26.2258 32.7215 26.1395 32.4904C26.0532 32.2593 25.9214 32.0478 25.7518 31.8686C25.5823 31.6894 25.3785 31.5461 25.1525 31.4471C24.9266 31.3482 24.683 31.2956 24.4364 31.2925C24.1912 31.2942 23.949 31.3455 23.7242 31.4432C23.4994 31.541 23.2967 31.6832 23.1282 31.8613C22.9598 32.0394 22.8291 32.2498 22.7441 32.4797C22.6591 32.7096 22.6214 32.9544 22.6334 33.1992C22.6228 33.4454 22.6618 33.6913 22.7482 33.9221C22.8345 34.1529 22.9664 34.364 23.136 34.5428C23.3056 34.7217 23.5094 34.8645 23.7354 34.963C23.9613 35.0614 24.2048 35.1134 24.4512 35.1158C24.6961 35.1147 24.9383 35.0641 25.163 34.9669C25.3878 34.8697 25.5906 34.7279 25.7591 34.5502C25.9276 34.3725 26.0583 34.1624 26.1434 33.9328C26.2285 33.7031 26.2662 33.4586 26.2542 33.214ZM21.6455 33.214C21.6408 32.845 21.7103 32.4787 21.8498 32.137C21.9893 31.7953 22.1961 31.4851 22.4577 31.2248C22.7194 30.9645 23.0307 30.7595 23.3731 30.6217C23.7156 30.484 24.0822 30.4165 24.4512 30.4231C24.8188 30.4144 25.1844 30.4801 25.526 30.6164C25.8676 30.7526 26.1781 30.9565 26.4388 31.2159C26.6995 31.4752 26.9051 31.7846 27.0431 32.1254C27.1812 32.4663 27.2489 32.8315 27.2421 33.1992C27.2118 33.921 26.9037 34.6032 26.3822 35.1032C25.8607 35.6032 25.1662 35.8824 24.4438 35.8824C23.7213 35.8824 23.0268 35.6032 22.5054 35.1032C21.9839 34.6032 21.6758 33.921 21.6455 33.1992" fill="white"/>
<path d="M33.5598 30.4873L32.2458 34.5082L30.9714 30.5021H29.9539L31.821 35.9407H32.6311L33.9451 32.0581L35.259 35.9407H36.0741L37.9314 30.5021H36.9484L35.669 34.5082L34.3551 30.4873H33.5598Z" fill="white"/>
<path d="M44.6197 30.5024V34.2368L41.7547 30.5024H40.8804V35.9015H41.8041V32.0584L44.758 35.9015H45.5434V30.5024H44.6197Z" fill="white"/>
<path d="M55.7833 31.3618V35.0369H56.8403C57.0851 35.0516 57.3303 35.0148 57.56 34.9289C57.7897 34.843 57.9988 34.7098 58.1738 34.5381C58.3488 34.3663 58.4859 34.1597 58.5761 33.9317C58.6664 33.7036 58.7078 33.4592 58.6976 33.2142C58.7076 32.9685 58.6662 32.7235 58.5761 32.4948C58.486 32.266 58.3492 32.0585 58.1744 31.8856C57.9997 31.7127 57.7907 31.5781 57.561 31.4905C57.3313 31.4029 57.0859 31.3641 56.8403 31.3767L55.7833 31.3618ZM54.8447 30.5023H56.8206C57.1864 30.4793 57.5531 30.5317 57.8979 30.6562C58.2427 30.7808 58.5583 30.9748 58.825 31.2262C59.0918 31.4777 59.304 31.7813 59.4487 32.1181C59.5933 32.455 59.6672 32.818 59.6658 33.1846C59.6677 33.5522 59.5944 33.9163 59.4502 34.2545C59.306 34.5927 59.0941 34.8977 58.8276 35.1509C58.561 35.4041 58.2454 35.5999 57.9002 35.7265C57.555 35.853 57.1876 35.9075 56.8206 35.8865H54.8447V30.5023Z" fill="white"/>
<path d="M65.124 31.5941L66.0477 33.7576H64.2052L65.124 31.5941ZM64.7041 30.4629L62.3479 35.8965H63.3111L63.8644 34.5924H66.3935L66.9368 35.8965H67.9247L65.5685 30.4629H64.7041Z" fill="white"/>
<path d="M70.8293 30.5024V35.9015H74.5835V35.037H71.7728V30.5024H70.8293Z" fill="white"/>
<path d="M77.5471 30.5024V35.9015H81.3012V35.037H78.4856V30.5024H77.5471Z" fill="white"/>
<path d="M86.5817 31.5941L87.5054 33.7576H85.663L86.5817 31.5941ZM86.1619 30.4629L83.8057 35.8965H84.7689L85.3172 34.5924H87.8463L88.3896 35.8965H89.3776L87.0214 30.4629H86.1619Z" fill="white"/>
<path d="M91.9265 35.1157L92.4946 34.434C92.9472 34.8754 93.5518 35.1265 94.1839 35.1354C94.7619 35.1354 95.1323 34.8588 95.1323 34.4587C95.1323 34.0734 94.915 33.861 93.9221 33.6338C92.786 33.3522 92.1439 33.0163 92.1439 32.0185C92.1439 31.0948 92.9046 30.4527 93.9715 30.4527C94.6786 30.4394 95.3672 30.6794 95.9128 31.1294L95.4188 31.8506C95.0103 31.5081 94.4993 31.3117 93.9666 31.2924C93.4183 31.2924 93.0972 31.5789 93.0972 31.9346C93.0972 32.3495 93.3442 32.5372 94.3716 32.7842C95.5028 33.0608 96.0857 33.4708 96.0857 34.3649C96.0857 35.3775 95.3003 35.9801 94.174 35.9801C93.3476 35.9826 92.5506 35.674 91.9413 35.1157" fill="white"/>
</svg>
