<svg width="161" height="84" viewBox="0 0 161 84" fill="none" xmlns="http://www.w3.org/2000/svg">
<path d="M48.235 0.0462723H44.9493H44.0626L37.091 17.8012L29.6396 0.0462723H28.0415H24.7559V26.2551H26.354V4.93995H26.3606H26.4334L26.44 4.94988L35.3076 26.2551H35.9726L44.185 5.18149H44.2644V26.2551H49.1515V0.0462723H48.235Z" fill="black"/>
<path d="M82.445 13.6752H84.8505C89.0957 13.6752 91.1372 11.5741 91.1372 7.08412C91.1372 4.37424 89.8137 1.12833 84.7248 1.12833H82.4417L82.445 13.6752ZM77.5547 0.0463562H88.1758C92.0603 0.0463562 96.0275 2.67353 96.0275 7.81205C96.0275 13.4734 92.6228 14.9689 86.0119 14.9689H82.445V26.2552H77.5547V0.0463562Z" fill="black"/>
<path d="M100.51 0.0462723V26.2551H115.816V24.9614H105.397V0.0462723H100.51Z" fill="black"/>
<path d="M120.143 0.0462723V26.2551H135.647V24.968H125.033V14.8828H134.886V13.5792H125.033V1.34H135.489V0.0462723H120.143Z" fill="black"/>
<path d="M61.3206 8.09657L65.1257 17.7218H57.5553L61.3206 8.09657ZM62.9188 0L52.4531 26.2551H54.2696L57.0391 19.0122H65.6419L68.5702 26.2551H73.583L62.9188 0Z" fill="black"/>
<path d="M25.002 61.7848V35.576H40.3448V36.8697H29.889V49.1089H39.7426V50.4125H29.889V60.4977H40.5069V61.7848H25.002Z" fill="black"/>
<path d="M144.9 35.576V61.7848H160.405V60.4977H149.787V50.4125H159.644V49.1089H149.787V36.8697H160.243V35.576H144.9Z" fill="black"/>
<path d="M0 35.576V36.8598H7.35872V61.7848H12.2458V36.8598H19.6045V35.576H0Z" fill="black"/>
<path d="M98.4791 53.2547L102.244 43.6262L106.05 53.2547H98.4791ZM103.843 35.5329L93.377 61.7881H95.1935L97.953 54.5452H106.556L109.484 61.7881H114.49L103.843 35.5329Z" fill="black"/>
<path d="M46.5371 61.7847V35.5726H57.7539C62.4821 35.5726 65.1258 39.0932 65.1258 43.2986C65.1258 47.3055 62.9718 49.9162 58.3561 50.3794L65.2482 61.7847H59.8781L52.7874 49.2114H53.1183C58.4123 49.5423 60.1296 46.6636 60.1296 42.7394C60.1296 39.8277 58.8458 36.6777 54.0778 36.6777H51.4308V61.7914L46.5371 61.7847Z" fill="black"/>
<path d="M71.2441 61.7847V35.5726H82.4642C87.1924 35.5726 89.8361 39.0932 89.8361 43.2986C89.8361 47.3055 87.6788 49.9162 83.0631 50.3794L89.9552 61.7847H84.5884L77.4944 49.2114H77.8253C83.1193 49.5423 84.8366 46.6636 84.8366 42.7394C84.8366 39.8277 83.5561 36.6777 78.7881 36.6777H76.1411V61.7914L71.2441 61.7847Z" fill="black"/>
<path d="M138.814 40.966C136.931 38.5009 134.645 36.3337 130.843 35.983C124.537 35.4072 121.307 41.2373 121.307 48.8012C121.307 54.7073 124.285 60.9345 130.241 60.8749C134.496 60.8319 137.567 58.2709 139.155 54.8562L140.578 55.5544C138.215 60.4911 134.248 62.5028 129.278 62.5028C121.946 62.5028 116.043 56.3154 116.043 48.9931C116.043 40.6186 122.134 34.8348 129.748 34.8348C133.834 34.8348 137.52 37.0186 139.764 40.2579L138.814 40.966Z" fill="black"/>
<path d="M25.4941 81.247V77.6438H26.5993V81.2007C26.5993 82.3654 27.1949 82.9808 28.1676 82.9808C29.1404 82.9808 29.7261 82.4018 29.7261 81.247V77.6438H30.818V81.1941C30.818 83.0635 29.7724 83.9999 28.1511 83.9999C26.5298 83.9999 25.5041 83.0635 25.5041 81.247" fill="black"/>
<path d="M36.9555 80.8996C37.7793 80.8996 38.279 80.4331 38.279 79.7812V79.7614C38.279 79.0301 37.7562 78.6463 36.9555 78.6463H35.6882V80.8996H36.9555ZM34.5996 77.6438H37.0415C38.494 77.6438 39.3973 78.4743 39.3973 79.7349V79.7548C39.3973 81.1577 38.2823 81.8889 36.9191 81.8889H35.6882V83.904H34.5996V77.6438Z" fill="black"/>
<path d="M42.375 77.6438V78.6629H44.3404V83.904H45.4389V78.6629H47.4043V77.6438H42.375Z" fill="black"/>
<path d="M55.9244 80.7904V80.7738C55.9368 80.4881 55.8917 80.2027 55.7916 79.9348C55.6916 79.6668 55.5388 79.4217 55.3422 79.214C55.1456 79.0063 54.9092 78.8402 54.6471 78.7256C54.3851 78.611 54.1027 78.5503 53.8167 78.547C53.5327 78.5489 53.2521 78.6082 52.9916 78.7213C52.7311 78.8343 52.4962 78.9988 52.3009 79.205C52.1056 79.4111 51.954 79.6545 51.8551 79.9207C51.7562 80.1869 51.7121 80.4703 51.7255 80.754V80.7738C51.7135 81.059 51.759 81.3436 51.8593 81.6108C51.9596 81.878 52.1126 82.1223 52.3093 82.3292C52.5059 82.536 52.7422 82.7012 53.004 82.8148C53.2658 82.9285 53.5478 82.9883 53.8332 82.9907C54.117 82.9901 54.3977 82.932 54.6583 82.8199C54.919 82.7077 55.1542 82.5438 55.3497 82.3381C55.5452 82.1324 55.6969 81.8892 55.7957 81.6231C55.8945 81.3571 55.9382 81.0738 55.9244 80.7904ZM50.584 80.7904V80.7738C50.6082 79.932 50.9589 79.1327 51.562 78.5449C52.1651 77.9571 52.9732 77.627 53.8153 77.6244C54.6574 77.6218 55.4676 77.947 56.0742 78.5311C56.6809 79.1151 57.0365 79.9123 57.0659 80.754V80.7738C57.0412 81.6156 56.69 82.4147 56.0867 83.0022C55.4833 83.5896 54.6751 83.9193 53.8329 83.9215C52.9908 83.9236 52.1809 83.5981 51.5745 83.0137C50.9682 82.4293 50.6129 81.632 50.584 80.7904Z" fill="black"/>
<path d="M64.3913 77.6272L62.8659 82.2859L61.3869 77.6437H60.209L62.3696 83.9469H63.3093L64.8347 79.4503L66.3567 83.9469H67.303L69.457 77.6437H68.3155L66.8365 82.2859L65.3111 77.6272H64.3913Z" fill="black"/>
<path d="M77.2062 77.6438V81.9716L73.8842 77.6438H72.875V83.904H73.9437V79.4504L77.365 83.904H78.2749V77.6438H77.2062Z" fill="black"/>
<path d="M88.2194 78.6463V82.9014H89.4437C89.7271 82.9182 90.011 82.8755 90.2769 82.776C90.5429 82.6764 90.785 82.5221 90.9876 82.3232C91.1903 82.1243 91.349 81.8851 91.4535 81.6211C91.558 81.3571 91.606 81.0741 91.5944 80.7904V80.7738C91.6068 80.4891 91.5595 80.205 91.4555 79.9397C91.3515 79.6744 91.1931 79.4338 90.9906 79.2334C90.788 79.033 90.5457 78.8772 90.2793 78.7761C90.0129 78.675 89.7282 78.6308 89.4437 78.6463H88.2194ZM87.1309 77.6536H89.447C91.3959 77.6536 92.7558 79.0036 92.7558 80.7639V80.7837C92.7558 82.544 91.4091 83.9138 89.447 83.9138H87.1309V77.6536Z" fill="black"/>
<path d="M99.0423 78.9143L100.114 81.4157H97.9802L99.0423 78.9143ZM98.5559 77.5908L95.8262 83.8973H96.9445L97.5831 82.3852H100.511L101.143 83.8973H102.295L99.5651 77.5908H98.5559Z" fill="black"/>
<path d="M105.658 77.6438V83.904H110.006V82.9014H106.747V77.6438H105.658Z" fill="black"/>
<path d="M113.441 77.6438V83.904H117.792V82.9014H114.53V77.6438H113.441Z" fill="black"/>
<path d="M123.909 78.9143L124.978 81.4157H122.844L123.909 78.9143ZM123.42 77.5908L120.693 83.8973H121.808L122.447 82.3852H125.379L126.007 83.8973H127.159L124.432 77.5908H123.42Z" fill="black"/>
<path d="M130.107 82.9907L130.769 82.2032C131.292 82.7166 131.994 83.0081 132.727 83.0172C133.389 83.0172 133.826 82.6863 133.826 82.2297V82.2132C133.826 81.7665 133.578 81.5249 132.426 81.2569C131.103 80.9261 130.362 80.5389 130.362 79.3875V79.3676C130.362 78.2956 131.248 77.5544 132.479 77.5544C133.299 77.5384 134.098 77.8179 134.729 78.3419L134.134 79.1724C133.659 78.7776 133.067 78.5508 132.449 78.5272C131.814 78.5272 131.44 78.8581 131.44 79.2717V79.2882C131.44 79.7713 131.725 79.9864 132.919 80.2808C134.243 80.6117 134.905 81.0749 134.905 82.1106V82.1304C134.905 83.3017 133.991 83.9999 132.691 83.9999C131.734 84.007 130.81 83.6525 130.104 83.0073" fill="black"/>
</svg>
