<svg width="248" height="36" viewBox="0 0 248 36" fill="none" xmlns="http://www.w3.org/2000/svg">
<path d="M20.2574 0.647095H17.4221H16.6614L10.6449 15.9698L4.2135 0.647095H2.83535H0V23.2656H1.37816V4.87048H1.3831H1.44731L1.45225 4.88036L9.10373 23.2656H9.67673L16.7651 5.08288H16.8343V23.2656H21.0478V0.647095H20.2574Z" fill="black"/>
<path d="M49.776 12.4083H51.8506C55.5158 12.4083 57.2842 10.5906 57.2842 6.71789C57.2842 4.38145 56.1432 1.59057 51.7519 1.59057H49.776V12.4083ZM45.5625 0.647095H54.7206C58.0746 0.647095 61.4977 2.91438 61.4977 7.34523C61.4977 12.2355 58.5587 13.5247 52.8534 13.5247H49.776V23.2607H45.5625V0.647095Z" fill="black"/>
<path d="M65.3652 0.647095V23.2656H78.5689V22.1444H69.5837V0.647095H65.3652Z" fill="black"/>
<path d="M82.3047 0.647095V23.2656H95.6861V22.1542H86.5231V13.4506H95.0292V12.3244H86.5231V1.76345H95.5478V0.647095H82.3047Z" fill="black"/>
<path d="M31.55 7.60707L34.8349 15.9106H28.2998L31.55 7.60707ZM32.9331 0.622437L23.8887 23.2607H25.4545L27.8404 16.9924H35.2498L37.7789 23.241H42.1011L32.9331 0.622437Z" fill="black"/>
<path d="M130.816 23.2459V0.627319H144.06V1.74368H135.035V12.3046H143.541V13.4308H135.035V22.1345H144.198V23.2459H130.816Z" fill="black"/>
<path d="M234.271 0.627319V23.2459H247.653V22.1345H238.49V13.4308H246.996V12.3046H238.49V1.74368H247.515V0.627319H234.271Z" fill="black"/>
<path d="M109.244 0.627319V1.73874H115.592V23.2459H119.81V1.73874H126.157V0.627319H109.244Z" fill="black"/>
<path d="M194.222 15.876L197.472 7.57244L200.757 15.876H194.222ZM198.85 0.56311L189.82 23.2162H191.386L193.767 16.9923H201.177L203.701 23.2409H208.023L198.85 0.56311Z" fill="black"/>
<path d="M149.398 23.2409V0.627319H159.08C163.16 0.627319 165.442 3.66519 165.442 7.29088C165.442 10.7486 163.58 12.9912 159.599 13.4012L165.526 23.2409H160.913L154.793 12.3738H155.069C159.628 12.6504 161.12 10.1756 161.12 6.78704C161.12 4.2777 160.014 1.55597 155.899 1.55597H153.617V23.2261L149.398 23.2409Z" fill="black"/>
<path d="M170.723 23.2409V0.627319H180.399C184.48 0.627319 186.762 3.66519 186.762 7.29088C186.762 10.7486 184.899 12.9912 180.918 13.4012L186.846 23.2409H182.212L176.092 12.3738H176.369C180.928 12.6504 182.42 10.1756 182.42 6.78704C182.42 4.2777 181.313 1.55597 177.199 1.55597H174.916V23.2261L170.723 23.2409Z" fill="black"/>
<path d="M229.022 5.28046C227.402 3.15148 225.426 1.27936 222.146 0.978044C216.712 0.484081 213.916 5.51262 213.916 12.0379C213.916 17.1356 216.475 22.5099 221.627 22.4555C225.297 22.421 227.95 20.208 229.318 17.264L230.543 17.8666C228.508 22.1246 225.085 23.8683 220.797 23.8683C214.47 23.8683 209.387 18.5285 209.387 12.2157C209.387 4.98902 214.642 0 221.212 0C222.926 0.0217893 224.608 0.458225 226.116 1.272C227.624 2.08577 228.913 3.25266 229.871 4.67288L229.022 5.28046Z" fill="black"/>
<path d="M0 33.6092V30.5022H0.93853V33.5697C0.93853 34.5576 1.43249 35.1059 2.29199 35.1059C3.15148 35.1059 3.63557 34.612 3.63557 33.624V30.517H4.57903V33.5796C4.57903 35.1899 3.67508 36 2.27717 36C0.879254 36 0 35.1899 0 33.624" fill="black"/>
<path d="M9.88864 33.293C10.5999 33.293 11.0396 32.8929 11.0396 32.3298C11.0396 31.6975 10.5901 31.3419 9.88864 31.3419H8.79698V33.293H9.88864ZM7.85352 30.4873H9.96274C11.2174 30.4873 11.9979 31.2035 11.9979 32.2903C11.9979 33.5005 11.0099 34.1327 9.859 34.1327H8.79698V35.8715H7.85352V30.4873Z" fill="black"/>
<path d="M14.5625 30.5022V31.3815H16.2617V35.9012H17.2101V31.3815H18.9044V30.5022H14.5625Z" fill="black"/>
<path d="M26.2534 33.214C26.264 32.9676 26.225 32.7215 26.1387 32.4904C26.0525 32.2593 25.9206 32.0478 25.7511 31.8686C25.5816 31.6894 25.3778 31.5461 25.1518 31.4471C24.9259 31.3482 24.6823 31.2956 24.4356 31.2925C24.1905 31.2942 23.9483 31.3455 23.7234 31.4432C23.4986 31.541 23.2959 31.6832 23.1275 31.8613C22.9591 32.0394 22.8284 32.2498 22.7434 32.4797C22.6583 32.7096 22.6207 32.9544 22.6327 33.1992C22.6221 33.4454 22.6611 33.6913 22.7474 33.9221C22.8338 34.1529 22.9657 34.364 23.1353 34.5428C23.3049 34.7217 23.5087 34.8645 23.7346 34.963C23.9606 35.0614 24.204 35.1134 24.4505 35.1158C24.6954 35.1147 24.9375 35.0641 25.1623 34.9669C25.3871 34.8697 25.5899 34.7279 25.7584 34.5502C25.9269 34.3725 26.0576 34.1624 26.1427 33.9328C26.2278 33.7031 26.2654 33.4586 26.2534 33.214ZM21.6448 33.214C21.6401 32.845 21.7095 32.4787 21.8491 32.137C21.9886 31.7953 22.1953 31.4851 22.457 31.2248C22.7187 30.9645 23.03 30.7595 23.3724 30.6217C23.7148 30.484 24.0814 30.4165 24.4505 30.4231C24.8181 30.4144 25.1837 30.4801 25.5253 30.6164C25.8668 30.7526 26.1773 30.9565 26.438 31.2159C26.6988 31.4752 26.9043 31.7846 27.0424 32.1254C27.1804 32.4663 27.2481 32.8315 27.2414 33.1992C27.211 33.921 26.9029 34.6032 26.3815 35.1032C25.86 35.6032 25.1655 35.8824 24.4431 35.8824C23.7206 35.8824 23.0261 35.6032 22.5046 35.1032C21.9832 34.6032 21.6751 33.921 21.6448 33.1992" fill="black"/>
<path d="M33.5591 30.4873L32.2451 34.5082L30.9707 30.5021H29.9531L31.8203 35.9407H32.6304L33.9443 32.0581L35.2583 35.9407H36.0733L37.9306 30.5021H36.9476L35.6683 34.5082L34.3543 30.4873H33.5591Z" fill="black"/>
<path d="M44.6202 30.5022V34.2366L41.7552 30.5022H40.8809V35.9012H41.8046V32.0582L44.7585 35.9012H45.5439V30.5022H44.6202Z" fill="black"/>
<path d="M55.7823 31.3617V35.0368H56.8394C57.0842 35.0515 57.3293 35.0147 57.559 34.9288C57.7887 34.8429 57.9978 34.7097 58.1728 34.5379C58.3479 34.3662 58.4849 34.1596 58.5752 33.9316C58.6654 33.7035 58.7068 33.4591 58.6967 33.2141C58.7066 32.9684 58.6652 32.7234 58.5751 32.4946C58.485 32.2659 58.3482 32.0584 58.1735 31.8855C57.9987 31.7126 57.7898 31.578 57.5601 31.4904C57.3304 31.4027 57.0849 31.364 56.8394 31.3765L55.7823 31.3617ZM54.8438 30.5022H56.8196C57.1855 30.4792 57.5522 30.5316 57.897 30.6561C58.2418 30.7806 58.5573 30.9747 58.8241 31.2261C59.0908 31.4776 59.3031 31.7812 59.4477 32.118C59.5923 32.4549 59.6662 32.8178 59.6648 33.1844C59.6668 33.5521 59.5934 33.9162 59.4492 34.2544C59.3051 34.5926 59.0932 34.8976 58.8266 35.1508C58.56 35.4039 58.2444 35.5998 57.8992 35.7263C57.5541 35.8528 57.1866 35.9073 56.8196 35.8864H54.8438V30.5022Z" fill="black"/>
<path d="M65.1237 31.5938L66.0474 33.7574H64.205L65.1237 31.5938ZM64.7039 30.4626L62.3477 35.8962H63.3109L63.8641 34.5922H66.3932L66.9366 35.8962H67.9245L65.5683 30.4626H64.7039Z" fill="black"/>
<path d="M70.8301 30.5022V35.9012H74.5842V35.0368H71.7735V30.5022H70.8301Z" fill="black"/>
<path d="M77.5469 30.5022V35.9012H81.301V35.0368H78.4854V30.5022H77.5469Z" fill="black"/>
<path d="M86.5827 31.5938L87.5064 33.7574H85.6639L86.5827 31.5938ZM86.1628 30.4626L83.8066 35.8962H84.7699L85.3182 34.5922H87.8473L88.3906 35.8962H89.3785L87.0223 30.4626H86.1628Z" fill="black"/>
<path d="M91.9258 35.1158L92.4938 34.4341C92.9464 34.8755 93.5511 35.1266 94.1832 35.1356C94.7611 35.1356 95.1316 34.8589 95.1316 34.4588C95.1316 34.0735 94.9143 33.8611 93.9214 33.6339C92.7853 33.3524 92.1431 33.0165 92.1431 32.0187C92.1431 31.0949 92.9038 30.4528 93.9708 30.4528C94.6779 30.4395 95.3664 30.6795 95.9121 31.1295L95.4181 31.8507C95.0096 31.5083 94.4985 31.3118 93.9658 31.2925C93.4175 31.2925 93.0965 31.579 93.0965 31.9347C93.0965 32.3496 93.3435 32.5373 94.3709 32.7843C95.5021 33.0609 96.0849 33.4709 96.0849 34.365C96.0849 35.3776 95.2995 35.9802 94.1733 35.9802C93.3469 35.9827 92.5498 35.6741 91.9406 35.1158" fill="black"/>
</svg>
