<svg width="159" height="72" viewBox="0 0 159 72" fill="none" xmlns="http://www.w3.org/2000/svg">
<path d="M2.36963 69.2416V65.6718H3.44799V69.2044C3.44799 70.3537 4.03619 70.9656 5.00299 70.9656C5.9698 70.9656 6.54447 70.3909 6.54447 69.2483V65.6718H7.62621V69.2044C7.62621 71.0569 6.58842 71.9865 4.98271 71.9865C3.377 71.9865 2.36963 71.04 2.36963 69.2416Z" fill="#151515"/>
<path d="M13.7347 68.8968C14.5494 68.8968 15.0599 68.4336 15.0599 67.788V67.7711C15.0599 67.0443 14.5427 66.6623 13.7347 66.6623H12.4806V68.8968H13.7347ZM11.4022 65.6718H13.8226C15.2627 65.6718 16.1551 66.4966 16.1551 67.744V67.7609C16.1551 69.1537 15.0497 69.8771 13.7009 69.8771H12.4806V71.8716H11.4022V65.6718Z" fill="#151515"/>
<path d="M19.1028 65.6718V66.6826H21.0499V71.8715H22.1384V66.6826H24.0856V65.6718H19.1028Z" fill="#151515"/>
<path d="M32.5232 68.7886C32.5373 68.5037 32.4937 68.2189 32.395 67.9513C32.2963 67.6837 32.1445 67.4388 31.9487 67.2313C31.7529 67.0239 31.5172 66.8581 31.2558 66.7441C30.9944 66.63 30.7126 66.57 30.4273 66.5676C30.1458 66.5691 29.8675 66.6276 29.6092 66.7395C29.3509 66.8514 29.1179 67.0145 28.9243 67.2188C28.7307 67.4232 28.5804 67.6646 28.4826 67.9286C28.3848 68.1925 28.3414 68.4736 28.3551 68.7548V68.7717C28.3433 69.0543 28.3885 69.3364 28.4879 69.6012C28.5874 69.866 28.739 70.1081 28.934 70.3131C29.1289 70.5181 29.363 70.6818 29.6225 70.7945C29.8819 70.9072 30.1614 70.9665 30.4442 70.969C30.7253 70.9684 31.0033 70.9108 31.2614 70.7996C31.5195 70.6884 31.7523 70.5259 31.9458 70.322C32.1392 70.1181 32.2893 69.8771 32.3868 69.6135C32.4843 69.3499 32.5272 69.0693 32.5131 68.7886H32.5232ZM27.2227 68.7886C27.2204 67.9369 27.5566 67.1191 28.1573 66.5153C28.758 65.9114 29.5739 65.5709 30.4256 65.5687C31.2774 65.5665 32.0951 65.9027 32.6989 66.5033C33.3028 67.104 33.6433 67.92 33.6455 68.7717V68.7886C33.6455 69.6403 33.3072 70.4571 32.7049 71.0594C32.1026 71.6617 31.2858 72 30.4341 72C29.5824 72 28.7655 71.6617 28.1633 71.0594C27.561 70.4571 27.2227 69.6403 27.2227 68.7886Z" fill="#151515"/>
<path d="M40.9101 65.6549L39.399 70.2692L37.9353 65.6718H36.769L38.9089 71.9155H39.8385L41.3462 67.4601L42.8572 71.9155H43.797L45.9267 65.6718H44.7942L43.3305 70.2692L41.8228 65.6549H40.9101Z" fill="#151515"/>
<path d="M53.6003 65.6718V69.9582L50.3112 65.6718H49.3105V71.8715H50.372V67.4601L53.7592 71.8715H54.6618V65.6718H53.6003Z" fill="#151515"/>
<path d="M64.8266 66.6623V70.8946H66.0368C66.3174 70.9093 66.5979 70.8655 66.8606 70.7661C67.1234 70.6666 67.3626 70.5137 67.5631 70.317C67.7636 70.1203 67.9211 69.884 68.0256 69.6233C68.13 69.3625 68.1792 69.0829 68.1699 68.8021C68.1816 68.52 68.1342 68.2385 68.0308 67.9757C67.9275 67.7129 67.7704 67.4746 67.5696 67.276C67.3688 67.0774 67.1287 66.923 66.8648 66.8225C66.6008 66.7221 66.3189 66.6779 66.0368 66.6927L64.8266 66.6623ZM63.7483 65.6718H66.0368C67.9671 65.6718 69.3024 67.024 69.3024 68.7548V68.7717C69.3024 70.516 67.9671 71.8716 66.0368 71.8716H63.7483V65.6718Z" fill="#151515"/>
<path d="M75.546 66.9293L76.6075 69.4106H74.4947L75.546 66.9293ZM75.0491 65.6279L72.3447 71.8715H73.4501L74.0823 70.374H76.9861L77.6081 71.8715H78.7676L76.0632 65.6279H75.0491Z" fill="#151515"/>
<path d="M82.0974 65.6718V71.8715H86.4041V70.8811H83.1758V65.6718H82.0974Z" fill="#151515"/>
<path d="M89.8081 65.6718V71.8715H94.1148V70.8811H90.8865V65.6718H89.8081Z" fill="#151515"/>
<path d="M100.176 66.9293L101.237 69.4106H99.1246L100.176 66.9293ZM99.6959 65.6279L96.9916 71.8715H98.097L98.7291 70.374H101.633L102.258 71.8715H103.398L100.693 65.6279H99.6959Z" fill="#151515"/>
<path d="M106.318 70.969L106.967 70.1881C107.485 70.6957 108.179 70.985 108.904 70.996C109.58 70.996 109.993 70.6749 109.993 70.2151V70.1982C109.993 69.7554 109.746 69.5221 108.607 69.2517C107.299 68.9306 106.579 68.5418 106.579 67.3992V67.3823C106.579 66.3175 107.457 65.5839 108.678 65.5839C109.49 65.5671 110.28 65.8431 110.905 66.3614L110.311 67.1761C109.839 66.7859 109.252 66.5614 108.641 66.5372C108.012 66.5372 107.626 66.8752 107.626 67.2741V67.291C107.626 67.7677 107.91 67.9671 109.094 68.2646C110.392 68.5857 111.058 69.0522 111.058 70.0799V70.1002C111.058 71.2597 110.155 71.9493 108.864 71.9493C107.916 71.9527 107.003 71.5991 106.305 70.9588" fill="#151515"/>
<path d="M25.6372 0.0506897H22.3852H21.5063L14.6001 17.6357L7.22059 0.0506897H5.63854H2.38318V26.0125H3.96522V4.89824H3.96861H4.04297L4.04974 4.90838L12.8321 26.0125H13.4913L21.6246 5.13825H21.7058V26.0125H26.5466V0.0506897H25.6372Z" fill="#151515"/>
<path d="M59.5261 13.5488H61.8924C66.1011 13.5488 68.1226 11.4665 68.1226 7.02118C68.1226 4.31683 66.8143 1.12908 61.7741 1.12908H59.5126L59.5261 13.5488ZM54.6853 0.0473328H65.2019C69.0488 0.0473328 72.9769 2.65365 72.9769 7.74122C72.9769 13.3494 69.5964 14.8401 63.0553 14.8401H59.5261V26.0193H54.6853V0.0473328Z" fill="#151515"/>
<path d="M77.4188 0.0506897V26.0125H92.5767V24.7279H82.2596V0.0506897H77.4188Z" fill="#151515"/>
<path d="M96.8632 0.0506897V26.0125H112.22V24.7347H101.704V14.7455H111.467V13.4541H101.704V1.33188H112.062V0.0506897H96.8632Z" fill="#151515"/>
<path d="M38.6012 8.0184L42.3704 17.5546H34.8726L38.6012 8.0184ZM40.1867 0L29.8188 26.0091H31.6172L34.3486 18.8358H42.8843L45.7847 26.0091H50.7438L40.1867 0Z" fill="#151515"/>
<path d="M24.7617 58.7689V32.8072H39.9636V34.0883H29.6025V46.2106H39.3652V47.5019H29.6025V57.4945H40.1191V58.7689H24.7617Z" fill="#151515"/>
<path d="M143.523 32.8072V58.7689H158.884V57.4945H148.368V47.5019H158.13V46.214H148.368V34.0883H158.725V32.8072H143.523Z" fill="#151515"/>
<path d="M0 32.8072V34.0816H7.28823V58.7689H12.129V34.0816H19.4172V32.8072H0Z" fill="#151515"/>
<path d="M97.546 50.3145L101.264 40.7816L105.034 50.3145H97.546ZM102.86 32.7632L92.4956 58.7689H94.2906L97.022 51.5956H105.554L108.455 58.7689H113.417L102.86 32.7632Z" fill="#151515"/>
<path d="M46.0991 58.7689V32.8072H57.2106C61.8925 32.8072 64.5124 36.2924 64.5124 40.4605C64.5124 44.4257 62.3759 46.9983 57.8056 47.4715L64.6307 58.7689H59.3133L52.2887 46.3086H52.6065C57.8394 46.6264 59.5499 43.7835 59.5499 39.8858C59.5499 36.9989 58.2822 33.8788 53.5598 33.8788H50.9399V58.7554L46.0991 58.7689Z" fill="#151515"/>
<path d="M70.5701 58.7689V32.8072H81.685C86.3669 32.8072 88.9867 36.2924 88.9867 40.4605C88.9867 44.4257 86.8503 46.9983 82.2799 47.4715L89.105 58.7689H83.7876L76.763 46.3086H77.0774C82.3103 46.6264 84.0208 43.7835 84.0208 39.8858C84.0208 36.9989 82.7532 33.8788 78.0307 33.8788H75.4109V58.7554L70.5701 58.7689Z" fill="#151515"/>
<path d="M137.499 38.1483C135.633 35.7042 133.368 33.5576 129.603 33.2128C123.356 32.6415 120.154 38.4153 120.154 45.9097C120.154 51.7579 123.092 57.9272 129.004 57.8664C133.22 57.8224 136.262 55.2871 137.837 51.9033L139.244 52.5996C136.904 57.4878 132.973 59.489 128.054 59.489C120.79 59.489 114.959 53.3602 114.959 46.1092C114.959 37.8136 120.989 32.0871 128.531 32.0871C132.588 32.0871 136.228 34.2506 138.449 37.4553L137.499 38.1483Z" fill="#151515"/>
</svg>
