<svg width="49" height="37" viewBox="0 0 49 37" fill="none" xmlns="http://www.w3.org/2000/svg">
<path d="M19.7522 0.661129L21.0516 6.9416C17.9353 7.40178 15.5109 8.40079 13.878 9.98128C12.1364 11.6671 11.3555 13.9559 11.5286 16.7687L11.5574 17.238H12.0276H18.9101V35.6481H0.5V20.3048C0.5 13.1752 2.4033 8.3751 5.75027 5.30704C9.03179 2.29898 13.785 0.877531 19.7522 0.661129ZM26.8778 20.3048V20.2726L26.8737 20.2408C26.5309 17.5859 26.8018 14.8878 27.6654 12.3541C28.5291 9.82032 29.9625 7.51854 31.8553 5.62568C33.7482 3.73283 36.0501 2.29942 38.5838 1.43579C41.0068 0.609929 43.58 0.326111 46.122 0.602608L47.5066 6.94246C44.3928 7.40309 41.9707 8.40184 40.3297 9.98018C38.5791 11.6639 37.7764 13.9498 37.9061 16.7611L37.9281 17.238H38.4056H45.2881V35.6481H26.8778V20.3048Z" stroke="white"/>
</svg>
