<svg width="119" height="120" viewBox="0 0 119 120" fill="none" xmlns="http://www.w3.org/2000/svg">
<path d="M3.38601 54.6401C4.05611 55.1687 4.88408 55.4573 5.73754 55.4598H14.0313V101.91C14.0352 104.538 15.0809 107.057 16.9392 108.915C18.7975 110.774 21.3168 111.819 23.9448 111.823H62.6426C63.6441 111.823 64.6046 111.425 65.3127 110.717C66.0209 110.009 66.4187 109.049 66.4187 108.047C66.4187 107.046 66.0209 106.085 65.3127 105.377C64.6046 104.669 63.6441 104.271 62.6426 104.271H23.9643C23.3385 104.27 22.7386 104.021 22.2961 103.578C21.8535 103.136 21.6043 102.536 21.603 101.91V51.6739C21.6018 50.6728 21.2035 49.7131 20.4956 49.0052C19.7877 48.2973 18.828 47.8991 17.8269 47.8978H7.55241C7.58181 47.7326 7.64456 47.5752 7.73683 47.4351C7.8291 47.2951 7.94895 47.1753 8.08907 47.083L56.8614 8.29256C57.5638 7.80641 58.3977 7.54597 59.2519 7.54597C60.1062 7.54597 60.9401 7.80641 61.6425 8.29256C62.0311 8.60169 62.4767 8.83125 62.954 8.96815C63.4313 9.10505 63.9309 9.14659 64.4242 9.09042C64.9176 9.03424 65.395 8.88144 65.8293 8.64075C66.2636 8.40005 66.6463 8.07617 66.9554 7.6876C67.2645 7.29903 67.4941 6.85337 67.631 6.37608C67.7679 5.89879 67.8094 5.39921 67.7532 4.90586C67.6971 4.41251 67.5443 3.93506 67.3036 3.50076C67.0629 3.06647 66.739 2.68383 66.3504 2.3747C62.3694 -0.791568 56.1393 -0.791568 52.1632 2.3747L3.38601 41.1749C2.33558 41.9542 1.48221 42.9685 0.894232 44.1368C0.306252 45.3051 0 46.5948 0 47.9027C0 49.2106 0.306252 50.5003 0.894232 51.6685C1.48221 52.8368 2.33558 53.8512 3.38601 54.6304V54.6401Z" fill="white"/>
<path d="M72.3951 116.78C73.1365 117.765 74.0935 118.567 75.1929 119.126C76.2922 119.684 77.5047 119.983 78.7374 120H110.449C115.152 120 118.982 115.609 118.982 110.165V10.4782C119.006 8.08796 118.232 5.75803 116.781 3.85782C116.041 2.87222 115.084 2.06951 113.984 1.51134C112.885 0.953161 111.672 0.654361 110.439 0.637878H78.7277C74.0197 0.637878 70.1948 5.0287 70.1948 10.4733V110.165C70.1717 112.553 70.946 114.881 72.3951 116.78ZM78.3423 112.121C77.9418 111.55 77.7349 110.866 77.7519 110.169V106.671H87.2654C88.244 106.636 89.1708 106.223 89.8507 105.518C90.5306 104.813 90.9106 103.872 90.9106 102.893C90.9106 101.914 90.5306 100.973 89.8507 100.268C89.1708 99.563 88.244 99.1495 87.2654 99.1143H77.7519V85.3759H87.2654C87.7613 85.3759 88.2523 85.2782 88.7104 85.0885C89.1686 84.8987 89.5849 84.6206 89.9355 84.2699C90.2861 83.9193 90.5643 83.503 90.7541 83.0449C90.9438 82.5867 91.0415 82.0957 91.0415 81.5998C91.0415 81.1039 90.9438 80.6129 90.7541 80.1547C90.5643 79.6966 90.2861 79.2803 89.9355 78.9297C89.5849 78.579 89.1686 78.3009 88.7104 78.1111C88.2523 77.9214 87.7613 77.8237 87.2654 77.8237H77.7519V64.1194H87.2654C88.2665 64.1181 89.2262 63.7199 89.9341 63.012C90.642 62.3041 91.0402 61.3444 91.0415 60.3433C91.0402 59.3422 90.642 58.3825 89.9341 57.6746C89.2262 56.9668 88.2665 56.5685 87.2654 56.5672H77.7519V42.8435H87.2654C88.2669 42.8435 89.2273 42.4456 89.9355 41.7375C90.6437 41.0293 91.0415 40.0688 91.0415 39.0673C91.0415 38.0659 90.6437 37.1054 89.9355 36.3972C89.2273 35.6891 88.2669 35.2912 87.2654 35.2912H77.7519V10.4733C77.7519 9.00972 78.4984 8.24376 78.7277 8.1901H110.439C110.6 8.25629 110.736 8.37044 110.829 8.51697C111.23 9.08758 111.437 9.77156 111.42 10.4684V110.165C111.42 111.628 110.664 112.404 110.444 112.448H78.7326C78.573 112.38 78.4372 112.266 78.3423 112.121Z" fill="white"/>
<path d="M46.8353 60.2165H59.4419C60.4433 60.2165 61.4038 59.8186 62.112 59.1105C62.8201 58.4023 63.218 57.4419 63.218 56.4404C63.218 55.4389 62.8201 54.4784 62.112 53.7703C61.4038 53.0621 60.4433 52.6643 59.4419 52.6643H46.8353C44.495 52.6604 42.2489 53.5857 40.5904 55.2368C38.9319 56.888 37.9967 59.13 37.9902 61.4703V77.0236C37.989 78.1853 38.2169 79.3358 38.661 80.4092C39.1051 81.4827 39.7567 82.4579 40.5783 83.2791C41.4 84.1003 42.3756 84.7513 43.4493 85.1949C44.523 85.6384 45.6736 85.8657 46.8353 85.8638H59.4419C60.4433 85.8638 61.4038 85.4659 62.112 84.7578C62.8201 84.0496 63.218 83.0891 63.218 82.0877C63.218 81.0862 62.8201 80.1257 62.112 79.4175C61.4038 78.7094 60.4433 78.3116 59.4419 78.3116H46.8353C46.6686 78.3122 46.5033 78.2798 46.3491 78.2163C46.1949 78.1528 46.0549 78.0594 45.9369 77.9415C45.819 77.8236 45.7256 77.6835 45.6621 77.5293C45.5986 77.3751 45.5662 77.2098 45.5668 77.0431V61.4703C45.5707 61.1364 45.706 60.8175 45.9435 60.5828C46.181 60.3481 46.5014 60.2165 46.8353 60.2165Z" fill="white"/>
</svg>
