<svg width="137" height="120" viewBox="0 0 137 120" fill="none" xmlns="http://www.w3.org/2000/svg">
<path d="M5.51136 13.9787C5.49745 13.6896 5.54239 13.4006 5.64344 13.1294C5.7445 12.8582 5.89957 12.6103 6.09926 12.4008C6.29895 12.1913 6.5391 12.0245 6.80516 11.9105C7.07122 11.7965 7.35765 11.7377 7.64709 11.7377C7.93653 11.7377 8.22296 11.7965 8.48902 11.9105C8.75508 12.0245 8.99523 12.1913 9.19492 12.4008C9.39461 12.6103 9.54968 12.8582 9.65074 13.1294C9.7518 13.4006 9.79673 13.6896 9.78283 13.9787C9.78283 14.6335 10.043 15.2615 10.506 15.7246C10.969 16.1876 11.597 16.4477 12.2519 16.4477C12.9067 16.4477 13.5347 16.1876 13.9978 15.7246C14.4608 15.2615 14.7209 14.6335 14.7209 13.9787C14.6928 12.7739 14.9058 11.5756 15.3474 10.4542C15.789 9.3329 16.4503 8.31117 17.2924 7.44909C18.1346 6.58702 19.1406 5.90201 20.2513 5.43432C21.362 4.96663 22.555 4.7257 23.7602 4.7257C24.9653 4.7257 26.1583 4.96663 27.269 5.43432C28.3797 5.90201 29.3857 6.58702 30.2279 7.44909C31.07 8.31117 31.7313 9.3329 32.173 10.4542C32.6146 11.5756 32.8275 12.7739 32.7994 13.9787C32.7994 14.6335 33.0595 15.2615 33.5225 15.7246C33.9856 16.1876 34.6136 16.4477 35.2684 16.4477C35.9233 16.4477 36.5513 16.1876 37.0143 15.7246C37.4774 15.2615 37.7375 14.6335 37.7375 13.9787C37.7375 12.8 38.2057 11.6695 39.0392 10.8361C39.8727 10.0026 41.0031 9.53438 42.1818 9.53438C43.3605 9.53438 44.4909 10.0026 45.3244 10.8361C46.1579 11.6695 46.6261 12.8 46.6261 13.9787C46.6261 14.6335 46.8862 15.2615 47.3493 15.7246C47.8123 16.1876 48.4403 16.4477 49.0952 16.4477H54.4382V11.5096H51.2334C50.8064 9.97067 49.9937 8.56619 48.8721 7.42917C47.7506 6.29215 46.3574 5.46025 44.8244 5.01223C43.2915 4.56421 41.6695 4.51492 40.1122 4.86902C38.5549 5.22311 37.1137 5.96888 35.9252 7.03569C34.6638 4.82956 32.8245 3.00931 30.6053 1.77093C28.3862 0.532549 25.8713 -0.0770445 23.3314 0.0077874C20.7915 0.0926193 18.3229 0.868663 16.1913 2.25236C14.0598 3.63605 12.346 5.57498 11.2346 7.86035C10.1451 7.22759 8.9045 6.90167 7.64462 6.91717C5.77169 6.91978 3.97606 7.66428 2.65077 8.98772C1.32547 10.3112 0.578465 12.1057 0.573242 13.9787V14.7194H5.51136V13.9787Z" fill="white"/>
<path d="M50.625 37.1533H60.5753C61.2301 37.1533 61.8582 36.8931 62.3212 36.4301C62.7842 35.967 63.0444 35.339 63.0444 34.6842C63.0457 32.8969 63.7562 31.1832 65.0201 29.9194C66.2839 28.6556 67.9976 27.945 69.7849 27.9437C70.7473 27.9404 71.6991 28.1458 72.5746 28.5456C73.45 28.9454 74.2285 29.5302 74.8563 30.2596C75.1992 30.6495 75.6562 30.9214 76.1623 31.0366C76.6685 31.1519 77.1982 31.1046 77.676 30.9016C78.1608 30.6904 78.5671 30.3323 78.8373 29.8777C79.1076 29.4231 79.2282 28.8952 79.1821 28.3683C79.1821 28.1708 79.1525 27.9832 79.1525 27.7807C79.1281 26.8805 79.2844 25.9845 79.612 25.1457C79.9397 24.3069 80.4321 23.5423 81.0602 22.897C81.6883 22.2516 82.4393 21.7387 83.269 21.3884C84.0986 21.0382 84.99 20.8578 85.8905 20.8578C86.7911 20.8578 87.6825 21.0382 88.5121 21.3884C89.3418 21.7387 90.0928 22.2516 90.7209 22.897C91.349 23.5423 91.8414 24.3069 92.1691 25.1457C92.4967 25.9845 92.653 26.8805 92.6286 27.7807V28.5214H97.5667V27.7807C97.5699 25.0031 96.582 22.3154 94.7808 20.2009C92.9797 18.0864 90.4833 16.6838 87.7404 16.2452C84.9976 15.8066 82.1883 16.3608 79.8176 17.8082C77.4468 19.2556 75.6701 21.5012 74.807 24.1413C73.2163 23.3834 71.4747 22.9953 69.7127 23.006C67.9508 23.0167 66.2141 23.4259 64.6327 24.2031C63.0513 24.9802 61.6663 26.1051 60.5814 27.4935C59.4965 28.8819 58.7398 30.4977 58.368 32.2201H50.625V37.1533Z" fill="white"/>
<path d="M135.912 85.0184C136.948 81.1858 136.955 77.1478 135.933 73.3116C134.911 69.4753 132.895 65.9762 130.09 63.1672C131.806 61.3748 133.094 59.2166 133.856 56.8549C134.618 54.4932 134.835 51.9894 134.491 49.5317C134.146 47.074 133.249 44.7265 131.867 42.6654C130.484 40.6044 128.653 38.8836 126.51 37.6322C127.292 35.8759 127.698 33.975 127.7 32.0522C127.687 29.9682 127.192 27.9155 126.253 26.0546C125.315 24.1937 123.959 22.5751 122.291 21.3253C120.624 20.0756 118.689 19.2285 116.64 18.8505C114.591 18.4725 112.481 18.5737 110.478 19.1462C108.474 19.7187 106.629 20.7471 105.089 22.1508C103.549 23.5545 102.354 25.2955 101.598 27.2377C100.842 29.1798 100.546 31.2705 100.733 33.3462C100.919 35.4218 101.583 37.4262 102.673 39.2026C100.378 40.8811 98.491 43.0556 97.1523 45.5642C95.8136 48.0728 95.0577 50.851 94.941 53.6921C94.8243 56.5331 95.3496 59.3639 96.478 61.9739C97.6064 64.5839 99.3088 66.9059 101.459 68.7671C99.018 71.4022 97.3501 74.6585 96.6379 78.1789C95.9256 81.6993 96.1964 85.3478 97.4205 88.7244C98.6447 92.1011 100.775 95.0755 103.578 97.3215C106.381 99.5675 109.748 100.998 113.31 101.457V115.062H90.6539V110.776C91.2792 110.733 91.8649 110.454 92.2922 109.996C92.7196 109.537 92.9565 108.933 92.9551 108.307V99.1217C92.9551 98.4668 92.6949 97.8388 92.2319 97.3758C91.7689 96.9127 91.1409 96.6526 90.486 96.6526H83.7504V92.3811H85.8886C86.5435 92.3811 87.1715 92.121 87.6345 91.658C88.0976 91.1949 88.3577 90.5669 88.3577 89.9121V80.7124C88.3577 80.0575 88.0976 79.4295 87.6345 78.9665C87.1715 78.5034 86.5435 78.2433 85.8886 78.2433H44.443C43.7882 78.2433 43.1602 78.5034 42.6971 78.9665C42.2341 79.4295 41.974 80.0575 41.974 80.7124V89.917C41.974 90.5718 42.2341 91.1999 42.6971 91.6629C43.1602 92.1259 43.7882 92.3861 44.443 92.3861H46.5812V96.6575H39.8605C39.2056 96.6575 38.5776 96.9177 38.1146 97.3807C37.6515 97.8437 37.3914 98.4717 37.3914 99.1266V108.331C37.39 108.958 37.6269 109.562 38.0542 110.02C38.4816 110.479 39.0673 110.758 39.6926 110.8V115.062H30.804V55.5625H32.9372C33.5064 55.5627 34.0582 55.3661 34.4991 55.0062C34.94 54.6462 35.2431 54.145 35.3569 53.5873L37.6778 42.0765C37.7555 41.6881 37.7385 41.2867 37.6284 40.9062L37.7223 40.842L37.3321 40.2593L32.72 33.346C32.4947 33.0074 32.1893 32.7298 31.8309 32.5377C31.4726 32.3456 31.0723 32.245 30.6657 32.2448H26.0535C25.6477 32.2458 25.2484 32.3468 24.891 32.5389C24.5336 32.7309 24.229 33.0081 24.0042 33.346L19.387 40.2593L18.9969 40.847L19.0957 40.9111C18.9839 41.2913 18.9653 41.6927 19.0414 42.0815L21.3425 53.5873C21.4564 54.145 21.7594 54.6462 22.2003 55.0062C22.6413 55.3661 23.193 55.5627 23.7622 55.5625H25.9004V115.062H19.7525L21.5746 104.124C21.6326 103.771 21.6131 103.409 21.5175 103.064C21.4219 102.719 21.2524 102.399 21.0208 102.126C20.7892 101.854 20.5011 101.634 20.1764 101.484C19.8516 101.333 19.498 101.255 19.1401 101.255H5.31341C4.9555 101.255 4.60192 101.333 4.27718 101.484C3.95244 101.634 3.66431 101.854 3.43273 102.126C3.20116 102.399 3.03169 102.719 2.93606 103.064C2.84044 103.409 2.82094 103.771 2.87892 104.124L4.73071 115.062H0V120H132.653V115.062H118.268V101.344C122.462 100.594 126.353 98.6573 129.48 95.7639C132.607 92.8705 134.839 89.1414 135.912 85.0184ZM106.861 70.4905C107.178 70.2441 107.43 69.9242 107.596 69.5583C107.761 69.1924 107.835 68.7917 107.811 68.3908C107.787 67.99 107.665 67.6011 107.456 67.2579C107.248 66.9147 106.959 66.6276 106.614 66.4215C104.487 65.1403 102.74 63.3146 101.554 61.1328C100.368 58.9509 99.7863 56.4921 99.8684 54.0102C99.9504 51.5284 100.693 49.1133 102.021 47.0146C103.348 44.9159 105.212 43.2095 107.419 42.0716C107.768 41.897 108.072 41.6419 108.303 41.3272C108.535 41.0126 108.689 40.6474 108.752 40.2617C108.815 39.8761 108.786 39.4809 108.667 39.1088C108.547 38.7366 108.341 38.3981 108.066 38.1211C107.048 37.1197 106.293 35.8817 105.871 34.5176C105.448 33.1535 105.37 31.7059 105.644 30.3042C105.917 28.9026 106.534 27.5906 107.439 26.4856C108.343 25.3806 109.508 24.517 110.828 23.9721C112.148 23.4272 113.582 23.2178 115.003 23.3629C116.424 23.5079 117.786 24.0027 118.969 24.8032C120.152 25.6036 121.117 26.6846 121.78 27.9496C122.443 29.2147 122.782 30.6242 122.766 32.0522C122.778 33.9245 122.176 35.749 121.053 37.2471C120.821 37.5566 120.665 37.9163 120.597 38.2973C120.529 38.6782 120.552 39.0697 120.664 39.4402C120.775 39.8107 120.972 40.1498 121.239 40.4302C121.505 40.7106 121.834 40.9244 122.199 41.0544C124.159 41.7686 125.888 43.0047 127.197 44.6293C128.506 46.2539 129.347 48.2053 129.629 50.2729C129.91 52.3404 129.622 54.4456 128.795 56.3612C127.967 58.2768 126.633 59.9301 124.934 61.1426C124.624 61.3672 124.369 61.661 124.192 62.0009C124.014 62.3407 123.919 62.7172 123.912 63.1006C123.905 63.4839 123.988 63.8635 124.153 64.2094C124.319 64.5552 124.562 64.8578 124.865 65.0931C127.647 67.2227 129.733 70.1322 130.856 73.4511C131.979 76.77 132.089 80.3481 131.171 83.7295C130.378 86.8054 128.755 89.6041 126.48 91.8204C124.204 94.0367 121.363 95.5852 118.268 96.2971V93.0873L127.403 81.6753L123.552 78.5939L118.268 85.1863V61.5623H113.33V81.6605L107.814 76.1446L104.328 79.6358L113.33 88.638V96.4551C110.819 96.0338 108.463 94.961 106.497 93.3441C104.531 91.7271 103.023 89.6225 102.125 87.2405C101.04 84.3067 100.915 81.1043 101.766 78.0944C102.617 75.0844 104.401 72.4221 106.861 70.4905ZM9.73302 115.062L8.25159 106.173H16.2365L14.7551 115.062H9.73302ZM83.4196 83.1765V87.4479H46.9121V83.1765H83.4196ZM78.8173 92.3811V96.6526H51.5342V92.3811H78.8173ZM85.7306 110.79V115.062H44.6307V110.79H85.7306ZM42.3394 105.852V101.581H88.0318V105.852H42.3394ZM26.0634 39.1236L27.3769 37.1483H29.3522L30.6657 39.1236H26.0634ZM32.2508 44.0617L30.9373 50.6343H25.777L24.4634 44.0567L32.2508 44.0617Z" fill="white"/>
</svg>
