<svg width="92" height="120" viewBox="0 0 92 120" fill="none" xmlns="http://www.w3.org/2000/svg">
<path d="M45.7738 13.8379C28.6665 13.8379 14.7412 27.8244 14.7412 45.0147C14.7412 62.205 28.6578 76.1916 45.7738 76.1916C62.8898 76.1916 76.8064 62.205 76.8064 45.0147C76.8064 27.8244 62.8811 13.8379 45.7738 13.8379ZM45.7738 69.1983C32.5216 69.1983 21.7345 58.35 21.7345 45.0147C21.7345 31.6795 32.5128 20.8312 45.7738 20.8312C59.0348 20.8312 69.8132 31.6795 69.8132 45.0147C69.8132 58.35 59.026 69.1983 45.7738 69.1983Z" fill="white"/>
<path d="M78.1923 76.0517C86.1459 67.6788 90.5747 56.5676 90.5616 45.0191C90.5616 20.1974 70.456 0 45.7741 0C21.0923 0 0.98228 20.193 0.98228 45.0191C0.970324 56.5682 5.40074 67.6794 13.356 76.0517L0.331032 103.832C0.0349776 104.464 -0.0656964 105.169 0.0419361 105.857C0.149568 106.546 0.460594 107.187 0.935081 107.698C1.40957 108.208 2.02586 108.565 2.70482 108.723C3.38379 108.881 4.09443 108.832 4.74553 108.583L15.4977 104.462L21.9708 118.011C22.2551 118.606 22.7019 119.109 23.2595 119.46C23.8171 119.812 24.4628 119.999 25.1221 120C25.7806 120 26.4256 119.814 26.9831 119.464C27.5406 119.114 27.9879 118.613 28.2735 118.02L41.8229 89.8372C44.4403 90.0676 47.0729 90.0676 49.6903 89.8372L63.2398 118.02C63.5254 118.613 63.9727 119.114 64.5302 119.464C65.0877 119.814 65.7327 120 66.3911 120C67.0505 119.999 67.6962 119.812 68.2538 119.46C68.8114 119.109 69.2581 118.606 69.5425 118.011L76.0506 104.462L86.7983 108.579C87.4497 108.829 88.161 108.879 88.8408 108.722C89.5206 108.565 90.1377 108.207 90.6129 107.697C91.0881 107.186 91.3996 106.544 91.5073 105.855C91.615 105.165 91.514 104.46 91.2172 103.828L78.1923 76.0517ZM25.1353 108.426L20.4148 98.5394C20.0342 97.748 19.3697 97.1288 18.5534 96.8048C17.7371 96.4809 16.8288 96.476 16.0091 96.7911L10.327 98.9765L18.7932 80.9251C23.515 84.5253 28.9096 87.1438 34.6592 88.6265L25.1353 108.426ZM45.7741 83.045C24.9342 83.045 7.97554 65.9989 7.97554 45.0191C7.97554 24.0393 24.9342 6.99326 45.7741 6.99326C66.614 6.99326 83.5683 24.0393 83.5683 45.0191C83.5683 65.9989 66.614 83.045 45.7741 83.045ZM75.5392 96.7867C74.7189 96.4704 73.8096 96.4746 72.9923 96.7986C72.175 97.1226 71.5098 97.7426 71.1291 98.5351L66.4086 108.422L56.889 88.6221C62.6383 87.1386 68.0328 84.5201 72.755 80.9208L81.2037 98.9459L75.5392 96.7867Z" fill="white"/>
<path d="M60.4247 31.308L40.2098 51.6453L31.123 42.5234L26.1621 47.4537L37.7185 59.0712C38.0434 59.3976 38.4296 59.6567 38.8549 59.8334C39.2801 60.0102 39.7362 60.1011 40.1967 60.1011C40.6573 60.1011 41.1133 60.0102 41.5386 59.8334C41.9639 59.6567 42.35 59.3976 42.6749 59.0712L65.403 36.2382L60.4247 31.308Z" fill="white"/>
</svg>
