<svg width="120" height="120" viewBox="0 0 120 120" fill="none" xmlns="http://www.w3.org/2000/svg">
<path d="M11.2343 103.465L4.84931 109.85C4.48088 110.194 4.18536 110.608 3.9804 111.068C3.77544 111.528 3.66523 112.024 3.65635 112.528C3.64747 113.031 3.74009 113.531 3.9287 113.998C4.1173 114.465 4.39803 114.889 4.75412 115.245C5.11022 115.602 5.53439 115.882 6.00133 116.071C6.46827 116.259 6.96842 116.352 7.47194 116.343C7.97545 116.334 8.47202 116.224 8.93202 116.019C9.39202 115.814 9.80602 115.519 10.1493 115.15L16.5344 108.77L25.4994 117.71C26.9732 119.177 28.9678 120 31.0469 120C33.1261 120 35.1206 119.177 36.5944 117.71L42.3895 111.91C42.4695 111.825 42.5295 111.725 42.6095 111.635L42.8795 111.91C44.3529 113.379 46.3487 114.205 48.4295 114.205C50.5103 114.205 52.5061 113.379 53.9795 111.91L59.7745 106.115C61.2426 104.641 62.0668 102.646 62.0668 100.565C62.0668 98.4848 61.2426 96.4892 59.7745 95.0151L50.8345 86.0801L86.0996 50.815L94.9997 59.755C96.4744 61.2218 98.4698 62.0452 100.55 62.0452C102.63 62.0452 104.625 61.2218 106.1 59.755L111.89 53.96C113.359 52.4866 114.184 50.4907 114.184 48.4099C114.184 46.3292 113.359 44.3333 111.89 42.8599L111.63 42.5999C111.721 42.5269 111.808 42.4484 111.89 42.3649L117.69 36.5749C119.158 35.1009 119.982 33.1052 119.982 31.0249C119.982 28.9445 119.158 26.9489 117.69 25.4749L108.77 16.5348L115.15 10.1498C115.812 9.43891 116.173 8.49867 116.156 7.52716C116.139 6.55565 115.745 5.62872 115.058 4.94166C114.371 4.25459 113.444 3.86103 112.472 3.84389C111.501 3.82674 110.561 4.18736 109.85 4.84976L103.465 11.2298L94.5247 2.28975C93.0508 0.823256 91.0563 0 88.9772 0C86.898 0 84.9035 0.823256 83.4296 2.28975L77.6346 8.08978C77.5496 8.17478 77.4796 8.26478 77.3996 8.34978L77.1396 8.08978C75.6444 6.66442 73.6579 5.86929 71.5921 5.86929C69.5263 5.86929 67.5398 6.66442 66.0446 8.08978L60.2445 13.8848C58.7765 15.3588 57.9523 17.3545 57.9523 19.4348C57.9523 21.5152 58.7765 23.5108 60.2445 24.9848L69.1846 33.9199L33.9244 69.185L24.9994 60.245C23.5254 58.777 21.5297 57.9528 19.4494 57.9528C17.369 57.9528 15.3734 58.777 13.8994 60.245L8.08933 66.04C6.62252 67.5147 5.79914 69.5101 5.79914 71.59C5.79914 73.67 6.62252 75.6654 8.08933 77.1401L8.35933 77.4101C8.27433 77.4901 8.17433 77.5501 8.08933 77.6351L2.2943 83.4251C0.825062 84.8985 0 86.8944 0 88.9751C0 91.0559 0.825062 93.0517 2.2943 94.5251L11.2343 103.465ZM82.9346 13.3898L88.7297 7.59478C88.7979 7.53223 88.8871 7.49754 88.9797 7.49754C89.0722 7.49754 89.1614 7.53223 89.2297 7.59478L112.4 30.7749C112.465 30.842 112.501 30.9316 112.501 31.0249C112.501 31.1181 112.465 31.2078 112.4 31.2749L106.61 37.0649C106.54 37.1235 106.451 37.1556 106.36 37.1556C106.268 37.1556 106.18 37.1235 106.11 37.0649L82.9346 13.8848C82.8815 13.8132 82.8528 13.7265 82.8528 13.6373C82.8528 13.5481 82.8815 13.4614 82.9346 13.3898ZM65.5496 19.1848L71.3446 13.3898C71.4116 13.3288 71.499 13.295 71.5896 13.2948C71.6804 13.294 71.7681 13.328 71.8346 13.3898L106.61 48.1649C106.673 48.2326 106.709 48.322 106.709 48.4149C106.709 48.5079 106.673 48.5973 106.61 48.6649L100.82 54.45C100.751 54.5115 100.662 54.5455 100.57 54.5455C100.477 54.5455 100.388 54.5115 100.32 54.45L65.5496 19.6798C65.4874 19.6124 65.4528 19.524 65.4528 19.4323C65.4528 19.3406 65.4874 19.2522 65.5496 19.1848ZM74.4996 39.2249L76.3196 41.0499L80.7746 45.4999L45.4995 80.7751L39.2245 74.5001L74.4996 39.2249ZM13.3943 71.345L19.1844 65.55C19.2521 65.487 19.3418 65.4529 19.4344 65.455C19.5254 65.4531 19.6134 65.4873 19.6794 65.55L31.2694 77.1401L42.8595 88.7301L54.4545 100.32C54.516 100.389 54.55 100.478 54.55 100.57C54.55 100.662 54.516 100.751 54.4545 100.82L48.6545 106.61C48.5853 106.671 48.4964 106.704 48.4045 106.704C48.3126 106.704 48.2237 106.671 48.1545 106.61L13.3943 71.835C13.3314 71.769 13.2963 71.6813 13.2963 71.59C13.2963 71.4988 13.3314 71.4111 13.3943 71.345ZM7.59432 88.7301L13.3943 82.9351C13.4275 82.9053 13.4662 82.8825 13.5083 82.8679C13.5504 82.8533 13.5949 82.8473 13.6393 82.8501C13.729 82.8449 13.8171 82.8755 13.8844 82.9351L37.0644 106.115C37.1213 106.186 37.1522 106.274 37.1522 106.365C37.1522 106.456 37.1213 106.544 37.0644 106.615L31.2694 112.405C31.2007 112.467 31.1117 112.501 31.0194 112.501C30.9272 112.501 30.8382 112.467 30.7694 112.405L7.59932 89.2251C7.5375 89.1578 7.50277 89.07 7.50185 88.9786C7.50093 88.8872 7.53387 88.7987 7.59432 88.7301Z" fill="white"/>
</svg>
