<svg width="63" height="120" viewBox="0 0 63 120" fill="none" xmlns="http://www.w3.org/2000/svg">
<path d="M3.58321 62.7443C4.29958 62.9777 5.05807 63.0529 5.80633 62.9647C6.55459 62.8766 7.27482 62.6271 7.91734 62.2337C8.55986 61.8402 9.10937 61.312 9.52796 60.6855C9.94655 60.0591 10.2243 59.3492 10.3419 58.6051L12.5765 44.4027L16.9957 41.5233L13.3814 64.5189C13.0275 66.7593 13.502 69.0519 14.7161 70.9677L0.718748 110.725C0.395293 111.579 0.245861 112.489 0.279243 113.402C0.312624 114.314 0.528145 115.211 0.913128 116.039C1.29811 116.867 1.84478 117.609 2.52099 118.223C3.1972 118.837 3.98928 119.309 4.85066 119.612C5.71204 119.915 6.62531 120.043 7.53677 119.988C8.44822 119.932 9.33946 119.696 10.158 119.291C10.9766 118.886 11.706 118.322 12.3034 117.632C12.9007 116.941 13.3539 116.138 13.6363 115.269L25.1342 82.5756L33.1327 92.3037L37.6818 114.525C38.0661 116.284 39.128 117.822 40.6377 118.804C42.1474 119.786 43.9832 120.134 45.7477 119.773C47.5122 119.411 49.0632 118.369 50.0648 116.872C51.0665 115.375 51.4381 113.544 51.0993 111.775L45.8953 86.2349L31.553 68.8081C31.6986 68.3589 31.8106 67.8993 31.8879 67.4334L35.0773 47.1222L38.2817 52.6212L55.5285 60.5197C55.6534 60.5797 55.7884 60.6297 55.9134 60.6797C57.1742 61.1319 58.5609 61.0806 59.7848 60.5364C61.0088 59.9922 61.9757 58.997 62.4845 57.7579C62.9933 56.5188 63.0047 55.1313 62.5163 53.884C62.028 52.6367 61.0775 51.6257 59.8626 51.0615L45.6053 44.5227L37.6068 30.8653L37.6768 30.4104C37.9062 28.9702 37.7946 27.4964 37.3509 26.1073C36.9073 24.7181 36.1439 23.4524 35.1223 22.4119C37.5727 21.6759 39.706 20.1402 41.1816 18.0499C42.6571 15.9597 43.3899 13.4354 43.263 10.88C43.1361 8.32451 42.1567 5.88525 40.4813 3.95152C38.8059 2.01779 36.5309 0.70106 34.0196 0.211514C31.5083 -0.278032 28.9053 0.0878239 26.6263 1.25068C24.3472 2.41354 22.5234 4.30637 21.4459 6.62704C20.3685 8.9477 20.0995 11.5624 20.6819 14.0538C21.2644 16.5453 22.6647 18.7697 24.6593 20.3722C23.2215 21.0098 21.9676 21.9995 21.0135 23.2499C20.0594 24.5002 19.4357 25.9708 19.2003 27.5259V27.6509L2.99832 38.2339L0.0638712 56.9904C-0.129269 58.2113 0.118895 59.461 0.763851 60.5155C1.40881 61.5699 2.40835 62.3601 3.58321 62.7443Z" fill="white"/>
</svg>
