<svg width="109" height="100" viewBox="0 0 109 100" fill="none" xmlns="http://www.w3.org/2000/svg">
<path d="M70.6256 2.1625C70.4295 1.82817 70.1899 1.52133 69.9131 1.25L69.8214 1.1625C69.0459 0.436342 68.0294 0.0223335 66.9672 0L4.67558 0C3.5538 0.00162933 2.47662 0.439471 1.67182 1.22094C0.867022 2.00241 0.397695 3.06625 0.363079 4.1875C0.329746 5.3125 -0.43692 31.7583 0.363079 40.9333C0.554125 44.009 1.44176 47.0011 2.95891 49.6833C4.93391 53.075 8.05891 56.025 12.5089 58.6958C15.4587 60.4894 18.5779 61.9883 21.8214 63.1708C23.8589 63.9375 23.9797 64.0417 24.2589 64.45C24.3047 64.5167 25.3631 66.2 25.4881 74.0583C25.5547 78.4792 25.2714 82.4917 25.2672 82.5333C25.2672 82.6875 25.2672 82.8417 25.2672 82.9958C25.2468 83.6265 25.136 84.2509 24.9381 84.85C24.7572 85.4664 24.4505 86.0386 24.0374 86.5305C23.6244 87.0225 23.1139 87.4235 22.5381 87.7083C17.5631 90.2083 17.5631 90.2083 13.6297 91.2417C12.6178 91.5116 11.7385 92.1402 11.1557 93.0104C10.5729 93.8806 10.3263 94.9329 10.462 95.9714C10.5976 97.0099 11.1061 97.9637 11.8928 98.6551C12.6795 99.3464 13.6908 99.7281 14.7381 99.7292H56.8214C57.8627 99.7189 58.8652 99.3326 59.644 98.6414C60.4229 97.9502 60.9257 97.0007 61.0596 95.9681C61.1936 94.9354 60.9498 93.8891 60.373 93.022C59.7963 92.155 58.9256 91.5256 57.9214 91.25C53.9839 90.2 53.9839 90.2 49.0089 87.7167C46.3631 86.3917 46.2839 83.3167 46.2797 83.0042C46.2925 82.8503 46.2925 82.6956 46.2797 82.5417C46.2797 82.5 45.9964 78.4917 46.0631 74.0667C46.1839 66.2083 47.2464 64.525 47.2922 64.4583C47.5714 64.0417 47.7089 63.9458 49.7297 63.1792C52.9732 61.9966 56.0924 60.4977 59.0422 58.7042C63.4922 56.0333 66.6172 53.0833 68.5881 49.6917C70.1052 47.0094 70.9929 44.0174 71.1839 40.9417C71.9964 31.775 71.2339 5.32917 71.1839 4.2125C71.1712 3.49337 70.9792 2.78878 70.6256 2.1625ZM8.88391 8.63333H62.6756C62.7381 11.2125 62.8089 14.6917 62.8589 18.4458C57.2172 19.1458 48.6089 20.0375 45.0172 19.6958C42.7881 19.4833 39.8422 18.8625 36.7297 18.1792C31.9214 17.1458 26.9506 16.0958 23.2756 16.2917C19.1089 16.5292 12.9922 17.7167 8.69225 18.6417C8.75475 14.8125 8.82141 11.25 8.88391 8.63333ZM62.5839 40.1708C62.2756 43.6875 61.4297 47.1833 54.6006 51.2792C52.0953 52.8071 49.4431 54.0802 46.6839 55.0792C44.2964 55.9792 42.0464 56.8292 40.1756 59.5458C38.9714 61.2958 37.5714 64.5167 37.4297 73.9583C37.3672 78.2833 37.6047 82.1375 37.6589 82.9625C37.6921 85.8538 38.5603 88.6739 40.1589 91.0833H31.4089C33.0075 88.6739 33.8757 85.8538 33.9089 82.9625C33.9631 82.1292 34.2006 78.2833 34.1339 73.9583C33.9922 64.5167 32.5922 61.2958 31.3881 59.5458C29.5214 56.8292 27.2672 55.9792 24.8839 55.0792C22.1247 54.0802 19.4726 52.8071 16.9672 51.2792C10.1381 47.1833 9.29225 43.6875 8.97975 40.1708C8.70058 37.025 8.62558 31.4917 8.64225 25.6917C12.6797 24.7958 19.4756 23.3958 23.6797 23.1542C26.4214 22.9917 31.1339 23.9875 35.2881 24.9C38.6214 25.6125 41.7381 26.2875 44.3714 26.5375C45.1172 26.6083 45.9964 26.6417 46.9672 26.6417C51.6214 26.6417 58.4047 25.9208 62.9256 25.3667C62.9422 31.2833 62.8714 36.9667 62.5839 40.1708Z" fill="white"/>
<path d="M81.9463 0.0583496C81.0346 0.0583496 80.1603 0.420514 79.5156 1.06517C78.871 1.70983 78.5088 2.58417 78.5088 3.49585V39.1375C78.5088 40.0492 78.871 40.9235 79.5156 41.5682C80.1603 42.2128 81.0346 42.575 81.9463 42.575C82.858 42.575 83.7323 42.2128 84.377 41.5682C85.0216 40.9235 85.3838 40.0492 85.3838 39.1375V3.49585C85.3827 2.58451 85.0202 1.71081 84.3757 1.06639C83.7313 0.42197 82.8576 0.0594523 81.9463 0.0583496Z" fill="white"/>
<path d="M93.2588 42.575C94.1705 42.575 95.0448 42.2128 95.6895 41.5682C96.3341 40.9235 96.6963 40.0492 96.6963 39.1375V3.49585C96.6963 2.58417 96.3341 1.70983 95.6895 1.06517C95.0448 0.420514 94.1705 0.0583496 93.2588 0.0583496C92.3471 0.0583496 91.4728 0.420514 90.8281 1.06517C90.1835 1.70983 89.8213 2.58417 89.8213 3.49585V39.1375C89.8213 40.0492 90.1835 40.9235 90.8281 41.5682C91.4728 42.2128 92.3471 42.575 93.2588 42.575Z" fill="white"/>
<path d="M108.012 39.1375V3.49585C108.012 2.58417 107.65 1.70983 107.005 1.06517C106.361 0.420514 105.486 0.0583496 104.575 0.0583496C103.663 0.0583496 102.789 0.420514 102.144 1.06517C101.499 1.70983 101.137 2.58417 101.137 3.49585V40.9417C101.137 41.7083 101.062 45.6083 97.5455 47.1375C95.233 48.1417 93.558 48.9 92.5663 49.3958C92.1038 49.625 91.7871 49.8125 91.533 49.9583C90.9333 50.3101 90.4508 50.8311 90.1462 51.4559C89.8415 52.0808 89.7282 52.7818 89.8205 53.4708L89.7871 96.5583C89.786 97.0099 89.874 97.4573 90.0461 97.8748C90.2181 98.2923 90.4708 98.6718 90.7898 98.9915C91.1087 99.3112 91.4875 99.5648 91.9046 99.7379C92.3217 99.9109 92.7689 100 93.2205 100C94.1311 99.9989 95.0041 99.637 95.6484 98.9934C96.2927 98.3499 96.6558 97.4773 96.658 96.5667L96.6913 55.0417C97.4538 54.6875 98.5955 54.175 100.283 53.4375C101.897 52.7466 103.345 51.7206 104.533 50.4277C105.72 49.1347 106.619 47.6042 107.17 45.9375C107.733 44.3021 108.014 42.5835 108.004 40.8542L108.012 39.1375ZM106.845 43.4167C107.514 42.8302 107.927 42.0069 108 41.1208C107.93 42.0078 107.516 42.8321 106.845 43.4167Z" fill="white"/>
</svg>
