<svg width="130" height="100" viewBox="0 0 130 100" fill="none" xmlns="http://www.w3.org/2000/svg">
<path d="M124.366 27.91L116.126 29.5589L106.033 6.33471L104.43 5.7944C93.6846 2.16591 78.0388 0 62.57 0C47.3527 0 33.9007 2.08673 24.6875 5.8829L23.2901 6.46514L13.1546 29.4192L5.59016 27.91C2.25512 27.2859 0.899674 29.8337 0.275519 33.1734C-0.348637 36.5131 -0.125059 39.3591 3.21464 39.9832L7.40673 40.9148L4.97998 45.4143C2.84667 49.7415 1.75207 54.5438 1.64494 57.5667C1.50986 61.4234 1.78467 71.8617 2.45541 76.4917C2.99106 80.19 4.85887 84.4334 8.70628 84.7874C65.1551 89.9576 65.1551 89.9576 119.419 84.8619C124.026 84.4287 126.555 78.9743 126.704 74.9779C126.872 70.5203 127.757 61.116 127.636 57.1522C127.421 52.7415 126.243 48.4313 124.184 44.5247H124.226L122.205 40.9893L126.737 39.9879C130.081 39.3637 130.305 36.5178 129.681 33.1781C129.057 29.8384 127.701 27.2859 124.366 27.91ZM28.9913 12.362C37.2637 9.28781 49.0994 7.597 62.57 7.597C76.497 7.597 90.4753 9.41357 100.415 12.4831L108.967 32.172C96.5399 29.6101 78.5605 29.2794 70.1623 29.2794C51.4144 29.2794 32.7689 30.6488 19.9318 32.88L28.9913 12.362ZM15.7304 70.0033C14.0093 70.0042 12.3266 69.4947 10.8951 68.5392C9.46365 67.5836 8.34771 66.2251 7.68844 64.6353C7.02917 63.0455 6.8562 61.2959 7.1914 59.6077C7.5266 57.9196 8.35492 56.3688 9.57158 55.1515C10.7882 53.9342 12.3386 53.1051 14.0265 52.769C15.7145 52.4328 17.4642 52.6049 19.0543 53.2633C20.6445 53.9217 22.0037 55.0369 22.9599 56.4679C23.9162 57.8988 24.4266 59.5813 24.4266 61.3023C24.4254 63.6088 23.5089 65.8205 21.8785 67.4518C20.248 69.0832 18.0368 70.0008 15.7304 70.0033ZM84.3828 82.9615H44.7909V74.7589H84.3828V82.9615ZM94.5556 69.0158L84.2058 69.1928L74.238 69.2813C70.9169 69.3092 67.5958 69.3279 64.2794 69.2813C60.963 69.2347 57.6326 69.258 54.3162 69.2207L44.3484 69.0857L34.469 68.89C33.584 66.0953 32.8714 63.8549 32.2938 62.0616C36.284 62.5584 40.2805 62.9512 44.2832 63.24C47.6135 63.5009 50.9439 63.6359 54.2743 63.7803C57.6047 63.9247 60.9397 63.9434 64.2701 63.976C67.6005 64.0086 70.9402 63.9294 74.2752 63.8269C77.6103 63.7244 80.936 63.58 84.2617 63.3332C88.46 63.0537 92.6521 62.6562 96.838 62.1408C96.2185 63.9527 95.4872 66.2117 94.5556 69.0158ZM97.1454 59.7885L84.2058 60.0121L74.238 60.1053C70.9169 60.1286 67.5958 60.1472 64.2794 60.1053C60.963 60.0633 57.6326 60.1053 54.3162 60.0494L44.3484 59.9143L31.9817 59.6395C29.9602 53.2908 29.9555 53.2861 29.9555 53.2861H99.2135C99.2135 53.2861 99.1716 53.5656 97.1221 59.7885H97.1454ZM113.448 70.0033C111.727 70.0023 110.046 69.4913 108.615 68.5346C107.185 67.578 106.071 66.2188 105.413 64.6288C104.755 63.0388 104.583 61.2895 104.919 59.602C105.256 57.9145 106.085 56.3646 107.302 55.1482C108.519 53.9318 110.069 53.1036 111.757 52.7683C113.445 52.4329 115.194 52.6055 116.783 53.2642C118.373 53.9229 119.732 55.0381 120.688 56.4689C121.643 57.8996 122.154 59.5817 122.154 61.3023C122.152 62.4466 121.926 63.5794 121.487 64.636C121.047 65.6926 120.404 66.6523 119.594 67.4603C118.784 68.2683 117.823 68.9088 116.765 69.3451C115.707 69.7815 114.574 70.0051 113.429 70.0033H113.448Z" fill="white"/>
<path d="M7.45018 89.4546C4.49243 89.1844 2.03773 87.3353 0.430761 84.3635V92.3285C0.430761 96.5672 0.356234 100 4.34804 100H18.5173C22.5138 100 22.4346 96.5672 22.4346 92.3285V90.8287C17.8978 90.4095 12.9418 89.9576 7.45018 89.4546Z" fill="white"/>
<path d="M118.709 89.5291C113.324 90.0321 108.461 90.4886 104.05 90.8938C104.05 91.7928 104.018 92.3285 104.018 92.3285C104.018 96.5671 103.943 100 107.935 100H122.095C126.091 100 126.012 96.5671 126.012 92.3285L126.11 84.6663C124.382 87.2886 121.843 89.231 118.709 89.5291Z" fill="white"/>
</svg>
