<svg width="61" height="60" viewBox="0 0 61 60" fill="none" xmlns="http://www.w3.org/2000/svg">
<path d="M30.0122 59.9999C46.5807 59.9999 60.0121 46.5685 60.0121 30C60.0121 13.4314 46.5807 0 30.0122 0C13.4436 0 0.012207 13.4314 0.012207 30C0.012207 46.5685 13.4436 59.9999 30.0122 59.9999Z" fill="white"/>
<path d="M36.8365 15.9131H35.924C35.8691 16.0452 35.8314 16.1838 35.8115 16.3255H36.9739L36.8365 15.9131Z" fill="black"/>
<path d="M24.0994 15.9131H23.187L23.0493 16.3255H24.2119C24.1984 16.1826 24.1603 16.0431 24.0994 15.9131Z" fill="black"/>
<path d="M37.1372 16.7871H35.8872C35.8872 16.8621 35.8872 16.9246 35.8872 16.9871V17.1496H37.2123L37.1372 16.7871Z" fill="black"/>
<path d="M24.1244 17.0372C24.1244 17.0372 24.1244 16.8996 24.1244 16.8371H22.8745L22.7368 17.2496H24.0619L24.1244 17.0372Z" fill="black"/>
<path d="M37.4365 17.6623H36.124L36.2615 18.0748H37.5865L37.4365 17.6623Z" fill="black"/>
<path d="M23.9122 17.6623H22.5872L22.4497 18.0748H23.7622L23.9122 17.6623Z" fill="black"/>
<path d="M37.7365 18.5376H36.4365L36.574 18.9501H37.8865L37.7365 18.5376Z" fill="black"/>
<path d="M23.5997 18.5376H22.2872L22.1372 18.9501H23.4497L23.5997 18.5376Z" fill="black"/>
<path d="M38.0365 19.4128H36.749L36.8865 19.8253H38.1865L38.0365 19.4128Z" fill="black"/>
<path d="M23.2869 19.4128H21.9869L21.8369 19.8253H23.1369L23.2869 19.4128Z" fill="black"/>
<path d="M22.9741 20.2881H21.6866L21.5366 20.7006H22.8241L22.9741 20.2881Z" fill="black"/>
<path d="M38.3365 20.2881H37.0615L37.199 20.7006H38.4865L38.3365 20.2881Z" fill="black"/>
<path d="M21.3878 21.1621L21.2378 21.5746H22.5128L22.6503 21.1621H21.3878Z" fill="black"/>
<path d="M38.649 21.1621H37.374L37.5115 21.5746H38.7865L38.649 21.1621Z" fill="black"/>
<path d="M38.949 22.0373H37.6865L37.7615 22.2498L37.824 22.4498H39.0865L38.949 22.0373Z" fill="black"/>
<path d="M20.9375 22.4498H22.2L22.2625 22.2498L22.35 22.0373H21.0875L20.9375 22.4498Z" fill="black"/>
<path d="M36.5745 15.1501C36.4404 15.233 36.3184 15.3339 36.2119 15.4501H36.6744L36.5745 15.1501Z" fill="black"/>
<path d="M23.4496 15.1501L23.3496 15.4501H23.8121C23.7056 15.3339 23.5836 15.233 23.4496 15.1501Z" fill="black"/>
<path d="M20.6372 23.3254H21.8872L22.0247 22.9004H20.7747L20.6372 23.3254Z" fill="black"/>
<path d="M39.249 22.9004H37.999L38.1365 23.3254H39.3865L39.249 22.9004Z" fill="black"/>
<path d="M39.549 23.7744H38.3115L38.449 24.1994H39.6865L39.549 23.7744Z" fill="black"/>
<path d="M20.3369 24.1994H21.5744L21.7119 23.7744H20.4744L20.3369 24.1994Z" fill="black"/>
<path d="M20.0366 25.0621H21.2616L21.4116 24.6496H20.1741L20.0366 25.0621Z" fill="black"/>
<path d="M39.849 24.6496H38.624L38.7615 25.0621H39.9865L39.849 24.6496Z" fill="black"/>
<path d="M40.149 25.5249H38.9365L39.074 25.9374H40.299L40.149 25.5249Z" fill="black"/>
<path d="M19.7373 25.9374H20.9498L21.0873 25.5249H19.8748L19.7373 25.9374Z" fill="black"/>
<path d="M40.449 26.4001H39.249L39.3865 26.8126H40.599L40.449 26.4001Z" fill="black"/>
<path d="M19.437 26.8126H20.637L20.7745 26.4001H19.5745L19.437 26.8126Z" fill="black"/>
<path d="M40.749 27.2754H39.5615L39.699 27.6879H40.899L40.749 27.2754Z" fill="black"/>
<path d="M19.1245 27.6879H20.3245L20.462 27.2754H19.2745L19.1245 27.6879Z" fill="black"/>
<path d="M41.049 28.1494H39.874L40.0115 28.5619H41.199L41.049 28.1494Z" fill="black"/>
<path d="M18.8242 28.5619H20.0117L20.1492 28.1494H18.9742L18.8242 28.5619Z" fill="black"/>
<path d="M18.5254 29.4371H19.7004L19.8504 29.0246H18.6754L18.5254 29.4371Z" fill="black"/>
<path d="M41.349 29.0246H40.1865L40.324 29.4371H41.499L41.349 29.0246Z" fill="black"/>
<path d="M18.2251 30.3123H19.3876L19.5376 29.8998H18.3751L18.2251 30.3123Z" fill="black"/>
<path d="M41.649 29.8998H40.499L40.6365 30.3123H41.799L41.649 29.8998Z" fill="black"/>
<path d="M17.9248 31.1876H19.0748L19.2248 30.7751H18.0748L17.9248 31.1876Z" fill="black"/>
<path d="M41.9615 30.7751H40.8115L40.949 31.1876H42.099L41.9615 30.7751Z" fill="black"/>
<path d="M42.2615 31.6503H41.124L41.2615 32.0628H42.399L42.2615 31.6503Z" fill="black"/>
<path d="M17.6245 32.0628H18.762L18.912 31.6503H17.762L17.6245 32.0628Z" fill="black"/>
<path d="M42.5615 32.5244H41.4365L41.574 32.9369H42.699L42.5615 32.5244Z" fill="black"/>
<path d="M17.3242 32.9369H18.4492L18.5992 32.5244H17.4617L17.3242 32.9369Z" fill="black"/>
<path d="M17.0249 33.8121H18.1374L18.2874 33.3996H17.1624L17.0249 33.8121Z" fill="black"/>
<path d="M42.8615 33.3996H41.749L41.8865 33.8121H42.999L42.8615 33.3996Z" fill="black"/>
<path d="M43.1615 34.2626H42.0615L42.199 34.6876H43.299L43.1615 34.2626Z" fill="black"/>
<path d="M16.7246 34.6876H17.8246L17.9746 34.2626H16.8621L16.7246 34.6876Z" fill="black"/>
<path d="M43.6115 35.5629L43.4615 35.1379H42.374L42.5115 35.5629H43.6115Z" fill="black"/>
<path d="M16.4243 35.5629H17.5118L17.6618 35.1379H16.5618L16.4243 35.5629Z" fill="black"/>
<path d="M42.824 36.4119V36.4369H43.9115L43.7615 36.0119H42.6865L42.824 36.4119Z" fill="black"/>
<path d="M16.1118 36.4369H17.1993V36.4119L17.3493 36.0119H16.2618L16.1118 36.4369Z" fill="black"/>
<path d="M15.8115 37.3121H16.749C16.8397 37.1749 16.9231 37.0331 16.999 36.8871H15.9615L15.8115 37.3121Z" fill="black"/>
<path d="M43.2748 37.3121H44.2123L44.0623 36.8871H43.0249C43.1008 37.0331 43.1842 37.1749 43.2748 37.3121Z" fill="black"/>
<path d="M44.1124 38.1873H44.5123L44.3623 37.7624H43.6499C43.7888 37.9198 43.9438 38.0622 44.1124 38.1873Z" fill="black"/>
<path d="M15.5127 38.1873H15.9251C16.087 38.0588 16.2375 37.9166 16.3751 37.7624H15.6627L15.5127 38.1873Z" fill="black"/>
<path d="M50.5492 32.9119C50.1486 32.1613 49.5528 31.5328 48.8246 31.0928C48.0963 30.6527 47.2627 30.4175 46.4118 30.4119C45.9022 30.4084 45.3955 30.4885 44.9119 30.6494C44.8323 30.6742 44.7658 30.7298 44.7271 30.8036C44.6884 30.8775 44.6807 30.9636 44.7056 31.0432C44.7305 31.1227 44.7859 31.1891 44.8597 31.2278C44.9336 31.2665 45.0197 31.2743 45.0993 31.2495C45.5214 31.104 45.9654 31.0321 46.4118 31.0369C47.4617 31.0949 48.4494 31.5528 49.1721 32.3165C49.8949 33.0802 50.2976 34.0917 50.2976 35.1432C50.2976 36.1947 49.8949 37.2062 49.1721 37.9699C48.4494 38.7336 47.4617 39.1914 46.4118 39.2493C46.2287 39.2622 46.0449 39.2622 45.8618 39.2493L38.9494 19.2494L39.6743 17.5744C39.8073 17.2622 39.8754 16.9262 39.8744 16.5869C39.8744 15.9238 39.6109 15.288 39.1421 14.8192C38.6733 14.3503 38.0374 14.0869 37.3744 14.0869H36.9244H36.8493C36.2807 14.2089 35.7726 14.5254 35.4121 14.9817C35.0516 15.438 34.8614 16.0055 34.8744 16.5869C34.8701 16.872 34.9166 17.1557 35.0119 17.4244L36.8368 22.5244L30.0119 38.1493L23.1869 22.5244L24.9119 17.6994L25.0119 17.4244C25.1071 17.1557 25.1536 16.872 25.1494 16.5869C25.1623 16.0055 24.9721 15.438 24.6116 14.9817C24.2512 14.5254 23.743 14.2089 23.1744 14.0869H23.0993H22.6494C21.9863 14.0869 21.3505 14.3503 20.8816 14.8192C20.4128 15.288 20.1494 15.9238 20.1494 16.5869C20.1483 16.9262 20.2164 17.2622 20.3494 17.5744L21.0744 19.2494L14.1618 39.2493C13.9787 39.2622 13.795 39.2622 13.6119 39.2493C12.562 39.1914 11.5742 38.7336 10.8514 37.9699C10.1287 37.2062 9.7261 36.1947 9.7261 35.1432C9.7261 34.0917 10.1287 33.0802 10.8514 32.3165C11.5742 31.5528 12.562 31.0949 13.6119 31.0369C14.0374 31.0391 14.4596 31.1109 14.8619 31.2495C14.9415 31.2743 15.0276 31.2665 15.1015 31.2278C15.1753 31.1891 15.2307 31.1227 15.2556 31.0432C15.2804 30.9636 15.2727 30.8775 15.2341 30.8036C15.1954 30.7298 15.129 30.6742 15.0494 30.6494C14.5658 30.4885 14.059 30.4084 13.5493 30.4119C12.3366 30.4743 11.1942 31 10.3578 31.8804C9.52148 32.7609 9.05518 33.9289 9.05518 35.1432C9.05518 36.3576 9.52148 37.5256 10.3578 38.406C11.1942 39.2864 12.3366 39.812 13.5493 39.8743C13.8095 39.8748 14.0691 39.8497 14.3243 39.7994H14.4369C15.2526 39.6433 16.0131 39.2761 16.6426 38.7344C17.2721 38.1926 17.7486 37.4953 18.0244 36.712L22.8244 23.287L29.6118 38.8369L27.8744 42.812C27.75 43.1 27.6861 43.4106 27.6869 43.7244C27.6869 44.3245 27.9253 44.8999 28.3496 45.3242C28.7739 45.7485 29.3493 45.9869 29.9493 45.9869C30.5494 45.9869 31.1249 45.7485 31.5492 45.3242C31.9735 44.8999 32.2119 44.3245 32.2119 43.7244C32.2126 43.4106 32.1488 43.1 32.0243 42.812L30.2868 38.8369L37.0744 23.287L41.8743 36.712C42.1502 37.4953 42.6267 38.1926 43.2562 38.7344C43.8857 39.2761 44.6461 39.6433 45.4618 39.7994H45.5743C45.8295 39.8497 46.0891 39.8748 46.3493 39.8743C47.172 39.8724 47.9801 39.6563 48.6939 39.2472C49.4078 38.8381 50.0028 38.2501 50.4203 37.5411C50.8379 36.8322 51.0636 36.0268 51.0752 35.2041C51.0869 34.3814 50.8841 33.5699 50.4868 32.8494L50.5492 32.9119ZM22.2119 23.3619L22.0494 23.8119L21.8994 24.237L21.7369 24.687L21.5869 25.112L21.4244 25.5619L21.2744 25.9869L21.1119 26.4369L20.9619 26.8495L20.7994 27.312L20.6494 27.7244L20.4869 28.1869L20.3369 28.5995L20.1744 29.062L20.0244 29.4744L19.8619 29.9369L19.7119 30.3494L19.5494 30.8119L19.3994 31.2245L19.2369 31.687L19.0869 32.0994L18.9244 32.5619L18.7744 32.9745L18.6119 33.437L18.4619 33.8494L18.2994 34.3119L18.1494 34.7244L17.9869 35.1869L17.8369 35.5995L17.6744 36.0494L17.5244 36.4744V36.5495C17.4802 36.6785 17.4258 36.8038 17.3619 36.9244C17.2986 37.0697 17.2276 37.2117 17.1493 37.3495C17.0511 37.5096 16.938 37.6603 16.8118 37.7995C16.6928 37.95 16.5634 38.092 16.4244 38.2244C16.2383 38.3921 16.0375 38.5427 15.8244 38.6744C15.5518 38.8491 15.2576 38.9877 14.9493 39.0868L15.0868 38.6744L15.2493 38.2244L15.387 37.7995L15.5493 37.3495L15.6869 36.9244L15.8494 36.4744L15.9869 36.0494L16.1494 35.5995L16.2994 35.1869L16.4494 34.7244L16.5994 34.3119L16.7494 33.8494L16.8994 33.437L17.0494 32.9745L17.1994 32.5619L17.3619 32.0994L17.4994 31.687L17.6619 31.2245L17.7994 30.8119L17.9619 30.3494L18.0994 29.9369L18.2619 29.4744L18.3993 29.062L18.5618 28.5995L18.6993 28.1869L18.8618 27.7244L18.9993 27.312L19.1618 26.8495L19.3118 26.4369L19.4618 25.9869L19.6118 25.5619L19.7619 25.112L19.9119 24.687L20.0619 24.237L20.2119 23.8119L20.3744 23.3619L20.5119 22.9495L20.6744 22.487L20.8119 22.0744L20.9744 21.6119L21.1119 21.1995L21.2744 20.737L21.4119 20.3245L21.5744 19.862L21.7119 19.4494L21.8744 18.9869L22.0119 18.5745L22.1744 18.112L22.3243 17.6994L22.4743 17.2369L22.6243 16.8245L22.7743 16.362L22.9243 15.9495L23.0743 15.487L23.2243 15.0744L23.3244 14.7619C23.5295 14.8307 23.7201 14.9366 23.8868 15.0744C24.0318 15.1963 24.1619 15.3348 24.2744 15.487C24.3668 15.6321 24.4422 15.7873 24.4993 15.9495C24.5404 16.0842 24.5698 16.2222 24.5869 16.362C24.5869 16.362 24.5869 16.487 24.5869 16.5495C24.5931 16.6411 24.5931 16.7329 24.5869 16.8245C24.5738 16.9271 24.5486 17.0278 24.5118 17.1244V17.2369L24.3493 17.6994L24.1993 18.112L24.0368 18.5745L23.8868 18.9869L23.7243 19.4494L23.5743 19.862L23.4118 20.3245L23.2618 20.737L23.0993 21.1995L22.9493 21.6119L22.7868 22.0744L22.6368 22.487L22.4743 22.9495L22.2119 23.3619ZM20.9619 17.287C20.8592 17.0544 20.804 16.8037 20.7994 16.5495C20.8027 16.0499 21.0026 15.5717 21.3559 15.2185C21.7091 14.8652 22.1873 14.6653 22.6869 14.662L21.4369 18.3369L20.9619 17.287ZM31.5493 43.112C31.6438 43.3198 31.6908 43.546 31.6868 43.7743C31.6868 44.2086 31.5143 44.6252 31.2072 44.9323C30.9001 45.2394 30.4837 45.4119 30.0494 45.4119C29.6151 45.4119 29.1985 45.2394 28.8914 44.9323C28.5843 44.6252 28.4118 44.2086 28.4118 43.7743C28.4141 43.5467 28.4608 43.3217 28.5493 43.112L30.0494 39.6745L31.5493 43.112ZM42.2244 35.612L42.0744 35.1994L41.9119 34.7369L41.7619 34.3244L41.5994 33.8619L41.4494 33.4495L41.2869 32.987L41.1369 32.5744L40.9744 32.1119L40.8244 31.6995L40.6619 31.237L40.5119 30.8244L40.3494 30.3619L40.1994 29.9494L40.0369 29.4869L39.8869 29.0745L39.7244 28.612L39.5744 28.1994L39.4119 27.7369L39.2619 27.3245L39.0994 26.862L38.9494 26.4494L38.7869 25.9994L38.6369 25.5744L38.4744 25.1245L38.3244 24.6995L38.1619 24.2494L38.0119 23.8244L37.8494 23.3744L37.6994 22.962L37.5369 22.4995L37.3869 22.0869L37.2244 21.6244L37.0744 21.212L36.9119 20.7495L36.7619 20.3369L36.5994 19.8744L36.4494 19.4619L36.2869 18.9994L36.1369 18.587L35.9744 18.1245L35.8244 17.7119L35.6619 17.2494C35.6252 17.1484 35.5999 17.0436 35.5868 16.9369C35.5807 16.8454 35.5807 16.7535 35.5868 16.662C35.5868 16.5995 35.5868 16.5369 35.5868 16.4744C35.6039 16.3346 35.6333 16.1967 35.6744 16.062C35.7316 15.8998 35.807 15.7446 35.8993 15.5995C36.0118 15.4473 36.142 15.3087 36.2869 15.1869C36.4536 15.0491 36.6442 14.9432 36.8493 14.8744L36.9494 15.1869L37.0994 15.5995L37.2494 16.062L37.3994 16.4744L37.5494 16.9369L37.6994 17.3495L37.8494 17.812L37.9994 18.2245L38.1619 18.6869L38.2994 19.0994L38.4619 19.5619L38.5993 19.9745L38.7619 20.437L38.8993 20.8494L39.0618 21.3119L39.1993 21.7245L39.3618 22.187L39.4993 22.5994L39.6618 23.0619L39.7993 23.4744L39.9618 23.9245L40.1118 24.3495L40.2618 24.7995L40.4118 25.2244L40.5618 25.6744L40.7118 26.0995L40.8618 26.5495L41.0119 26.9619L41.1743 27.4244L41.3119 27.8369L41.4744 28.2995L41.6119 28.712L41.7744 29.1744L41.9119 29.5869L42.0744 30.0494L42.2119 30.462L42.3744 30.9245L42.5118 31.3369L42.6744 31.7994L42.8118 32.2119L42.9743 32.6745L43.1243 33.0869L43.2743 33.5494L43.4243 33.9619L43.5743 34.4244L43.7243 34.837L43.8743 35.2995L44.0243 35.7119L44.1868 36.1619L44.3243 36.5868L44.4868 37.037L44.6243 37.4619L44.7868 37.9119L44.9243 38.3369L45.0868 38.7869L45.2244 39.1995C44.9161 39.1003 44.6219 38.9616 44.3493 38.7869C44.1362 38.6552 43.9354 38.5046 43.7493 38.3369C43.6104 38.2045 43.4808 38.0625 43.3618 37.9119C43.2355 37.7727 43.1227 37.6221 43.0244 37.4619C42.9461 37.3241 42.8751 37.1823 42.8118 37.037C42.7502 36.9154 42.6959 36.7901 42.6493 36.6619V36.5868L42.4993 36.1619L42.2244 35.612ZM39.2993 16.562C39.296 16.8164 39.2409 17.0673 39.1369 17.2995L38.6868 18.3494L37.4368 14.6745C37.917 14.6932 38.3723 14.8931 38.7109 15.234C39.0495 15.575 39.2464 16.0317 39.2619 16.512L39.2993 16.562Z" fill="black"/>
<path d="M29.9999 60C24.0665 60 18.2663 58.2404 13.3328 54.944C8.39932 51.6476 4.55423 46.9622 2.28361 41.4804C0.0129844 35.9987 -0.581096 29.9667 0.576459 24.1472C1.73401 18.3278 4.59117 12.9824 8.78674 8.78686C12.9823 4.59129 18.3279 1.73397 24.1473 0.57642C29.9667 -0.581135 35.9987 0.0130975 41.4805 2.28372C46.9622 4.55435 51.6476 8.39943 54.944 13.3329C58.2405 18.2664 59.9999 24.0666 59.9999 30C59.9999 37.9565 56.8392 45.587 51.2131 51.2131C45.587 56.8392 37.9564 60 29.9999 60ZM29.9999 1.81253C24.425 1.81253 18.9753 3.46577 14.3399 6.56304C9.70446 9.66032 6.09155 14.0626 3.95811 19.2132C1.82466 24.3638 1.26649 30.0313 2.35411 35.4992C3.44172 40.967 6.12624 45.9894 10.0683 49.9315C14.0104 53.8736 19.033 56.5583 24.5008 57.6459C29.9687 58.7335 35.6362 58.1753 40.7868 56.0419C45.9374 53.9084 50.3397 50.2955 53.4369 45.6601C56.5342 41.0247 58.1874 35.575 58.1874 30C58.1775 22.5273 55.2046 15.3635 49.9206 10.0794C44.6365 4.7954 37.4727 1.82245 29.9999 1.81253Z" fill="black"/>
<path d="M29.9999 56.2378C24.8082 56.2378 19.733 54.6982 15.4162 51.8138C11.0994 48.9294 7.7349 44.8298 5.7481 40.0333C3.7613 35.2367 3.24156 29.9587 4.25442 24.8667C5.26728 19.7747 7.76728 15.0974 11.4384 11.4263C15.1095 7.75518 19.7868 5.25504 24.8788 4.24217C29.9708 3.22931 35.2488 3.74921 40.0454 5.73601C44.8419 7.72281 48.9415 11.0873 51.8259 15.4041C54.7103 19.7209 56.2499 24.7961 56.2499 29.9878C56.2499 36.9497 53.4843 43.6265 48.5614 48.5494C43.6386 53.4722 36.9618 56.2378 29.9999 56.2378ZM29.9999 4.67537C24.9876 4.6729 20.0872 6.15703 15.9185 8.9402C11.7499 11.7234 8.50036 15.6804 6.58108 20.3107C4.6618 24.941 4.15897 30.0367 5.13623 34.9529C6.11348 39.869 8.52692 44.3848 12.0712 47.9291C15.6154 51.4733 20.1312 53.8868 25.0474 54.864C29.9635 55.8413 35.0591 55.3385 39.6894 53.4192C44.3197 51.4999 48.2768 48.2504 51.0599 44.0817C53.8431 39.9131 55.3274 35.0127 55.3249 30.0003C55.3183 23.2858 52.648 16.8481 47.9001 12.1001C43.1522 7.35222 36.7145 4.68199 29.9999 4.67537Z" fill="black"/>
</svg>
