<svg width="179" height="120" viewBox="0 0 179 120" fill="none" xmlns="http://www.w3.org/2000/svg">
<line x1="177.707" y1="36.7071" x2="100.707" y2="113.707" stroke="white" stroke-width="2"/>
<path d="M17.8594 28.7188C20.4844 31 23.8125 32.1406 27.8438 32.1406C31.875 32.1406 35.2031 31 37.8281 28.7188C40.4531 26.4375 41.7656 23.5781 41.7656 20.1406C41.7656 16.6719 40.4531 13.7188 37.8281 11.2812C35.2031 8.84375 31.875 7.625 27.8438 7.625C23.8125 7.625 20.4844 8.84375 17.8594 11.2812C15.2344 13.7188 13.9219 16.6719 13.9219 20.1406C13.9219 23.5781 15.2344 26.4375 17.8594 28.7188ZM15.75 62.8438C18.875 65.7188 22.9062 67.1562 27.8438 67.1562C32.7812 67.1562 36.8125 65.7188 39.9375 62.8438C43.0625 59.9688 44.625 56.4531 44.625 52.2969C44.625 48.1406 43 44.5469 39.75 41.5156C36.5312 38.4531 32.5469 36.9219 27.7969 36.9219C23.0781 36.9219 19.1094 38.4531 15.8906 41.5156C12.6719 44.5469 11.0625 48.1406 11.0625 52.2969C11.0625 56.4531 12.625 59.9688 15.75 62.8438ZM43.2656 66.1719C39.1406 70.0156 34 71.9375 27.8438 71.9375C21.6875 71.9375 16.5469 70.0156 12.4219 66.1719C8.29688 62.2969 6.23438 57.6719 6.23438 52.2969C6.23438 49.7969 6.67188 47.4844 7.54688 45.3594C8.45312 43.2031 9.53125 41.4844 10.7812 40.2031C12.0312 38.9219 13.2969 37.8281 14.5781 36.9219C15.8594 36.0156 16.9531 35.4062 17.8594 35.0938L19.2188 34.5312C18.9688 34.4688 18.6094 34.3281 18.1406 34.1094C17.7031 33.8594 16.8906 33.3594 15.7031 32.6094C14.5156 31.8281 13.4844 30.9531 12.6094 29.9844C11.7656 28.9844 10.9688 27.6094 10.2188 25.8594C9.5 24.0781 9.14062 22.1719 9.14062 20.1406C9.14062 15.5469 10.9531 11.5156 14.5781 8.04688C18.2344 4.57812 22.6562 2.84375 27.8438 2.84375C33.0312 2.84375 37.4375 4.57812 41.0625 8.04688C44.7188 11.4844 46.5469 15.5156 46.5469 20.1406C46.5469 22.2031 46.1875 24.1094 45.4688 25.8594C44.7812 27.6094 43.9375 29 42.9375 30.0312C41.9688 31.0312 41 31.8906 40.0312 32.6094C39.0625 33.2969 38.2344 33.8125 37.5469 34.1562L36.4688 34.5312C36.7812 34.6562 37.2344 34.8438 37.8281 35.0938C38.4531 35.3438 39.5 35.9531 40.9688 36.9219C42.4688 37.8906 43.7812 38.9844 44.9062 40.2031C46.0625 41.4219 47.1094 43.125 48.0469 45.3125C48.9844 47.4688 49.4531 49.7969 49.4531 52.2969C49.4531 57.6719 47.3906 62.2969 43.2656 66.1719ZM46.5094 3.78125H87.8063V8.60938L57.0563 71H52.275L82.9781 8.60938H46.5094V3.78125ZM102.159 22.0625H106.472V40.7656H124.238V45.0781H106.472V63.7812H102.159V45.0781H84.3938V40.7656H102.159V22.0625Z" fill="white"/>
<path d="M138.504 98.1953C138.164 98.875 137.73 99.3906 137.203 99.7656C136.676 100.141 135.914 100.375 134.906 100.48V102.285H137.906V115H140.543V98.1953H138.504ZM146.895 106.598C146.895 109.223 147.574 111.32 148.945 112.891C150.305 114.461 151.98 115.234 153.973 115.234C155.953 115.234 157.629 114.461 159 112.891C160.371 111.32 161.062 109.223 161.062 106.598C161.062 103.973 160.371 101.887 159 100.316C157.629 98.7461 155.953 97.9609 153.973 97.9609C151.98 97.9609 150.305 98.7461 148.945 100.316C147.574 101.887 146.895 103.973 146.895 106.598ZM158.414 106.598C158.414 108.543 157.969 110.066 157.102 111.18C156.234 112.293 155.191 112.844 153.973 112.844C152.754 112.844 151.711 112.293 150.832 111.18C149.965 110.066 149.52 108.543 149.52 106.598C149.52 104.664 149.965 103.141 150.832 102.027C151.711 100.926 152.754 100.363 153.973 100.363C155.191 100.363 156.234 100.926 157.102 102.027C157.969 103.141 158.414 104.664 158.414 106.598ZM162.246 106.598C162.246 109.223 162.926 111.32 164.297 112.891C165.656 114.461 167.332 115.234 169.324 115.234C171.305 115.234 172.98 114.461 174.352 112.891C175.723 111.32 176.414 109.223 176.414 106.598C176.414 103.973 175.723 101.887 174.352 100.316C172.98 98.7461 171.305 97.9609 169.324 97.9609C167.332 97.9609 165.656 98.7461 164.297 100.316C162.926 101.887 162.246 103.973 162.246 106.598ZM173.766 106.598C173.766 108.543 173.32 110.066 172.453 111.18C171.586 112.293 170.543 112.844 169.324 112.844C168.105 112.844 167.062 112.293 166.184 111.18C165.316 110.066 164.871 108.543 164.871 106.598C164.871 104.664 165.316 103.141 166.184 102.027C167.062 100.926 168.105 100.363 169.324 100.363C170.543 100.363 171.586 100.926 172.453 102.027C173.32 103.141 173.766 104.664 173.766 106.598Z" fill="white"/>
</svg>
