<svg width="185" height="16" viewBox="0 0 185 16" fill="none" xmlns="http://www.w3.org/2000/svg">
<path d="M1.88172 2.63199C2.96448 1.55953 4.34408 0.836568 5.84213 0.556584C6.93782 0.292021 8.0598 0.151509 9.18689 0.137695C10.1005 0.150742 11.0073 0.298303 11.8779 0.575625C12.1826 0.66448 12.4047 0.575624 12.7982 0.378873C12.8427 0.378873 12.8871 0.378874 13.0394 0.448688C13.1917 0.518503 13.325 0.575624 13.2996 0.601012C12.8817 1.67888 12.7547 2.84774 12.9315 3.9902C12.9315 4.03463 12.6903 4.07906 12.557 4.07906C12.2524 4.14253 12.227 4.12349 12.1826 3.9902C12.1001 3.68556 11.9224 3.00645 11.7891 2.59391C11.7015 2.24158 11.4925 1.93143 11.1988 1.71805C10.2496 1.22474 9.18997 0.982238 8.12063 1.01355C7.28457 0.996799 6.45578 1.1717 5.69778 1.52485C4.93978 1.87799 4.2727 2.40001 3.74769 3.05088C2.67277 4.48761 2.11577 6.24587 2.16733 8.03946C2.16733 10.4703 3.55093 14.5132 8.64742 14.5132C9.26675 14.5298 9.88209 14.4093 10.4494 14.1602C11.0167 13.9111 11.5218 13.5397 11.9287 13.0725C12.2759 12.686 12.5763 12.2599 12.8236 11.8031C12.8871 11.6952 12.9315 11.6762 13.0838 11.8031C13.2362 11.9301 13.3694 12.0633 13.3504 12.1712C13.1072 13.0947 12.7534 13.9855 12.2968 14.8242C12.2621 14.9082 12.1998 14.9778 12.1202 15.0217C12.0406 15.0655 11.9484 15.0809 11.8589 15.0654C11.1798 15.0654 9.84696 15.4335 8.31738 15.4335C2.38312 15.4335 0.00307074 11.454 0.00307074 7.93157C-0.0513189 5.99292 0.618451 4.10354 1.88172 2.63199Z" fill="white"/>
<path d="M19.5781 13.9668C19.5781 13.8144 19.6226 13.77 19.7558 13.77H30.1519C30.1519 13.8589 30.2154 14.557 30.2154 14.7792C30.2154 15.0013 30.1519 15.1282 29.9107 15.1282H19.9526C19.7558 15.1282 19.6416 15.0648 19.6226 14.7157L19.5781 13.9668Z" fill="white"/>
<path d="M30.0367 10.267C29.1164 10.1146 28.8752 9.86077 28.596 9.22609C27.4015 6.68804 26.3422 4.08857 25.4226 1.43856C25.3781 1.21643 25.2893 1.19739 24.9846 1.19739C24.7778 1.19439 24.5739 1.247 24.3944 1.34971C24.3288 1.38316 24.2755 1.43647 24.2421 1.50203C24.1859 1.81388 24.1009 2.11985 23.9882 2.41597C23.1123 4.42791 21.9762 7.16338 21.075 8.99761C20.618 9.89885 20.4403 10.0258 19.6343 10.2225C19.6343 10.2225 19.5898 10.2924 19.5898 10.4447C19.5898 10.7049 19.6977 10.9715 19.7866 10.9715C19.8755 10.9715 20.3134 10.9715 20.5482 10.9715C20.9671 10.9715 21.8176 10.9715 22.8711 10.9715C22.9386 10.7872 22.9833 10.5954 23.0044 10.4002C23.0044 10.3114 23.0044 10.267 22.8458 10.2479C22.2111 10.0702 22.0587 9.94328 22.0587 9.74018C22.1216 9.30342 22.241 8.8767 22.4142 8.47082C22.4762 8.35682 22.568 8.26179 22.6797 8.19584C22.7915 8.1299 22.9191 8.09552 23.0489 8.09636C23.9691 8.09636 24.9085 8.09636 25.8732 8.09636C25.9892 8.09058 26.1041 8.1211 26.2019 8.18366C26.2997 8.24623 26.3756 8.33773 26.419 8.44543C26.6327 8.90852 26.7945 9.39383 26.9014 9.8925C26.9014 10.0448 26.6348 10.1718 26.0255 10.3685C26.0778 10.5897 26.1588 10.8031 26.2667 11.0032C26.3746 11.0032 27.0981 10.9588 27.663 10.9588C28.2278 10.9588 28.6086 10.9588 29.9415 10.9588C30.0938 10.9588 30.1573 10.9588 30.2017 10.5018C30.17 10.3368 30.17 10.2924 30.0367 10.267ZM25.5939 7.16338C24.7371 7.16338 23.9755 7.16338 23.1885 7.16338C23.1617 7.15892 23.1362 7.14899 23.1135 7.1342C23.0908 7.11941 23.0714 7.10009 23.0565 7.07745C23.0416 7.0548 23.0315 7.02932 23.0269 7.00261C23.0223 6.97589 23.0233 6.94852 23.0298 6.9222C23.4677 5.83055 23.9501 4.49772 24.4959 3.2474C24.8513 4.25655 25.175 5.15144 25.7653 6.90316C25.773 6.92983 25.7753 6.95777 25.7721 6.98535C25.769 7.01293 25.7603 7.03961 25.7467 7.06382C25.7332 7.08803 25.7149 7.1093 25.693 7.1264C25.6711 7.14349 25.6461 7.15606 25.6193 7.16338H25.5939Z" fill="white"/>
<path d="M37.519 14.1896C37.8046 14.1896 37.8681 14.1197 37.9315 13.6628C38.0204 12.8313 38.1283 10.5338 38.1283 8.38857V6.17989C38.1283 4.65031 38.1283 3.31113 38.0839 2.41623C38.0394 1.52133 37.9315 1.38805 36.8145 1.14687C36.7792 0.966639 36.7792 0.781281 36.8145 0.601047C36.8145 0.537579 36.9224 0.512193 37.0303 0.512193C37.1382 0.512193 38.2552 0.512193 39.1945 0.512193H43.1994C45.4334 0.512193 46.3284 0.423337 46.5949 0.404297C46.6774 0.404297 46.7663 0.486805 46.7663 0.645475C46.7218 2.19409 46.7218 3.29209 46.7218 3.61578C46.7218 3.73002 46.6774 3.74906 46.3918 3.70463C46.1062 3.66021 46.0681 3.64117 46.0427 3.55231C45.8016 2.28295 45.6746 1.84502 44.9511 1.5848C44.3164 1.36266 43.8594 1.34362 42.3045 1.34362C41.653 1.30571 40.9993 1.34191 40.356 1.45152C40.1593 1.49595 40.0958 1.75616 40.0514 2.21948C39.9298 3.90906 39.8937 5.60371 39.9435 7.29692C39.9435 7.49367 40.026 7.51906 40.0704 7.51906C40.1148 7.51906 40.5083 7.51906 41.8856 7.51906C43.1549 7.51906 43.7262 7.51906 44.2085 7.45559C44.8432 7.45559 44.8876 7.36674 45.1923 6.23066C45.4159 6.14761 45.6519 6.10256 45.8904 6.09738C45.8904 6.73206 45.8904 7.36674 45.8904 7.91256C45.8904 8.45839 46.0174 9.55639 46.0174 9.94989C45.776 10.0183 45.5226 10.0334 45.2748 9.99431C45.1669 9.48657 45.078 9.04864 44.729 8.83285C44.2466 8.57263 43.8531 8.48378 42.1014 8.48378C41.4301 8.46219 40.7581 8.48339 40.0894 8.54724C39.8546 8.59167 39.8546 8.78208 39.8546 9.44214V11.1304C39.842 11.817 39.8717 12.5038 39.9435 13.1868C40.0704 14.088 40.5781 14.2213 41.8475 14.2403C41.9554 14.2403 42.0633 14.3926 42.0443 14.4561L41.8665 15.0908H41.3905C40.5147 15.0908 40.0069 15.0083 39.112 15.0083C38.2171 15.0083 37.208 15.0908 37.0303 15.0908C36.9707 15.0925 36.9129 15.071 36.869 15.0307C36.8251 14.9903 36.7987 14.9345 36.7955 14.875C36.7453 14.645 36.7453 14.4069 36.7955 14.1769L37.519 14.1896Z" fill="white"/>
<path d="M58.5843 7.25201C59.6378 7.25201 60.3804 7.25201 60.8374 7.20759C62.3035 7.0743 62.3289 7.09969 62.6145 5.76052C62.8534 5.68108 63.1065 5.65296 63.3571 5.67801C63.2936 6.31269 63.2047 7.31548 63.2047 7.97555C63.2047 8.63562 63.2682 9.35281 63.338 10.0319C63.1713 10.0697 63.0012 10.091 62.8303 10.0954C62.7033 10.0954 62.6335 10.051 62.6145 9.91767C62.5078 9.64883 62.4271 9.37043 62.3733 9.08624C62.221 8.49599 62.0242 8.36905 61.1039 8.28019C60.6406 8.23577 59.8346 8.23577 58.6985 8.23577C57.5624 8.23577 57.2959 8.23577 57.188 8.23577C57.1 8.25125 57.0209 8.29873 56.9658 8.36905C56.7705 9.23037 56.6978 10.115 56.75 10.9966C56.75 12.6341 56.75 13.2497 56.9912 13.5798C57.2959 14.0558 57.994 14.1002 59.9679 14.1002C62.3733 14.1002 63.8585 14.0177 64.4931 11.6503C64.6745 11.6295 64.8576 11.6295 65.039 11.6503C65.1088 11.6948 65.1088 11.7138 65.1088 11.8027C65.0589 12.8783 64.8293 13.9381 64.4297 14.938C64.3218 15.0713 64.2773 15.1157 64.1694 15.1157H63.1159C62.3923 15.1157 60.8628 15.0713 59.0032 15.0713C57.2514 15.0713 55.4997 15.1347 53.7099 15.1982C53.6689 14.9743 53.654 14.7464 53.6655 14.5191C53.6718 14.4929 53.6852 14.469 53.7042 14.4499C53.7233 14.4309 53.7472 14.4175 53.7734 14.4112C54.7825 14.2145 54.846 14.0621 54.865 13.7131C54.9898 12.4032 55.0428 11.0874 55.0237 9.7717V6.00169C55.0631 4.5992 55.0101 3.19564 54.865 1.80011C54.865 1.64779 54.8206 1.60336 54.5858 1.53989C54.3509 1.47642 53.9511 1.38757 53.5132 1.25429C53.4434 1.25429 53.4434 1.25429 53.4434 1.16543L53.5132 0.619606C53.5132 0.530751 53.5132 0.51171 53.6401 0.51171H54.3192C55.0428 0.51171 55.8742 0.556138 57.207 0.556138H59.3522C60.7549 0.556138 62.3479 0.448242 63.4459 0.448242C63.7506 0.448242 63.8838 0.448242 63.9917 0.556138C64.0996 0.664034 64.1885 0.664033 64.125 1.05753C63.9709 2.02083 63.8966 2.9952 63.9029 3.97072C63.2682 3.97072 63.2238 3.92629 63.2047 3.77397C62.9636 2.13014 62.8303 1.40661 61.0405 1.40661H59.4411C58.6579 1.36839 57.8729 1.41306 57.0991 1.53989C56.8389 1.60336 56.7691 1.7176 56.7691 2.28247C56.7691 3.81839 56.8135 5.3924 56.8135 6.92198C56.8135 7.11873 56.9214 7.25201 57.0991 7.25201H58.5843Z" fill="white"/>
<path d="M81.3177 15.3249C81.2083 15.0841 81.1562 14.8213 81.1653 14.5569C81.11 13.4564 80.9849 12.3604 80.7909 11.2756C80.7464 11.1424 80.7909 11.0789 80.8797 11.0599C81.0539 11.0317 81.23 11.0168 81.4065 11.0154C81.5144 11.0154 81.5588 11.0154 81.6033 11.2566C81.7272 11.7787 81.942 12.275 82.2379 12.7227C82.6844 13.2804 83.2504 13.7307 83.8941 14.0404C84.5378 14.3502 85.2428 14.5115 85.9572 14.5125C87.9691 14.5125 89.3717 13.2432 89.3717 11.428C89.3625 11.052 89.2645 10.6836 89.0859 10.3527C88.9072 10.0218 88.6528 9.73785 88.3436 9.52393C87.9056 9.14947 87.3598 8.88925 85.5446 8.16572C83.8818 7.53104 82.8726 7.04868 82.1745 6.21725C81.6858 5.62195 81.4011 4.88561 81.3621 4.11646C81.3297 3.46393 81.4884 2.81613 81.8187 2.25245C82.149 1.68878 82.6366 1.23372 83.2217 0.943056C84.244 0.447115 85.3667 0.193036 86.503 0.20048C87.2147 0.215871 87.9248 0.27522 88.6292 0.37819C88.8151 0.416615 89.0042 0.437861 89.194 0.441658C89.3717 0.441658 89.5685 0.244908 89.7652 0.0291162C89.9537 -0.00970542 90.148 -0.00970542 90.3365 0.0291162C90.2683 1.17741 90.3343 2.32974 90.5332 3.46274C90.5332 3.62141 90.5332 3.68487 90.4444 3.7293C90.2744 3.83451 90.0907 3.91568 89.8985 3.97048C89.7843 3.97048 89.7843 3.97048 89.7652 3.85624C89.5241 3.06923 89.3908 2.30762 88.7561 1.79987C87.9563 1.26514 87.0073 0.998433 86.046 1.03826C84.2943 1.03826 83.2027 2.06644 83.2027 3.48812C83.2216 4.07888 83.446 4.64452 83.8373 5.08752C84.3197 5.65238 85.0369 6.00146 86.7442 6.66152C88.3182 7.2962 89.3717 7.75317 90.1143 8.47671C90.4967 8.80266 90.8013 9.21016 91.0056 9.66925C91.2099 10.1283 91.3087 10.6274 91.2948 11.1297C91.3149 11.8231 91.1452 12.5088 90.8041 13.1128C90.4629 13.7168 89.9633 14.2162 89.359 14.5569C88.175 15.0566 86.9058 15.3237 85.6208 15.3439C84.6282 15.3248 83.6389 15.2229 82.6632 15.0393C82.5446 14.9945 82.4137 14.9945 82.2951 15.0393C82.1618 15.1028 81.965 15.2361 81.8127 15.3186C81.7737 15.3635 81.7261 15.4001 81.6727 15.4263C81.6192 15.4524 81.5611 15.4676 81.5017 15.4709C81.4509 15.4963 81.4065 15.4772 81.3177 15.3249Z" fill="white"/>
<path d="M113.325 7.44921C113.29 9.68923 112.378 11.8263 110.786 13.4025C109.517 14.6549 107.821 15.3805 106.039 15.4335C104.829 15.4313 103.633 15.1864 102.52 14.7132C101.406 14.2401 100.4 13.5483 99.5588 12.679C98.3733 11.2508 97.7165 9.45755 97.6992 7.60153C97.7017 6.56397 97.9301 5.53939 98.3685 4.599C98.8069 3.65861 99.4448 2.82496 100.238 2.15598C101.719 0.866844 103.612 0.15083 105.576 0.137695C109.669 0.137695 113.325 3.35552 113.325 7.44921ZM101.469 2.65738C100.244 4.01559 99.9143 6.091 99.9143 7.3794C99.8747 9.26157 100.574 11.0843 101.863 12.4568C102.432 13.0943 103.129 13.6051 103.909 13.956C104.689 14.307 105.533 14.4903 106.388 14.4942C108.711 14.4942 111.224 12.368 111.224 8.41393C111.287 6.33335 110.525 4.31237 109.104 2.79066C108.584 2.21315 107.945 1.75525 107.23 1.44847C106.516 1.14169 105.743 0.993316 104.966 1.01355C104.301 1.02665 103.645 1.17979 103.043 1.46301C102.44 1.74624 101.904 2.15319 101.469 2.65738Z" fill="white"/>
<path d="M119.735 14.3599C121.005 14.2076 121.379 14.0997 121.462 13.2873C121.462 12.9637 121.551 11.8657 121.551 9.80929V6.28681C121.551 3.83695 121.551 2.17409 121.354 1.62826C121.22 1.29823 121.024 1.23476 119.799 1.23476C119.672 1.23476 119.646 1.19033 119.646 1.10148C119.671 0.875615 119.747 0.658391 119.869 0.466797C120.281 0.466797 121.417 0.530264 122.185 0.530264H125.359C126.901 0.470834 128.421 0.916524 129.687 1.79962C130.156 2.17469 130.539 2.64684 130.808 3.18365C131.078 3.72047 131.228 4.30924 131.248 4.90956C131.248 5.53029 131.113 6.14352 130.852 6.7068C130.591 7.27007 130.211 7.76995 129.738 8.17181C128.469 9.44117 126.501 9.87276 124.464 9.87276H123.416C123.328 9.87276 123.22 9.94257 123.22 10.5074C123.22 11.0723 123.22 12.1259 123.328 13.0462C123.372 13.5729 123.48 13.903 123.962 14.0109C124.292 14.0997 124.946 14.1886 125.625 14.3155C125.777 14.3155 125.803 14.3599 125.803 14.4488C125.799 14.647 125.778 14.8446 125.739 15.0391C123.702 15.0391 122.566 15.0391 122.128 15.0391C121.189 15.0391 120.51 15.0835 119.957 15.1216C119.875 15.1216 119.85 15.1216 119.831 14.9692L119.735 14.3599ZM125.098 1.29823C124.07 1.29823 123.696 1.43151 123.607 1.52037C123.518 1.60922 123.455 1.67269 123.436 2.02176C123.391 2.82781 123.283 7.25153 123.283 8.47646C123.283 8.76207 123.347 8.84457 123.651 8.91439C124.028 9.02683 124.42 9.07826 124.813 9.06671C125.441 9.06985 126.066 8.98873 126.672 8.82553C127.425 8.54956 128.07 8.0434 128.518 7.37907C128.966 6.71474 129.193 5.92609 129.167 5.12535C129.167 4.68742 129.256 1.29823 125.098 1.29823Z" fill="white"/>
<path d="M147.808 7.22662C148.989 7.22662 150.347 7.22662 150.652 7.22662C150.956 7.22662 150.893 7.09334 150.893 6.35077V4.51654C150.893 3.02504 150.893 2.70135 150.893 2.32689C150.81 1.53989 150.499 1.45103 149.23 1.23524C149.213 1.00298 149.252 0.770013 149.344 0.556135H151.642C151.946 0.556135 152.429 0.556135 152.911 0.511708C153.393 0.46728 153.787 0.422852 153.939 0.422852C154.092 0.422852 154.136 0.422852 154.18 0.530747C154.275 0.706509 154.328 0.902222 154.333 1.10196C153.108 1.27967 152.911 1.38757 152.848 2.02225C152.778 2.54903 152.714 4.27536 152.714 5.54472V9.56859C152.697 10.7802 152.742 11.9919 152.848 13.199C152.892 13.8781 153 14.0558 154.377 14.2335C154.373 14.5098 154.299 14.7806 154.161 15.0205H151.178C149.972 15.0205 149.642 15.084 149.446 15.084C149.363 15.084 149.293 15.084 149.293 15.0205V14.3414C150.15 14.1891 150.74 14.0558 150.804 13.7956C150.905 12.7176 150.941 11.6346 150.912 10.5523V8.82602C150.923 8.74329 150.914 8.65919 150.888 8.58005C150.862 8.5009 150.818 8.42876 150.759 8.36905C150.626 8.28019 150.41 8.28019 147.935 8.28019H144.762C141.83 8.28019 141.48 8.28019 141.265 8.32462C140.935 8.36905 140.909 8.5658 140.909 8.9593C140.909 10.4889 140.909 11.6503 140.954 12.6341C140.954 13.4021 141.043 13.7511 141.22 13.9035C141.398 14.0558 141.525 14.1002 142.49 14.297C142.661 14.3414 142.705 14.3668 142.705 14.4747C142.705 14.5826 142.75 15.1094 142.705 15.1094C142.026 15.1094 140.757 15.0268 139.729 15.0268C138.701 15.0268 138.021 15.1094 137.977 15.1094C137.915 15.1197 137.852 15.106 137.799 15.0713C137.71 14.8719 137.666 14.655 137.672 14.4366C138.789 14.151 139.05 13.9796 139.113 13.3449C139.113 13.0339 139.183 12.2279 139.183 9.93036V5.87475C139.183 3.72954 139.183 2.94253 139.183 2.28246C139.183 1.6224 138.853 1.43199 137.653 1.25428C137.64 1.03892 137.671 0.823126 137.742 0.619603C137.787 0.556135 137.806 0.530747 137.895 0.530747C138.682 0.530747 139.361 0.530747 140.014 0.530747C140.452 0.530747 140.801 0.530747 141.15 0.530747C141.499 0.530747 141.874 0.492667 142.356 0.46728C142.414 0.711487 142.414 0.965649 142.356 1.20986C141.442 1.3241 141.131 1.43199 141.049 1.95878C140.929 3.10553 140.891 4.2593 140.935 5.41144C140.935 7.20758 140.935 7.22662 141.354 7.22662H147.808Z" fill="white"/>
<path d="M167.147 1.19083C165.198 1.3622 164.868 1.55895 164.83 1.99688C164.677 3.27496 164.624 4.56305 164.671 5.84939V9.76536C164.671 11.4536 164.741 12.6532 164.805 13.4402C164.849 13.9923 165.001 14.0748 165.395 14.1193L166.493 14.2716C166.664 14.2716 166.753 14.3604 166.753 14.4303C166.72 14.6458 166.669 14.8581 166.601 15.0649C164.76 15.0205 163.821 15.0205 163.034 15.0205L160.952 15.084C160.893 15.0906 160.834 15.0773 160.783 15.0463C160.732 15.0152 160.694 14.9682 160.673 14.9126C160.625 14.7041 160.595 14.4917 160.584 14.2779C162.291 14.2145 162.64 14.1066 162.748 13.5354C162.893 12.2205 162.938 10.8966 162.882 9.57496V5.25913C162.882 1.86994 162.882 1.55895 162.247 1.45105C161.827 1.38758 161.402 1.35153 160.977 1.34316C160.94 1.34526 160.904 1.33526 160.873 1.31465C160.842 1.29405 160.818 1.26396 160.806 1.22892C160.79 1.0688 160.828 0.907848 160.914 0.771946C160.977 0.619623 161.022 0.575195 161.092 0.575195H163.757C164.919 0.575195 166.448 0.575195 166.671 0.575195C166.893 0.575195 166.994 0.575195 167.02 0.66405L167.147 1.19083Z" fill="white"/>
<path d="M178.481 7.25201C179.528 7.25201 180.271 7.25201 180.734 7.20759C182.2 7.0743 182.22 7.09969 182.505 5.76052C182.744 5.68108 182.997 5.65296 183.248 5.67801C183.184 6.31269 183.095 7.31548 183.095 7.97555C183.095 8.63562 183.159 9.35281 183.229 10.0319C183.062 10.0697 182.892 10.091 182.721 10.0954C182.594 10.0954 182.524 10.051 182.505 9.91767C182.398 9.64883 182.318 9.37043 182.264 9.08624C182.112 8.49599 181.915 8.36905 180.995 8.28019C180.538 8.23577 179.725 8.23577 178.589 8.23577C177.453 8.23577 177.186 8.23577 177.079 8.23577C176.991 8.25125 176.912 8.29873 176.856 8.36905C176.661 9.23037 176.588 10.115 176.641 10.9966C176.641 12.6341 176.641 13.2497 176.882 13.5798C177.186 14.0558 177.885 14.1002 179.858 14.1002C182.264 14.1002 183.749 14.0177 184.384 11.6503C184.567 11.6296 184.752 11.6296 184.936 11.6503C184.999 11.6948 184.999 11.7138 184.999 11.8027C184.949 12.8783 184.72 13.9381 184.32 14.938C184.212 15.0713 184.168 15.1157 184.06 15.1157H183.007C182.283 15.1157 180.753 15.0713 178.894 15.0713C177.142 15.0713 175.39 15.1347 173.601 15.1982C173.56 14.9743 173.545 14.7464 173.556 14.5191C173.562 14.4929 173.576 14.469 173.595 14.4499C173.614 14.4309 173.638 14.4175 173.664 14.4112C174.673 14.2145 174.737 14.0621 174.756 13.7131C174.88 12.4032 174.933 11.0874 174.914 9.7717V6.00169C174.954 4.5992 174.901 3.19564 174.756 1.80011C174.756 1.64779 174.718 1.60336 174.476 1.53989C174.235 1.47642 173.842 1.38757 173.404 1.25429C173.334 1.25429 173.334 1.25429 173.334 1.16543L173.404 0.619606C173.404 0.530751 173.404 0.51171 173.531 0.51171H174.21C174.933 0.51171 175.765 0.556138 177.098 0.556138H179.243C180.645 0.556138 182.239 0.448242 183.337 0.448242C183.641 0.448242 183.774 0.448242 183.882 0.556138C183.99 0.664034 184.079 0.664033 184.016 1.05753C183.862 2.02083 183.787 2.9952 183.794 3.97072C183.159 3.97072 183.114 3.92629 183.095 3.77397C182.854 2.13014 182.721 1.40661 180.931 1.40661H179.332C178.549 1.36872 177.764 1.41339 176.99 1.53989C176.73 1.60336 176.66 1.7176 176.66 2.28247C176.66 3.81839 176.704 5.3924 176.704 6.92198C176.699 6.96286 176.702 7.00442 176.714 7.04392C176.726 7.08341 176.746 7.11995 176.773 7.15113C176.8 7.18231 176.833 7.20742 176.87 7.22481C176.908 7.2422 176.949 7.25147 176.99 7.25201H178.481Z" fill="white"/>
</svg>
