<svg width="130" height="24" viewBox="0 0 130 24" fill="none" xmlns="http://www.w3.org/2000/svg">
<path d="M97.6961 0.80333H110.303L109.971 1.8919C109.971 1.8919 109.484 1.8919 108.177 1.8919C106.773 1.8919 106.228 3.09968 106.094 3.57658L103.061 13.41C102.631 14.8095 102.221 16.5823 101.999 17.8057C101.817 18.9357 101.838 22.4036 108.52 22.4036C114.533 22.4036 117.627 18.5262 118.944 14.4311C120.167 10.6315 121.52 4.96061 121.971 3.54029C122.334 2.40508 121.38 1.8919 120.867 1.8919H118.42L118.731 0.80333H129.477L129.13 1.89708C129.13 1.89708 128.046 1.8919 127.362 1.8919C126.325 1.8919 125.517 2.62279 125.309 3.2863C124.801 4.95543 122.469 10.8492 121.095 15.0065C119.514 19.791 114.781 23.8498 107.213 23.8498C104.958 23.8498 101.791 23.3625 99.8266 22.3828C97.919 21.3772 96.8927 19.3297 96.9808 17.194C96.9808 17.194 97.0948 16.007 97.4318 14.8873C97.7739 13.7676 100.791 4.04829 100.967 3.40034C101.117 2.85605 100.734 1.8919 99.7955 1.8919L97.3488 1.89708L97.6961 0.80333ZM0.331753 22.1081H1.98015C2.90802 22.1081 4.01732 21.8178 4.46312 20.5841C4.86744 19.4593 11.2019 3.58695 11.2019 3.58695C8.4286 2.21328 5.12662 2.02149 1.9335 1.8919L2.37929 0.80333H8.47526C12.0675 0.80333 14.6075 1.30614 16.2144 2.07851C18.9203 3.3796 21.1544 5.30792 22.7614 7.04444C27.1519 11.7823 29.5468 17.251 29.8993 18.35L33.8647 3.62842C34.0928 2.85605 33.7766 1.8919 32.7554 1.8919H30.3036L30.6405 0.80333H41.2566L40.9093 1.8919H39.3335C37.9132 1.8919 37.3119 2.73683 37.0579 3.54548C36.7624 4.4889 30.3243 23.1967 30.3243 23.1967H25.4517C25.4517 23.1967 24.3217 18.3292 20.0607 11.8963C16.655 6.75934 12.8658 4.4578 12.8658 4.4578C12.8658 4.4578 8.19534 19.6303 7.94134 20.5012C7.68216 21.372 8.2731 22.1029 9.06619 22.1029H11.5388L11.207 23.1915H0L0.331753 22.1081ZM55.9315 0.00504922C48.1664 0.150191 39.5979 3.52474 37.4518 11.8963C35.311 20.242 41.5728 24.1608 50.4731 23.995C58.2331 23.8498 66.8068 20.4753 68.9528 12.1037C71.0937 3.75801 64.8266 -0.160827 55.9315 0.00504922ZM63.1938 12.622C60.8301 20.102 54.9725 22.6628 50.2191 22.5332C45.7042 22.4088 40.5983 19.6148 43.2057 11.3728C45.5694 3.89797 51.4269 1.33206 56.1803 1.46165C60.6953 1.58606 65.8012 4.38523 63.1938 12.622Z" fill="white"/>
<path d="M69.7821 20.5427C69.5333 21.3462 68.8698 22.1082 67.7034 22.1082C67.1799 22.1082 65.6455 22.1082 65.6455 22.1082L65.3086 23.2019H81.0824C87.6708 23.2019 92.4761 21.6676 93.6113 17.7228C94.6428 14.1461 91.5637 12.2178 87.8523 11.7305C93.0929 11.1085 95.4204 9.0454 96.0165 6.78533C96.82 3.74772 94.1659 0.808594 87.6086 0.808594H71.7674L71.4305 1.89716H73.8616C74.5769 1.89716 75.313 2.54511 75.0227 3.48854C74.6703 4.65486 70.0516 19.6719 69.7821 20.5427ZM80.6055 2.12006H84.6021C89.3814 2.12006 91.372 4.00172 90.6877 6.62464C89.8065 10.0251 86.3386 10.9685 82.7723 10.9685C80.9425 10.9685 77.91 10.9634 77.91 10.9634L80.6055 2.12006ZM79.5947 21.8801H76.1372C75.1938 21.8801 74.8361 20.9522 75.002 20.3924C75.1316 19.9466 77.5316 12.2644 77.5316 12.2644C77.5316 12.2644 81.2794 12.2696 82.5494 12.2696C87.676 12.2696 89.2207 14.7059 88.6039 17.1578C88.1374 18.9773 86.1831 21.8801 79.5947 21.8801Z" fill="white"/>
</svg>
