<svg width="123" height="72" viewBox="0 0 123 72" fill="none" xmlns="http://www.w3.org/2000/svg">
<path d="M92.2427 49.0932L70.9673 0L61.4954 21.8562L52.0235 0L30.748 49.0932H53.0313L56.3708 41.4491H66.6199L69.9338 49.0932H92.2427ZM70.9673 7.68683L87.5794 46.0356H71.9751L63.2036 25.7082L70.9673 7.68683ZM65.3217 38.4342H57.6349L61.4954 29.5516L65.3217 38.4342ZM51.0157 46.0356H35.4114L52.0235 7.68683L59.8299 25.7082L51.0157 46.0356Z" fill="white"/>
<path d="M10.4199 71.7442L10.2491 64.3392L6.37153 70.2153H6.1153L2.20356 64.3221L2.0669 71.7442H0L0.520996 59.2744H0.837011L6.3032 67.4395L11.6327 59.2744H11.9658L12.4868 71.7442H10.4199Z" fill="white"/>
<path d="M25.4526 71.7434L24.2654 68.9249H19.3886L18.1928 71.7434H16.0234L21.7032 59.2651H22.0106L27.6733 71.7434H25.4526ZM21.8227 63.1086L20.1145 67.2253H23.5736L21.8227 63.1086Z" fill="white"/>
<path d="M34.5985 67.747C34.1886 67.747 33.7444 67.747 33.3686 67.6958V71.7442H31.2676V59.5136C32.3043 59.38 33.3483 59.3116 34.3936 59.3086C37.8099 59.3086 39.5181 61.162 39.5181 63.4595C39.501 65.9705 37.7416 67.747 34.5985 67.747ZM34.7437 61.2474C34.2838 61.2478 33.8244 61.2792 33.3686 61.3413V65.8509C33.7872 65.8509 34.2227 65.9193 34.5473 65.9193C36.4434 65.9193 37.3146 64.9285 37.3146 63.5278C37.3144 63.2031 37.2455 62.8821 37.1123 62.586C36.9791 62.2898 36.7846 62.0253 36.5417 61.8098C36.2987 61.5943 36.0129 61.4328 35.703 61.3359C35.3931 61.2389 35.0661 61.2088 34.7437 61.2474Z" fill="white"/>
<path d="M43.3457 71.7442V59.394H45.4468V69.7969H50.8532V71.7442H43.3457Z" fill="white"/>
<path d="M54.6016 71.7442V59.394H62.109V61.3158H56.7026V64.5357H61.588V66.3891H56.7026V69.8054H62.109V71.7442H54.6016Z" fill="white"/>
<path d="M77.5247 68.0795C78.2898 67.3105 79.0032 66.4916 79.6599 65.6282L81.035 66.7556C80.363 67.6224 79.6445 68.452 78.8827 69.241L80.6677 70.6674L79.4293 71.9997C78.7717 71.4788 78.1396 70.9748 77.5332 70.4709C76.4946 71.3376 75.203 71.8441 73.8521 71.9143C71.5802 71.9143 69.7695 70.5734 69.7695 68.4382C69.7695 66.9264 70.8799 65.7307 72.4258 65.0731C71.9077 64.3377 71.6113 63.4692 71.5717 62.5706C71.5794 62.119 71.6766 61.6734 71.8577 61.2596C72.0387 60.8458 72.3 60.472 72.6265 60.1598C72.9529 59.8477 73.338 59.6034 73.7595 59.441C74.181 59.2787 74.6305 59.2015 75.082 59.214C75.4998 59.1851 75.9191 59.2406 76.315 59.3774C76.7108 59.5141 77.0751 59.7292 77.386 60.0098C77.6969 60.2904 77.948 60.6307 78.1245 61.0105C78.3009 61.3904 78.399 61.8018 78.4129 62.2204C78.4129 63.7492 77.3026 65.0047 75.2016 65.7819C75.9156 66.6065 76.6923 67.3746 77.5247 68.0795ZM73.3055 66.3713C72.906 66.5231 72.5606 66.7899 72.3128 67.1381C72.065 67.4862 71.926 67.9 71.9133 68.3271C71.9144 68.5891 71.9702 68.8479 72.0772 69.087C72.1842 69.3261 72.34 69.5402 72.5347 69.7156C72.7293 69.8909 72.9584 70.0236 73.2074 70.1051C73.4563 70.1867 73.7196 70.2153 73.9802 70.1891C74.7644 70.1374 75.5119 69.8383 76.1154 69.335C75.101 68.4362 74.1612 67.4565 73.3055 66.4054V66.3713ZM76.4656 62.3485C76.4776 62.1636 76.4508 61.9782 76.387 61.8042C76.3233 61.6302 76.2239 61.4714 76.0953 61.3379C75.9667 61.2045 75.8117 61.0994 75.6401 61.0293C75.4686 60.9591 75.2843 60.9256 75.0991 60.9307C74.8893 60.9423 74.6842 60.9964 74.4959 61.0895C74.3076 61.1826 74.1402 61.313 74.0037 61.4726C73.8672 61.6323 73.7645 61.8179 73.7017 62.0184C73.639 62.2188 73.6175 62.4299 73.6386 62.6389C73.6719 63.3169 73.9036 63.9703 74.3048 64.5179C75.5944 64.0567 76.4656 63.2795 76.4656 62.3485Z" fill="white"/>
<path d="M95.6587 71.7434L94.463 68.9249H89.5946L88.3989 71.7434H86.2637L91.9434 59.2651H92.2423L97.9135 71.7434H95.6587ZM92.0288 63.1427L90.2779 67.2594H93.7711L92.0288 63.1427Z" fill="white"/>
<path d="M104.788 71.9141C103.412 71.8858 102.073 71.465 100.928 70.7013L101.645 68.8223C102.573 69.5232 103.694 69.9226 104.857 69.9668C106.155 69.9668 106.718 69.2067 106.718 68.3526C106.718 67.4985 106.351 66.9604 104.404 66.1319C102.252 65.2266 101.483 64.1163 101.483 62.6387C101.483 60.8536 102.96 59.2223 105.531 59.2223C106.621 59.2148 107.692 59.5105 108.623 60.0764L107.948 61.9212C107.221 61.4131 106.366 61.1173 105.48 61.0672C104.182 61.0672 103.584 61.776 103.584 62.596C103.584 63.4159 104.182 63.9113 105.711 64.5775C108.153 65.6365 108.854 66.6273 108.854 68.2415C108.854 70.2145 107.325 71.9141 104.788 71.9141Z" fill="white"/>
<path d="M120.887 71.7442V66.4232H115.224V71.7442H113.123V59.394H115.224V64.5186H120.887V59.394H122.988V71.7442H120.887Z" fill="white"/>
</svg>
