<svg width="217" height="84" viewBox="0 0 217 84" fill="none" xmlns="http://www.w3.org/2000/svg">
<path d="M213.875 79.6288L206.845 71.5623H202.113V72.1932C203.555 72.1932 203.736 72.3735 203.736 73.5902V80.3499C203.736 82.7833 203.24 83.0087 202.068 83.0087V83.6396H206.44V83.0087C205.043 83.0087 204.592 82.6932 204.592 81.2962V73.3649L214.01 84.0001H214.731V73.9057C214.731 72.4185 215.543 72.2383 216.309 72.2383V71.6074H211.937V72.2383C213.019 72.2383 213.875 72.4636 213.875 73.8606V79.6288Z" fill="white"/>
<path d="M193.146 71.2469C189.901 71.2469 186.566 73.3649 186.566 77.601C186.566 81.837 189.901 83.955 193.146 83.955C196.39 83.955 199.725 81.837 199.725 77.601C199.725 73.3649 196.39 71.2469 193.146 71.2469ZM193.146 83.4143C190.893 83.4143 189.856 81.3864 189.856 77.646C189.856 73.9057 190.893 71.8778 193.146 71.8778C195.399 71.8778 196.436 73.9057 196.436 77.646C196.436 81.3864 195.399 83.4143 193.146 83.4143Z" fill="white"/>
<path d="M177.193 82.0172C177.193 82.8734 176.923 82.9635 175.661 82.9635V83.5944H181.7V82.9635C180.438 82.9635 180.168 82.8734 180.168 82.0172V72.779C180.154 72.693 180.16 72.6049 180.187 72.5219C180.214 72.439 180.26 72.3636 180.321 72.302C180.383 72.2404 180.458 72.1943 180.541 72.1675C180.624 72.1407 180.712 72.1341 180.798 72.1481C181.835 72.1481 183.592 73.0944 184.584 74.9421L185.035 74.7618L184.313 71.2017H183.863C183.49 71.4064 183.072 71.5148 182.646 71.5172H174.67C174.457 71.5093 174.245 71.4791 174.039 71.427C173.852 71.3683 173.671 71.2928 173.498 71.2017H173.047L172.326 74.7618L172.777 74.9421C173.768 73.0494 175.526 72.1481 176.562 72.1481C176.648 72.1341 176.737 72.1407 176.819 72.1675C176.902 72.1943 176.978 72.2404 177.039 72.302C177.101 72.3636 177.147 72.439 177.174 72.5219C177.201 72.6049 177.207 72.693 177.193 72.779V82.0172ZM162.683 82.0172C162.683 82.8734 162.412 82.9635 161.15 82.9635V83.5944H172.552L173.453 80.0794H172.912C171.245 82.5129 170.163 82.9635 167.279 82.9635C165.927 82.9635 165.702 82.7382 165.702 82.1073V73.1395C165.702 72.2833 165.972 72.1931 167.234 72.1931V71.5622H161.195V72.1931C162.457 72.1931 162.728 72.2833 162.728 73.1395V82.0172" fill="white"/>
<path d="M157.455 81.7919L155.472 78.6825C154.977 77.9164 154.526 77.646 153.895 77.6009V77.5559C155.833 77.4207 157.005 76.4292 157.005 74.9421C157.005 73.455 155.653 71.6074 151.732 71.6074H145.693V72.2383C146.955 72.2383 147.226 72.3284 147.226 73.1846V82.0623C147.226 82.9185 146.955 83.0086 145.693 83.0086V83.6395H151.732V83.0086C150.47 83.0086 150.2 82.9185 150.2 82.0623V77.8262C151.462 77.8262 151.912 78.0065 152.228 78.5923L155.022 83.6395H159.168V83.0086C158.537 83.0086 158.176 82.9185 157.455 81.7919ZM151.281 77.2404H150.245V72.1932H150.921C153.399 72.1932 154.03 73.6353 154.03 74.7168C154.03 76.6095 152.723 77.2404 151.281 77.2404Z" fill="white"/>
<path d="M142.358 81.7018L137.266 71.9229C137.041 71.5623 136.95 71.4271 136.86 71.4271C136.68 71.4271 136.319 72.3735 134.832 73.3649C134.939 73.4094 135.03 73.4845 135.094 73.5807C135.159 73.677 135.193 73.79 135.193 73.9057C135.172 74.111 135.111 74.3102 135.013 74.4915L131.948 80.8456C131.182 82.4679 130.686 83.0087 129.56 83.0087V83.6396H133.931V83.0087C132.759 83.0087 132.309 82.6932 132.309 82.1975C132.309 81.9271 132.444 81.4314 133.03 80.5301H138.528C139.294 81.6568 139.429 82.2877 139.429 82.4679C139.429 82.8735 139.068 82.9636 137.807 82.9636V83.5945H144.341V82.9636C143.214 83.0087 142.944 82.7383 142.358 81.7018ZM133.3 79.8091L135.689 74.7619L138.167 79.8091H133.3ZM127.081 79.4937C126.045 81.6568 124.422 83.3241 122.44 83.3241C120.592 83.3241 118.564 81.9271 118.564 77.601C118.564 73.6353 120.186 71.8778 122.53 71.8778C124.738 71.8778 126.09 73.3649 127.036 75.1675H127.532V71.3821H127.126C127.028 71.5322 126.895 71.6559 126.738 71.7423C126.58 71.8288 126.404 71.8753 126.225 71.8778C125.504 71.8778 124.017 71.2469 122.259 71.2469C117.978 71.2469 115.274 74.0859 115.274 77.8263C115.274 81.161 118.023 83.955 121.899 83.955C124.107 83.955 125.684 83.1439 126.225 83.1439C126.631 83.1439 126.946 83.4143 127.126 83.955H127.532V79.4937H127.081Z" fill="white"/>
<path d="M89.9038 83.6395H100.404L101.666 79.9893H101.17C99.4124 82.3326 98.3308 83.0537 96.6184 83.0537H93.6441L101.26 71.8777V71.5622H90.9403L89.8137 74.9421H90.2192C91.6162 73.0944 93.0583 72.1931 94.6806 72.1931H97.4295L89.8587 83.1888V83.6395H89.9038ZM80.5755 82.0172C80.5755 82.8734 80.3051 82.9635 79.0433 82.9635V83.5944H85.0819V82.9635C83.8201 82.9635 83.5497 82.8734 83.5497 82.0172V72.779C83.5357 72.693 83.5424 72.6049 83.5691 72.5219C83.5959 72.439 83.642 72.3636 83.7036 72.302C83.7652 72.2404 83.8406 72.1943 83.9236 72.1675C84.0065 72.1407 84.0946 72.1341 84.1806 72.1481C85.2171 72.1481 86.9746 73.0944 87.966 74.9421L88.4167 74.7618L87.6956 71.2017H87.1999C86.8269 71.4064 86.4087 71.5148 85.9832 71.5172H78.0068C77.7939 71.5093 77.5825 71.4791 77.3759 71.427C77.1893 71.3683 77.0083 71.2928 76.8351 71.2017H76.3394L75.6184 74.7618L76.069 74.9421C77.0604 73.0494 78.818 72.1481 79.8544 72.1481C79.9404 72.1341 80.0286 72.1407 80.1115 72.1675C80.1944 72.1943 80.2698 72.2404 80.3314 72.302C80.3931 72.3636 80.4391 72.439 80.4659 72.5219C80.4927 72.6049 80.4993 72.693 80.4853 72.779V82.0172H80.5755ZM69.6699 82.0172C69.6699 82.8734 69.3995 82.9635 68.1377 82.9635V83.5944H74.1763V82.9635C72.9145 82.9635 72.6441 82.8734 72.6441 82.0172V73.1395C72.6441 72.2833 72.9145 72.1931 74.1763 72.1931V71.5622H68.1377V72.1931C69.3995 72.1931 69.6699 72.2833 69.6699 73.1395V82.0172Z" fill="white"/>
<path d="M64.7575 81.7919L62.7747 78.6824C62.279 77.9163 61.8283 77.6459 61.1974 77.6009V77.5558C63.1352 77.4206 64.3069 76.4292 64.3069 74.9421C64.3069 73.4549 62.9549 71.6073 59.0343 71.6073H52.9957V72.2382C54.2575 72.2382 54.5279 72.3283 54.5279 73.1846V82.0622C54.5279 82.9185 54.2575 83.0086 52.9957 83.0086V83.6395H59.0343V83.0086C57.7725 83.0086 57.5021 82.9185 57.5021 82.0622V77.8262C58.7639 77.8262 59.2146 78.0064 59.53 78.5923L62.324 83.6395H66.47V83.0086C65.8391 83.0086 65.4785 82.9185 64.7575 81.7919ZM58.5837 77.2404H57.5472V72.1931H58.2232C60.7017 72.1931 61.3326 73.6352 61.3326 74.7167C61.3326 76.6094 60.0257 77.2404 58.5837 77.2404ZM33.8433 82.0172C33.8433 82.8734 33.573 82.9635 32.3112 82.9635V83.5944H43.4421L44.3884 80.0794H43.8476C42.4957 82.3326 41.1438 82.9635 38.7103 82.9635C37.088 82.9635 36.8627 82.7382 36.8627 82.2425V77.691H37.6738C39.8369 77.691 40.8283 78.2768 41.1888 79.9893H41.6845V74.6266H41.1888C40.6931 76.4292 39.882 77.0601 37.6738 77.0601H36.8627V72.9592C36.8627 72.2833 37.088 72.1931 37.9442 72.1931C40.6481 72.1931 41.9549 72.9592 43.6674 74.8519H44.1631L42.9464 71.5622H32.3112V72.1931C33.573 72.1931 33.8433 72.2833 33.8433 73.1395V82.0172ZM25.2811 82.0172C25.2811 82.8734 25.0107 82.9635 23.7489 82.9635V83.5944H29.7876V82.9635C28.5257 82.9635 28.2554 82.8734 28.2554 82.0172V73.1395C28.2554 72.2833 28.5257 72.1931 29.7876 72.1931V71.5622H23.7489V72.1931C25.0107 72.1931 25.2811 72.2833 25.2811 73.1395V76.8348H19.1073V73.1395C19.1073 72.2833 19.3777 72.1931 20.6395 72.1931V71.5622H14.6009V72.1931C15.8627 72.1931 16.133 72.2833 16.133 73.1395V82.0172C16.133 82.8734 15.8627 82.9635 14.6009 82.9635V83.5944H20.6395V82.9635C19.3777 82.9635 19.1073 82.8734 19.1073 82.0172V77.691H25.236V82.0172H25.2811ZM4.91202 82.0172C4.91202 82.8734 4.64163 82.9635 3.37983 82.9635V83.5944H9.41845V82.9635C8.15665 82.9635 7.88627 82.8734 7.88627 82.0172V72.779C7.87228 72.693 7.87894 72.6049 7.9057 72.5219C7.93246 72.439 7.97855 72.3636 8.04017 72.302C8.10179 72.2404 8.17717 72.1943 8.26011 72.1675C8.34304 72.1407 8.43115 72.1341 8.51717 72.1481C9.55365 72.1481 11.3112 73.0944 12.3026 74.9421L12.7532 74.7618L12.0322 71.2017H11.5365C11.1634 71.4064 10.7452 71.5148 10.3197 71.5172H2.43348C2.2206 71.5093 2.00914 71.4791 1.80257 71.427C1.61594 71.3683 1.43496 71.2928 1.2618 71.2017H0.72103L0 74.8069L0.450644 74.9871C1.44206 73.0944 3.19957 72.1931 4.23605 72.1931C4.32207 72.1791 4.41017 72.1858 4.49311 72.2126C4.57604 72.2393 4.65143 72.2854 4.71305 72.347C4.77467 72.4087 4.82076 72.484 4.84752 72.567C4.87428 72.6499 4.88094 72.738 4.86695 72.824V82.0172H4.91202ZM105.541 78.4571H109.597L111.264 76.0236H107.253L105.541 78.4571Z" fill="white"/>
<path d="M101.035 48.3541C101.195 47.9448 101.5 47.6082 101.891 47.4077C101.981 47.4077 102.657 48.0837 102.657 48.3541C102.451 48.68 102.192 48.9693 101.891 49.2103C101.711 49.2103 101.035 48.4442 101.035 48.3541ZM114.239 48.3541C114.399 47.9448 114.704 47.6082 115.095 47.4077C115.185 47.4077 115.861 48.0837 115.861 48.3541C115.655 48.68 115.396 48.9693 115.095 49.2103C114.915 49.2103 114.239 48.4442 114.239 48.3541ZM107.569 48.3541C107.73 47.9448 108.034 47.6082 108.426 47.4077C108.516 47.4077 109.192 48.0837 109.192 48.3541C108.985 48.68 108.727 48.9693 108.426 49.2103C108.087 48.984 107.796 48.6931 107.569 48.3541ZM100.179 49.706H103.514C103.568 49.71 103.622 49.7023 103.673 49.6834C103.724 49.6644 103.771 49.6347 103.809 49.5962C103.848 49.5577 103.878 49.5113 103.896 49.4603C103.915 49.4093 103.923 49.3547 103.919 49.3004V47.4077C103.923 47.3534 103.915 47.2989 103.896 47.2479C103.878 47.1968 103.848 47.1505 103.809 47.112C103.771 47.0735 103.724 47.0437 103.673 47.0248C103.622 47.0058 103.568 46.9981 103.514 47.0021C102.838 47.0021 101.215 47.0923 100.179 47.1824C100.13 47.1775 100.081 47.1834 100.035 47.1998C99.9892 47.2162 99.9474 47.2426 99.9129 47.2771C99.8784 47.3116 99.852 47.3533 99.8356 47.3993C99.8192 47.4453 99.8133 47.4944 99.8182 47.5429V49.4356C99.8182 49.6159 99.9985 49.706 100.179 49.706ZM97.9706 48.5343C97.9706 48.3541 98.4663 47.8584 98.5564 47.8584C98.6466 47.8584 99.1423 48.3541 99.1423 48.5343C98.9972 48.7987 98.7975 49.0292 98.5564 49.2103C98.3154 49.0292 98.1156 48.7987 97.9706 48.5343ZM104.505 48.3541C104.505 48.1738 105.001 47.6781 105.091 47.6781C105.181 47.6781 105.677 48.1738 105.677 48.3541C105.532 48.6185 105.332 48.8489 105.091 49.03C104.861 48.8366 104.664 48.6085 104.505 48.3541ZM110.048 49.7961C110.102 49.8002 110.157 49.7925 110.208 49.7735C110.259 49.7545 110.305 49.7248 110.344 49.6863C110.382 49.6478 110.412 49.6015 110.431 49.5504C110.45 49.4994 110.457 49.4449 110.453 49.3906V47.3627C110.457 47.3084 110.45 47.2538 110.431 47.2028C110.412 47.1518 110.382 47.1054 110.344 47.0669C110.305 47.0284 110.259 46.9987 110.208 46.9797C110.157 46.9608 110.102 46.953 110.048 46.9571H106.803C106.749 46.953 106.694 46.9608 106.643 46.9797C106.592 46.9987 106.546 47.0284 106.507 47.0669C106.469 47.1054 106.439 47.1518 106.42 47.2028C106.401 47.2538 106.394 47.3084 106.398 47.3627V49.3906C106.394 49.4449 106.401 49.4994 106.42 49.5504C106.439 49.6015 106.469 49.6478 106.507 49.6863C106.546 49.7248 106.592 49.7545 106.643 49.7735C106.694 49.7925 106.749 49.8002 106.803 49.7961H110.048ZM116.717 49.706C116.766 49.7109 116.815 49.705 116.861 49.6886C116.907 49.6722 116.949 49.6459 116.983 49.6113C117.018 49.5768 117.044 49.5351 117.061 49.4891C117.077 49.4431 117.083 49.3941 117.078 49.3455V47.4528C117.083 47.4042 117.077 47.3552 117.061 47.3092C117.044 47.2632 117.018 47.2215 116.983 47.1869C116.949 47.1524 116.907 47.126 116.861 47.1097C116.815 47.0933 116.766 47.0873 116.717 47.0923C115.681 47.0021 114.059 46.912 113.383 46.912C113.328 46.908 113.274 46.9157 113.223 46.9347C113.172 46.9536 113.125 46.9833 113.087 47.0218C113.048 47.0603 113.019 47.1067 113 47.1577C112.981 47.2088 112.973 47.2633 112.977 47.3176V49.2103C112.973 49.2646 112.981 49.3191 113 49.3702C113.019 49.4212 113.048 49.4675 113.087 49.506C113.125 49.5445 113.172 49.5743 113.223 49.5932C113.274 49.6122 113.328 49.6199 113.383 49.6159H116.717V49.706ZM118.926 48.5343C118.78 48.7987 118.581 49.0292 118.34 49.2103C118.099 49.0292 117.899 48.7987 117.754 48.5343C117.754 48.3541 118.25 47.8584 118.34 47.8584C118.43 47.8584 118.926 48.3541 118.926 48.5343ZM112.346 48.3541C112.201 48.6185 112.001 48.8489 111.76 49.03C111.519 48.8489 111.319 48.6185 111.174 48.3541C111.174 48.1738 111.67 47.6781 111.76 47.6781C111.85 47.6781 112.346 48.1738 112.346 48.3541ZM103.649 8.78755H103.739C104.144 10.4099 106.037 10.5901 106.488 12.4378L106.398 12.5279C105.451 11.176 104.189 10.9957 103.649 10.3197C103.423 10.0043 103.423 9.55365 103.649 8.78755ZM106.803 30.6438C106.803 33.3026 104.595 34.4742 102.297 34.4742C105.271 31.2296 102.973 26.5429 105.857 23.4785C105.632 26.1824 106.803 28.7511 106.803 30.6438ZM120.953 37.8541C124.108 37.8541 125.73 36.2318 125.73 33.7532C125.736 33.2594 125.644 32.7693 125.46 32.3112C124.747 32.8543 123.878 33.1544 122.981 33.1674C121.72 33.1674 120.007 32.4013 120.007 30.3734C120.007 27.7146 122.801 26.3627 122.801 23.3884C122.823 23.1789 122.802 22.9672 122.74 22.7659C122.678 22.5646 122.576 22.3778 122.441 22.2167C123.485 20.9055 124.085 19.2954 124.153 17.6202C124.162 16.2121 123.719 14.8383 122.891 13.6996L124.243 14.3755C123.883 12.9818 123.239 11.6776 122.35 10.5451C122.35 10.5451 123.026 10.9056 123.387 10.7253C122.711 10.3648 121.674 9.103 121.674 6.80472C121.674 4.50644 121.179 3.24464 116.717 2.47854C116.156 1.48344 115.369 0.634365 114.419 0C113.383 0.495708 111.85 1.12661 111.355 1.53219C111.355 1.53219 110.093 1.62232 109.552 1.62232C108.977 1.56447 108.405 1.47419 107.84 1.35193C106.803 1.35193 106.127 2.38841 106.127 2.38841C104.842 2.39351 103.56 2.51416 102.297 2.74893C101.441 2.92918 100.945 3.60515 100.314 5.04721L96.123 7.34549C95.3569 7.75107 94.8612 8.02146 94.8612 8.69742C94.9747 9.32166 95.2375 9.90918 95.6272 10.4099C96.0328 12.9785 96.4835 13.3841 97.0693 13.3841C97.2372 13.3712 97.4033 13.341 97.565 13.294C97.8423 13.6358 98.0698 14.0151 98.241 14.4206C97.565 14.7811 96.7088 14.015 95.6723 14.015C95.0865 14.015 94.1401 14.3755 94.1401 15.367C94.1401 15.7275 94.3204 15.7725 94.5006 15.7725C94.771 15.7725 94.9963 15.6824 95.6272 15.6824C96.3933 15.6824 96.9792 16.3584 98.1959 16.3584C98.6015 16.3584 98.8719 16.2682 99.0521 16.3584C98.4663 16.7639 98.1058 17.0343 98.2861 17.6202C98.5564 18.7468 99.5479 20.0086 100.089 20.0086C100.489 19.9661 100.882 19.8753 101.26 19.7382L100.765 20.1438C97.3397 23.0279 98.1058 26.2725 98.1058 29.5172C98.1058 31.9957 97.4298 33.5279 95.447 33.5279C94.1852 33.5279 92.3826 32.7618 91.0307 31.0494C90.837 31.692 90.7457 32.3611 90.7603 33.0322C90.7603 36.0064 93.5092 37.9893 96.2131 37.9893C98.3332 38.0439 100.4 37.3228 102.026 35.9614C106.893 35.8712 108.426 32.6266 108.426 32.6266C110.724 35.9614 115.005 35.691 115.681 35.691C117.123 37.2682 119.331 37.8541 120.953 37.8541ZM121.314 19.7833C121.314 23.3433 116.717 23.794 116.717 27.2639C116.717 28.6159 117.123 29.5622 116.898 30.4185C116.898 30.4185 117.844 29.382 117.934 28.6159C117.934 31.2747 119.286 34.3391 122.801 34.3391C123.493 34.343 124.175 34.1726 124.784 33.8433C124.784 33.8433 124.604 36.3219 121.81 36.3219C118.25 36.3219 115.005 33.3476 115.005 27.8047C114.958 26.7306 115.224 25.666 115.771 24.7403C115.771 24.7403 114.059 25.6867 113.878 28.6609C113.458 27.9663 113.225 27.1743 113.202 26.3627C113.112 22.0815 118.34 23.6137 121.314 19.7833ZM117.303 3.69528C120.458 4.37124 120.052 6.44421 120.638 7.88627C119.743 6.79212 118.678 5.84879 117.483 5.09227C117.594 4.62011 117.53 4.12395 117.303 3.69528ZM98.1959 12.2124C98.4452 12.1291 98.7017 12.0687 98.962 12.0322C99.1309 12.494 99.1622 12.995 99.0521 13.4742C98.9038 13.4686 98.7589 13.4282 98.6291 13.3562C98.4992 13.2843 98.3882 13.1828 98.3048 13.0599C98.2215 12.9371 98.1682 12.7964 98.1493 12.6492C98.1304 12.502 98.1463 12.3524 98.1959 12.2124ZM99.9985 14.7811C99.638 15.2768 99.4127 15.9528 98.3762 15.9528C97.3397 15.9528 96.4835 15.1867 95.8075 15.1867C95.5807 15.2044 95.3551 15.2345 95.1315 15.2768C94.9513 15.2768 94.8612 15.1867 94.8612 15.0966C94.8612 14.8262 95.2217 14.6009 95.7174 14.6009C96.2131 14.6009 96.6637 14.8712 97.4298 15.0064C98.5564 15.367 99.2324 14.4206 99.638 14.0601C100.012 13.7339 100.494 13.5574 100.99 13.5644C101.499 13.563 101.998 13.7034 102.432 13.97C101.702 14.1063 101.011 14.3984 100.404 14.8262C100.179 14.7811 100.089 14.691 99.9985 14.7811ZM100.945 15.8627C100.838 15.9823 100.705 16.0767 100.557 16.1391C100.409 16.2014 100.249 16.2302 100.089 16.2232C99.9902 15.8847 99.9902 15.5252 100.089 15.1867C100.449 15.1867 100.945 15.4571 100.945 15.8627ZM95.4921 34.6545C99.5028 34.6545 99.4127 30.0579 99.4127 28.5257C99.4127 21.6309 101.441 19.9185 106.217 17.7103C109.777 15.9979 113.022 15.3219 113.022 11.897C113.022 10.7253 112.662 9.41845 111.31 9.41845C111.636 9.79241 111.813 10.274 111.805 10.7704C111.792 11.1602 111.7 11.5434 111.535 11.897C111.541 11.4922 111.414 11.0966 111.174 10.7704C110.769 11.4464 110.814 12.4828 110.589 12.8884C110.589 12.8884 110.408 13.294 109.237 13.9249C109.237 13.9249 109.056 14.1051 109.642 14.1051C109.642 14.1051 111.084 14.1051 111.625 13.5193C111.22 14.691 110.679 15.1416 109.913 15.1416C109.507 15.1416 108.786 15.0515 108.2 15.0515C107.164 15.0515 104.775 15.5472 103.874 17.1695C103.198 18.2961 101.215 19.2876 100.539 19.2876C99.9534 19.2876 99.0972 17.9356 99.0972 17.3047C99.0972 16.6738 100.269 17.0343 101.215 16.133C102.747 14.6009 103.333 14.2403 104.956 14.2403C104.956 14.2403 105.902 14.2403 105.046 13.3841L102.387 10.9056C102.276 10.7574 102.134 10.6359 101.97 10.5501C101.806 10.4643 101.625 10.4164 101.441 10.4099C101.26 10.4099 100.945 10.5 100.179 11.176C98.6466 11.3562 98.0607 11.5815 97.6101 11.8519C97.3397 12.0322 97.2045 12.2124 97.0242 12.2124C96.7539 12.2124 96.4384 10.8605 96.4384 10.5901C96.4384 9.91416 97.2045 9.46352 97.2045 9.05794C97.2007 8.97768 97.1729 8.9004 97.1247 8.83612C97.0765 8.77184 97.0101 8.72352 96.9341 8.69742L95.8075 9.19313C95.8075 9.19313 95.2217 8.51717 95.8976 8.15665C95.8976 8.15665 97.6101 7.2103 100.855 5.67811C101.035 6.62446 101.26 6.80472 102.026 6.71459L101.666 6.80472L101.486 7.07511C101.915 7.13568 102.352 7.07317 102.747 6.89485C103.153 6.71459 103.694 6.71459 103.784 6.62446C103.918 6.50228 104.039 6.36634 104.144 6.21888C103.794 6.24978 103.448 6.31008 103.108 6.39914C103.604 6.03863 103.874 5.8133 103.874 5.63305C103.865 5.56472 103.833 5.5014 103.784 5.45279C103.514 5.45279 103.378 5.63305 103.108 5.54292C103.009 5.50039 102.923 5.43188 102.86 5.34464C102.796 5.25739 102.757 5.15463 102.747 5.04721C102.747 4.86695 102.928 4.6867 103.514 4.6867H103.919C103.919 4.32618 103.063 4.19099 102.747 4.19099C102.216 4.23047 101.697 4.36798 101.215 4.59657C101.264 4.36784 101.368 4.15429 101.517 3.97392C101.666 3.79354 101.856 3.65161 102.071 3.56009C102.477 3.37983 104.73 3.15451 106.848 3.15451C109.913 3.15451 112.211 5.8133 112.662 5.8133C112.842 5.8133 113.022 5.63305 112.752 5.45279C111.625 4.6867 110.949 4.10086 110.949 3.33476C110.949 3.06438 110.949 1.44206 114.464 0.856223C115.996 2.11803 116.492 3.06438 116.492 3.9206C116.492 5.36266 114.87 5.54292 114.689 6.12876C118.7 6.39914 121.674 11.6717 121.674 14.3305C121.674 19.1073 117.168 21.0451 114.329 21.676C118.43 18.6116 119.962 15.5472 119.962 13.4292C119.962 9.91416 116.808 7.88626 116.041 7.48069C117.463 8.97541 118.254 10.9607 118.25 13.0236C118.275 13.8533 118.119 14.6785 117.793 15.4415C117.466 16.2044 116.976 16.8865 116.357 17.4399C116.751 16.6446 116.863 15.7384 116.672 14.8712C115.05 18.7017 111.31 21.3605 111.039 24.6051C110.795 23.8948 110.673 23.1481 110.679 22.397C110.678 20.7627 111.289 19.1873 112.391 17.9807C109.056 20.279 108.29 22.9378 108.29 24.9657C108.297 26.2025 108.59 27.421 109.147 28.5257C108.999 27.5068 109.03 26.47 109.237 25.4614C109.436 27.2833 110.067 29.0312 111.078 30.5597C112.089 32.0883 113.451 33.3531 115.05 34.2489C108.065 34.2489 105.181 25.912 108.065 20.5944C103.198 21.8562 102.612 26.9034 102.522 29.7876C102.241 28.5914 102.105 27.3659 102.117 26.1373C102.117 20.9549 106.443 19.5579 109.687 18.1159C114.464 15.9979 116.402 14.2854 116.402 11.221C116.402 7.97639 112.571 5.9485 109.732 6.53433L110.769 7.57081C110.949 7.75107 111.174 7.93133 111.174 7.93133C114.149 9.46352 114.599 11.176 114.599 12.2124C114.599 14.9614 111.535 16.4034 109.327 17.3498C102.162 20.4142 100.9 21.7661 100.9 26.2275C100.9 29.4721 101.846 34.5644 98.4212 35.015C98.6916 35.4206 99.8633 35.6009 99.8633 35.6009C98.9018 36.3898 97.6805 36.7916 96.4384 36.7275C95.2667 36.7275 92.8783 36.367 92.1573 33.8433C93.1036 34.1137 94.05 34.6545 95.4921 34.6545ZM114.149 5.22747L114.419 5.40772C114.419 5.40772 115.951 4.73176 115.951 3.60515C115.945 3.25731 115.818 2.92255 115.591 2.6588C115.411 2.6588 115.411 3.01931 115.411 3.15451C115.41 3.23918 115.391 3.32278 115.356 3.39971C115.321 3.47663 115.269 3.54511 115.205 3.60057C115.141 3.65603 115.066 3.69719 114.985 3.72129C114.904 3.7454 114.818 3.75189 114.735 3.74034C114.489 3.72444 114.257 3.61963 114.083 3.44548C113.909 3.27133 113.804 3.03976 113.788 2.79399C113.824 2.4366 113.915 2.08695 114.059 1.75751C114.059 1.74567 114.056 1.73395 114.052 1.72302C114.047 1.71208 114.041 1.70215 114.032 1.69378C114.024 1.68541 114.014 1.67877 114.003 1.67424C113.992 1.66971 113.98 1.66738 113.968 1.66738C112.617 2.16309 112.526 2.79399 112.526 3.19957C112.526 3.87554 112.797 4.46137 114.149 5.22747ZM97.7002 8.69742C97.7529 8.78893 97.8243 8.86832 97.9097 8.93043C97.9951 8.99255 98.0926 9.03599 98.1959 9.05794C98.5592 8.76511 98.8002 8.34734 98.8719 7.88627C98.4663 7.93133 97.7002 8.11159 97.7002 8.69742ZM125.415 37.088L125.144 36.9979C124.746 37.5012 124.239 37.9084 123.662 38.1893C123.085 38.4701 122.452 38.6174 121.81 38.6202L121.72 38.8004C122.486 39.5665 122.305 41.279 121.359 41.279C120.773 41.279 120.503 40.7833 120.413 40.3326L120.232 40.2425C119.841 40.5059 119.464 40.7918 119.106 41.0987C119.119 41.6437 119.179 42.1865 119.286 42.721H119.466C119.527 42.5944 119.623 42.4883 119.743 42.4162C119.863 42.344 120.002 42.309 120.142 42.3154C120.249 42.3212 120.353 42.3479 120.449 42.3941C120.546 42.4403 120.632 42.505 120.703 42.5846C120.774 42.6641 120.829 42.7569 120.864 42.8577C120.899 42.9584 120.914 43.0651 120.908 43.1717C120.908 44.0279 120.323 44.794 119.106 44.794C117.889 44.794 116.717 44.2082 116.717 42.8112C116.726 42.4083 116.849 42.0163 117.073 41.681C117.296 41.3458 117.611 41.0812 117.979 40.9185V40.7382C117.363 40.2592 116.869 39.6416 116.537 38.9356H116.357C115.87 39.5403 115.21 39.9808 114.464 40.1974V40.3777C114.71 40.6083 114.905 40.8878 115.037 41.1982C115.169 41.5085 115.235 41.843 115.23 42.1803C115.23 43.3069 114.284 43.9828 112.346 43.9828C110.904 43.9828 109.462 43.5773 109.462 42.0901C109.448 41.9367 109.468 41.7821 109.519 41.6367C109.57 41.4914 109.652 41.3587 109.758 41.2476C109.865 41.1366 109.995 41.0497 110.138 40.9929C110.281 40.9361 110.435 40.9108 110.589 40.9185C110.839 40.9175 111.085 40.9788 111.305 41.0968C111.525 41.2148 111.713 41.3859 111.85 41.5944H112.031C112.356 41.1588 112.735 40.7653 113.157 40.4227V40.2425C112.731 39.8703 112.352 39.4465 112.031 38.9807H111.85C111.679 39.2255 111.449 39.4236 111.181 39.5574C110.914 39.6911 110.617 39.7562 110.318 39.7468C110.211 39.7581 110.102 39.7468 109.999 39.7135C109.896 39.6802 109.801 39.6257 109.72 39.5536C109.64 39.4814 109.575 39.3931 109.53 39.2945C109.486 39.1958 109.463 39.0889 109.462 38.9807C109.462 38.2146 110.408 37.8541 111.174 37.6288V37.4485C109.949 36.9046 108.969 35.9249 108.426 34.6996H108.245C107.701 35.9249 106.722 36.9046 105.496 37.4485V37.6288C106.262 37.8991 107.209 38.2146 107.209 38.9807C107.208 39.0889 107.185 39.1958 107.14 39.2945C107.096 39.3931 107.031 39.4814 106.951 39.5536C106.87 39.6257 106.775 39.6802 106.672 39.7135C106.569 39.7468 106.46 39.7581 106.353 39.7468C106.054 39.7562 105.757 39.6911 105.49 39.5574C105.222 39.4236 104.992 39.2255 104.82 38.9807H104.64C104.345 39.4666 103.963 39.8942 103.514 40.2425V40.4227C103.925 40.7775 104.302 41.1697 104.64 41.5944H104.82C104.962 41.3894 105.15 41.2211 105.369 41.1036C105.589 40.986 105.833 40.9225 106.082 40.9185C106.235 40.9144 106.387 40.9422 106.529 41.0003C106.67 41.0583 106.798 41.1452 106.904 41.2555C107.01 41.3658 107.092 41.497 107.145 41.6407C107.197 41.7844 107.219 41.9375 107.209 42.0901C107.209 43.5322 105.767 43.9828 104.325 43.9828C102.342 43.9828 101.441 43.3069 101.441 42.1803C101.439 41.8436 101.507 41.5101 101.638 41.2002C101.77 40.8904 101.963 40.6105 102.207 40.3777V40.2425C101.478 39.9921 100.825 39.5574 100.314 38.9807H100.134C99.7781 39.6718 99.2878 40.2847 98.6916 40.7833V40.9635C99.0727 41.1086 99.399 41.3689 99.6251 41.7081C99.8513 42.0474 99.9661 42.4487 99.9534 42.8562C99.9534 44.2082 98.8268 44.8391 97.565 44.8391C96.3933 44.8391 95.7624 44.073 95.7624 43.2167C95.7564 43.1102 95.7714 43.0035 95.8066 42.9027C95.8418 42.802 95.8966 42.7092 95.9678 42.6296C96.0389 42.5501 96.1251 42.4854 96.2213 42.4392C96.3176 42.393 96.422 42.3663 96.5285 42.3605C96.6666 42.3642 96.8014 42.4035 96.9198 42.4745C97.0382 42.5456 97.1363 42.646 97.2045 42.7661H97.3848C97.4942 42.232 97.5546 41.6889 97.565 41.1438C97.2063 40.8369 96.8302 40.551 96.4384 40.2876L96.2582 40.3777C96.168 40.7833 95.8976 41.324 95.3118 41.324C94.3654 41.324 94.1852 39.6116 94.9513 38.8455L94.8612 38.6652C94.2192 38.6625 93.5861 38.5152 93.0088 38.2343C92.4315 37.9535 91.9248 37.5463 91.5264 37.0429L91.4813 37.088L95.0414 45.2897C95.0414 45.2897 94.2753 45.6502 94.4556 46.236C94.8161 47.4077 95.8075 48.985 95.8075 50.8326C95.8075 51.5987 95.7174 51.6888 95.7174 52.0043C95.7174 52.3197 95.9878 52.5 96.3032 52.5H120.503C120.863 52.5 121.089 52.3197 121.089 52.0043C121.089 51.6888 120.998 51.5987 120.998 50.8326C120.998 48.9399 122.035 47.4077 122.35 46.236C122.531 45.6502 121.765 45.2897 121.765 45.2897L125.415 37.088ZM108.426 50.5622C101.756 50.5622 97.3397 50.4721 97.3397 50.4721L96.3933 46.912C100.383 46.3807 104.401 46.0948 108.426 46.0558C112.45 46.0972 116.468 46.3831 120.458 46.912L119.511 50.4721C119.511 50.4721 115.095 50.5622 108.426 50.5622Z" fill="white"/>
</svg>
