<svg width="184" height="84" viewBox="0 0 184 84" fill="none" xmlns="http://www.w3.org/2000/svg">
<path d="M14.4898 68.3759C14.4898 68.3759 11.7198 68.3759 9.68927 68.3759H0.121392V69.1815H1.55602V82.656H0V83.4616H5.39642V82.656H4.07214V76.5202H7.33869C10.1528 76.5202 10.9473 77.2044 10.9473 78.4845V78.7604H11.6536V73.364H10.9473V73.6509C10.9473 75.4497 10.1307 75.7036 7.33869 75.7036H4.028V69.1263H9.65617C12.7682 69.1263 13.3752 69.965 14.2249 72.8784V73.0771H14.9312L14.3904 68.4201L14.4898 68.3759Z" fill="white"/>
<path d="M24.0478 70.8143C19.9095 70.8143 15.6387 73.2532 15.6387 77.3143C15.6387 80.4264 18.5852 83.7481 24.0478 83.7481C28.12 83.7481 32.457 81.4968 32.457 77.3143C32.457 74.1029 29.5104 70.8143 24.0478 70.8143ZM24.0478 83.0087C20.2516 83.0087 18.221 80.9781 18.221 77.3033C18.221 73.6284 20.3619 71.4765 24.0478 71.4765C27.7227 71.4765 29.9408 73.5843 29.9408 77.3033C29.9408 81.0223 27.8551 82.9646 24.0478 82.9646V83.0087Z" fill="white"/>
<path d="M45.3112 71.7504H46.5583V77.3786C46.5583 81.4948 43.8104 82.9626 41.2391 82.9626C39.5948 82.9626 36.8359 82.2453 36.8359 77.3786V71.7504H38.2153V71.0331H33.2383V71.7504H34.5074V77.3786C34.5074 82.5874 38.1822 83.6689 41.2391 83.6689C43.987 83.6689 47.2204 82.0246 47.2204 77.3786V71.7504H48.3791V71.0331H45.3444V71.7504H45.3112Z" fill="white"/>
<path d="M81.3856 74.0035C78.726 73.3413 76.2319 72.7012 76.2319 71.1342C76.2319 69.5782 78.0418 68.8057 81.0655 68.8057C84.0893 68.8057 86.0647 69.9644 86.9917 72.7564L87.1903 73.3744H87.8635L87.5324 69.6885C86.484 69.214 85.4136 68.8278 84.31 68.5298C83.2616 68.1987 82.1691 68.0332 81.0766 68.0442C76.9051 68.0442 74.5104 69.5892 74.5104 72.2598C74.5104 75.1953 77.8983 76.023 81.1869 76.8175C83.99 77.4907 86.6385 78.1418 86.6385 79.9848C86.6385 82.5561 83.0851 82.9423 80.9662 82.9423C78.2073 83.0085 75.6802 81.3863 74.5987 78.8481L74.3559 78.186H73.7158L74.5325 82.5561C76.6072 83.2403 78.7812 83.6265 80.9662 83.7148C85.8771 83.7148 88.3711 82.0705 88.3711 78.8371C88.3601 75.5815 84.6632 74.8311 81.3856 74.0035Z" fill="white"/>
<path d="M103.075 80.406C102.38 82.0393 101.905 82.7345 99.8414 82.7345H94.2022V77.3712H97.2039C99.3558 77.3712 100.062 77.912 100.062 79.0486V79.3135H100.702V74.5571H100.062V74.822C100.062 76.3559 99.3558 76.6429 97.2039 76.6429H94.2022V71.7982H99.5434C100.713 71.7982 101.872 71.9307 102.578 74.2261V74.4026H103.13L102.832 70.805L102.159 70.8823C101.309 70.9816 100.448 71.0147 99.5986 70.9706H90.6377V71.6879H92.0171V82.6131H90.6377V83.3305H99.8966C101.066 83.3305 103.196 83.4298 103.218 83.4298H103.273L103.858 80.1522H103.185L103.075 80.406Z" fill="white"/>
<path d="M114.35 71.1564L114.283 71.0239H110.984V71.7412H112.065L105.963 82.6665H104.87V83.3838H108.015V82.6775H106.735L108.611 79.3227H116.413L118.278 82.6775H116.998V83.3949H121.964V82.6775H120.795L114.35 71.1564ZM108.997 78.6164L112.496 72.3151L115.994 78.6164H108.997Z" fill="white"/>
<path d="M145.284 70.8143C141.146 70.8143 136.875 73.2532 136.875 77.3143C136.875 80.4264 139.822 83.7481 145.284 83.7481C149.356 83.7481 153.693 81.4968 153.693 77.3143C153.693 74.1029 150.747 70.8143 145.284 70.8143ZM145.284 83.0087C141.499 83.0087 139.457 80.9781 139.457 77.3033C139.457 73.6284 141.598 71.4765 145.284 71.4765C148.97 71.4765 151.177 73.5843 151.177 77.3033C151.177 81.0223 149.08 82.9646 145.284 82.9646V83.0087Z" fill="white"/>
<path d="M166.74 71.7504H168.097V80.3361L158.265 71.0552L158.231 71.0331H154.744V71.7504H155.715L156.267 72.258V82.6757H154.81V83.393H158.231V82.6757H156.918V72.854L168.605 83.8785L168.748 83.9999V71.7504H169.852V71.0331H166.74V71.7504Z" fill="white"/>
<path d="M62.0624 81.2998L60.396 77.6912L60.6277 77.636C62.1286 77.3601 63.199 76.0358 63.1659 74.5129C63.1659 71.0146 58.9172 71.0146 57.5157 71.0146H49.3604V71.7319H50.795V82.6572H49.3604V83.3745H54.1719V82.6903H53.0021V77.9229H57.9571L60.9367 83.7497H64.5785V83.0434C63.4308 83.1648 62.3493 82.4254 62.0624 81.2998ZM57.5157 77.2056H53.0573V71.7761H57.5377C59.6566 71.7761 60.6498 72.6369 60.6498 74.5019C60.6498 76.3669 59.7449 77.1946 57.5488 77.1946L57.5157 77.2056Z" fill="white"/>
<path d="M129.381 75.7783C127.218 75.2265 125.165 74.7189 125.165 73.4498C125.165 72.1807 126.644 71.5737 129.116 71.5737C131.588 71.5737 133.199 72.5449 133.961 74.7961L134.126 75.2927H134.678L134.413 72.2911C133.563 71.8938 132.68 71.5627 131.776 71.2978C130.915 71.022 130.021 70.8895 129.116 70.8895C125.706 70.8895 123.753 72.1476 123.753 74.3878C123.753 76.7825 126.523 77.4668 129.204 78.1179C131.533 78.6807 133.663 79.1993 133.663 80.7002C133.663 82.797 130.76 83.128 129.006 83.128C126.754 83.1832 124.691 81.8589 123.797 79.7842L123.598 79.2435H123.102L123.764 82.819C125.463 83.3819 127.229 83.7019 129.017 83.7902C133.034 83.7902 135.075 82.4549 135.075 79.7953C135.075 77.1467 132.051 76.4515 129.381 75.7783Z" fill="white"/>
<path d="M177.375 75.7782C175.212 75.2265 173.17 74.7188 173.17 73.4497C173.17 72.1806 174.649 71.5737 177.121 71.5737C179.593 71.5737 181.204 72.5448 181.965 74.7961L182.131 75.2927H182.683L182.418 72.291C181.568 71.8937 180.685 71.5626 179.78 71.2978C178.92 71.0219 178.026 70.8895 177.121 70.8895C173.711 70.8895 171.758 72.1475 171.758 74.3878C171.758 76.7825 174.527 77.4667 177.209 78.1178C179.538 78.6806 181.668 79.1993 181.668 80.7001C181.668 82.7969 178.765 83.128 177.011 83.128C174.759 83.1831 172.696 81.8589 171.802 79.7842L171.603 79.2434H171.106L171.769 82.819C173.468 83.3818 175.234 83.7018 177.022 83.7901C181.039 83.7901 183.08 82.4548 183.08 79.7952C183.08 77.1467 180.1 76.4514 177.375 75.7782Z" fill="white"/>
<path d="M111.225 35.226C110.155 35.546 109.537 36.6606 109.813 37.7421C110.883 37.411 111.501 36.3074 111.225 35.226Z" fill="white"/>
<path d="M106.979 35.9981C107.046 37.1237 108.006 37.9955 109.131 37.9514C109.065 36.8257 108.105 35.9539 106.979 35.9981Z" fill="white"/>
<path d="M109.12 41.3968C109.109 40.2933 108.193 39.4214 107.101 39.4325C107.057 39.4325 107.024 39.4325 106.979 39.4325C107.002 40.536 107.895 41.4079 108.999 41.3968C109.043 41.3968 109.076 41.3968 109.12 41.3968Z" fill="white"/>
<path d="M105.258 23.7794C104.133 23.7353 103.173 24.6071 103.106 25.7327C104.232 25.7769 105.192 24.905 105.258 23.7794Z" fill="white"/>
<path d="M100.103 22.8016C100.169 23.9272 101.129 24.799 102.254 24.7549C102.188 23.6293 101.228 22.7685 100.103 22.8016Z" fill="white"/>
<path d="M99.8057 18.7168C100.931 18.7609 101.891 17.8891 101.958 16.7635C100.832 16.7193 99.8719 17.5801 99.8057 18.7168Z" fill="white"/>
<path d="M100.857 13.7428C99.7649 14.0628 99.1358 15.1885 99.4228 16.281C100.504 15.961 101.144 14.8353 100.857 13.7428Z" fill="white"/>
<path d="M97.0922 14.7292C96.9928 15.8549 97.8095 16.8481 98.9351 16.9695C99.0234 15.8438 98.2068 14.8506 97.0922 14.7292Z" fill="white"/>
<path d="M96.6055 11.5294C97.7311 11.5736 98.6912 10.7018 98.7574 9.57612C97.6207 9.54301 96.6717 10.4038 96.6055 11.5294Z" fill="white"/>
<path d="M97.7211 6.87231C96.6727 7.29167 96.154 8.48352 96.5623 9.54293C97.6107 9.12358 98.1294 7.93173 97.7211 6.87231Z" fill="white"/>
<path d="M96.2173 10.4842C96.3056 9.35862 95.489 8.37645 94.3744 8.24402C94.2751 9.36965 95.0917 10.3629 96.2173 10.4842Z" fill="white"/>
<path d="M95.4954 12.4294C95.4292 11.3038 94.4801 10.443 93.3545 10.4761C93.4207 11.5907 94.3698 12.4626 95.4954 12.4294Z" fill="white"/>
<path d="M91.9267 15.0335C92.3129 14.7907 96.4292 12.3739 96.4292 12.3739L96.2416 10.9172H96.1864C96.1975 11.2042 96.1975 11.4911 96.1864 11.778C96.2085 11.9877 96.0981 12.1863 95.9216 12.2857L91.3418 14.6142C91.3418 14.9673 91.3418 15.3204 91.3418 15.6846C91.4522 15.4087 91.6618 15.166 91.9267 15.0335Z" fill="white"/>
<path d="M90.9358 2.01783C90.8696 0.892194 89.9206 0.0314154 88.7949 0.0645223C88.8611 1.19016 89.8102 2.05093 90.9358 2.01783Z" fill="white"/>
<path d="M90.8899 4.1847C90.8237 3.05906 89.8747 2.19829 88.749 2.23139C88.8152 3.35703 89.7643 4.2178 90.8899 4.1847Z" fill="white"/>
<path d="M90.8557 6.33552C90.7675 5.23196 89.8184 4.39326 88.7148 4.42636C88.8031 5.52992 89.7522 6.36863 90.8557 6.33552Z" fill="white"/>
<path d="M90.8255 8.49418C90.7593 7.36854 89.8102 6.50776 88.6846 6.54087C88.7397 7.6665 89.6998 8.53832 90.8255 8.49418Z" fill="white"/>
<path d="M90.7913 10.6613C90.7251 9.53563 89.776 8.67485 88.6504 8.70795C88.7166 9.83359 89.6657 10.6944 90.7913 10.6613Z" fill="white"/>
<path d="M90.7708 12.8258C90.7046 11.7002 89.7555 10.8394 88.6299 10.8725C88.6961 11.9871 89.6452 12.8589 90.7708 12.8258Z" fill="white"/>
<path d="M87.8879 7.91174C86.8064 8.13246 86.0781 9.14773 86.2326 10.2403C87.3141 10.0306 88.0424 9.00427 87.8879 7.91174Z" fill="white"/>
<path d="M86.2676 11.8616C87.3932 11.8947 88.3423 11.0339 88.4085 9.90827C87.2939 9.87517 86.3448 10.7359 86.2676 11.8616Z" fill="white"/>
<path d="M85.7585 10.5392C85.9792 9.43565 85.2839 8.3652 84.2025 8.10034C83.9817 9.2039 84.6659 10.2744 85.7585 10.5392Z" fill="white"/>
<path d="M85.4817 12.0262C85.4155 10.9006 84.4665 10.0398 83.3408 10.0729C83.407 11.1875 84.3561 12.0594 85.4817 12.0262Z" fill="white"/>
<path d="M88.6481 18.0884C87.5225 18.0663 86.5955 18.9381 86.5293 20.0527C87.6439 20.0748 88.5819 19.203 88.6481 18.0884Z" fill="white"/>
<path d="M84.9111 19.238C86.0588 19.2822 87.0189 18.3772 87.0631 17.2295C85.9154 17.2075 84.9553 18.0903 84.9111 19.238Z" fill="white"/>
<path d="M90.2262 18.8941C89.1005 18.8499 88.1404 19.7217 88.0742 20.8474C89.1999 20.8915 90.16 20.0307 90.2262 18.8941Z" fill="white"/>
<path d="M87.4004 16.6842C88.526 16.7283 89.4861 15.8565 89.5523 14.7309C88.4267 14.6867 87.4666 15.5585 87.4004 16.6842Z" fill="white"/>
<path d="M85.8887 15.8C87.0143 15.8441 87.9744 14.9723 88.0406 13.8467C86.9039 13.8025 85.9549 14.6744 85.8887 15.8Z" fill="white"/>
<path d="M84.3438 14.9136C85.4804 14.9688 86.4516 14.0969 86.5178 12.9713C85.3921 12.9051 84.421 13.7769 84.3438 14.9136Z" fill="white"/>
<path d="M85.484 16.4312C84.3473 16.387 83.3872 17.2699 83.332 18.3955C84.4577 18.4396 85.4178 17.5568 85.484 16.4312Z" fill="white"/>
<path d="M82.9237 16.3015C83.1113 15.1869 82.394 14.1165 81.2794 13.8958C81.0918 15.0103 81.8202 16.0808 82.9237 16.3015Z" fill="white"/>
<path d="M82.524 18.3173C82.4468 17.1916 81.4977 16.3309 80.3721 16.364C80.4383 17.4896 81.3873 18.3504 82.524 18.3173Z" fill="white"/>
<path d="M83.65 25.0717C82.5244 25.0275 81.5643 25.8993 81.498 27.025C82.6237 27.0691 83.5838 26.1973 83.65 25.0717Z" fill="white"/>
<path d="M79.9561 26.163C81.0817 26.2072 82.0308 25.3464 82.108 24.2208C80.9934 24.1877 80.0443 25.0484 79.9561 26.163Z" fill="white"/>
<path d="M85.2192 25.893C84.0715 25.8378 83.0894 26.7096 83.0342 27.8573C84.1819 27.9235 85.1641 27.0407 85.2192 25.893Z" fill="white"/>
<path d="M86.8033 26.7048C85.6777 26.6717 84.7286 27.5325 84.6514 28.6581C85.777 28.7022 86.7371 27.8304 86.8033 26.7048Z" fill="white"/>
<path d="M88.3824 27.5136C87.2568 27.4805 86.2967 28.3413 86.2305 29.4669C87.3671 29.5111 88.3162 28.6503 88.3824 27.5136Z" fill="white"/>
<path d="M90.0191 28.3132C88.8935 28.2801 87.9334 29.1409 87.8672 30.2665C88.9928 30.3106 89.9529 29.4498 90.0191 28.3132Z" fill="white"/>
<path d="M87.6875 25.1168C88.8131 25.161 89.7732 24.2892 89.8394 23.1635C88.7138 23.1304 87.7647 23.9912 87.6875 25.1168Z" fill="white"/>
<path d="M86.1787 24.2247C87.3043 24.2688 88.2644 23.397 88.3307 22.2714C87.205 22.2272 86.256 23.0991 86.1787 24.2247Z" fill="white"/>
<path d="M84.667 23.3314C85.7926 23.3755 86.7527 22.5037 86.8189 21.3781C85.6933 21.3339 84.7332 22.1947 84.667 23.3314Z" fill="white"/>
<path d="M83.1514 22.4356C84.277 22.4798 85.2371 21.608 85.3033 20.4823C84.1666 20.4382 83.2176 21.31 83.1514 22.4356Z" fill="white"/>
<path d="M81.623 21.5439C82.7597 21.588 83.7198 20.7051 83.775 19.5685C82.6383 19.5243 81.6782 20.4072 81.623 21.5439Z" fill="white"/>
<path d="M82.0611 22.2041C80.9134 22.171 79.9533 23.0649 79.9092 24.2237C81.0569 24.2568 82.017 23.3518 82.0611 22.2041Z" fill="white"/>
<path d="M79.6554 23.0538C79.9865 21.9833 79.4237 20.8466 78.3753 20.4714C78.0332 21.5419 78.607 22.6786 79.6554 23.0538Z" fill="white"/>
<path d="M79.2896 24.7752C79.2124 23.6495 78.2633 22.7887 77.1377 22.8218C77.2039 23.9475 78.164 24.8193 79.2896 24.7752Z" fill="white"/>
<path d="M79.0074 26.7512C78.9412 25.6256 77.9811 24.7538 76.8555 24.7979C76.9217 25.9235 77.8707 26.7843 79.0074 26.7512Z" fill="white"/>
<path d="M82.71 32.2C83.8356 32.2441 84.7957 31.3723 84.8619 30.2466C83.7363 30.2025 82.7872 31.0743 82.71 32.2Z" fill="white"/>
<path d="M82.71 35.2683C83.8356 35.3124 84.7957 34.4406 84.8619 33.315C83.7473 33.2819 82.7872 34.1427 82.71 35.2683Z" fill="white"/>
<path d="M81.2109 31.322C82.3476 31.3551 83.2967 30.4833 83.3629 29.3577C82.2373 29.3135 81.2882 30.1854 81.2109 31.322Z" fill="white"/>
<path d="M79.7109 30.4226C80.8366 30.4557 81.7856 29.5949 81.8629 28.4693C80.7373 28.4251 79.7772 29.2969 79.7109 30.4226Z" fill="white"/>
<path d="M78.2002 29.5428C79.3258 29.5869 80.2859 28.7151 80.3521 27.5895C79.2265 27.5454 78.2664 28.4172 78.2002 29.5428Z" fill="white"/>
<path d="M109.431 37.9184C109.53 38.9447 109.574 39.971 109.574 41.0084C109.673 41.7477 109.309 42.4761 108.669 42.8623L92.1378 51.3598C92.1378 49.7486 92.0826 47.8615 92.0495 45.8751V45.3233C92.0495 44.1535 92.3254 43.6238 93.6497 42.7961C94.8084 42.0678 106.981 34.9498 106.981 34.9498C107.036 34.9167 107.058 34.8615 107.047 34.7953L106.484 30.4693H106.297C106.374 31.3191 106.418 32.1688 106.418 33.0186C106.495 33.6366 106.175 34.2435 105.623 34.5415L91.9723 41.527C91.9723 39.4303 91.895 37.2452 91.8619 34.9939V34.4422C91.884 33.7028 92.3365 33.0406 93.0207 32.7648C93.8704 32.224 102.975 26.9379 102.975 26.9379C102.997 26.9048 102.997 26.8607 102.975 26.8386L102.555 23.6162H102.412C102.478 24.2453 102.511 24.8853 102.511 25.5144C102.566 25.9889 102.335 26.4524 101.915 26.6841L91.7626 31.915L91.5971 24.2342C91.6964 23.7487 91.9944 23.3293 92.4248 23.0644C93.0317 22.6782 99.5538 18.8709 99.5538 18.8709C99.5758 18.8488 99.5758 18.8157 99.5538 18.7937L99.2558 16.4651H99.1565C99.2006 16.9176 99.2117 17.3701 99.2117 17.8225C99.2558 18.1536 99.0903 18.4736 98.7923 18.6392L91.5198 22.3802C91.5198 20.0517 91.4426 17.7894 91.4095 15.6485C91.4095 15.2843 91.4095 14.9312 91.4095 14.5781L91.1888 0.0662137C91.1888 0.0331069 91.1557 0 91.1225 0C91.0894 0 91.0563 0.0331069 91.0563 0.0662137C91.0563 0.0662137 90.957 6.24616 90.8025 14.5891L86.2448 12.2606C86.0572 12.1613 85.9579 11.9626 85.9799 11.7419C85.9689 11.455 85.9689 11.168 85.9799 10.8811H85.9248L85.7372 12.3378C85.7372 12.3378 89.8645 14.7436 90.2397 14.9974C90.4604 15.1298 90.6259 15.3285 90.7142 15.5713C90.7142 17.7232 90.637 20.0186 90.5928 22.3582L83.3535 18.6281C83.0555 18.4736 82.8789 18.1426 82.9231 17.8115C82.9231 17.359 82.9341 16.9066 82.9783 16.4541H82.912L82.6141 18.7826C82.603 18.8047 82.603 18.8378 82.6141 18.8599C82.6141 18.8599 89.1361 22.6672 89.7431 23.0534C90.1514 23.2962 90.4383 23.6824 90.5597 24.1349C90.5597 26.6731 90.4714 29.2554 90.4163 31.8157L80.3076 26.5517C79.8883 26.32 79.6565 25.8565 79.7117 25.3819C79.7117 24.8301 79.8 23.4838 79.8 23.4838H79.6565L79.2372 26.7062C79.2151 26.7393 79.2151 26.7724 79.2372 26.8055C79.2372 26.8055 88.3526 32.1247 89.1913 32.6323C89.8976 32.9193 90.3611 33.6035 90.3501 34.3649V35.016C90.3501 37.2342 90.2728 39.3861 90.2397 41.4498L76.5997 34.4642C76.0479 34.1663 75.7389 33.5593 75.8051 32.9413C75.8051 32.0916 75.8382 31.2418 75.9265 30.3921H75.7389L75.1761 34.7181C75.165 34.7732 75.1981 34.8395 75.2423 34.8726C75.2423 34.8726 87.4477 42.0016 88.5733 42.7189C89.5996 43.1272 90.2397 44.1425 90.1735 45.246L90.0742 51.2604L73.5869 42.8623C72.9138 42.5092 72.5275 41.7698 72.6158 41.0084C72.6158 39.982 72.66 38.9447 72.7593 37.9184H72.5386L71.8654 43.1493C71.8544 43.2155 71.8875 43.2817 71.9426 43.3258C71.9426 43.3258 86.7193 51.9557 88.0988 52.8275C89.71 53.8428 90.03 53.909 90.03 55.774C90.03 55.8513 90.03 58.0142 90.03 58.1025C90.1514 58.8861 89.6217 59.6255 88.8382 59.7579C88.8051 59.7579 88.783 59.7689 88.7499 59.7689V60.0779H93.5062V59.7689C92.7117 59.6917 92.1378 58.9743 92.2151 58.1908C92.2151 58.1577 92.2261 58.1356 92.2261 58.1025C92.2261 58.0253 92.2261 55.9506 92.2261 55.774C92.2261 53.909 92.5572 53.8428 94.1573 52.8275C95.5368 51.9557 110.313 43.3258 110.313 43.3258C110.369 43.2927 110.402 43.2155 110.391 43.1493L109.707 37.9184H109.475H109.431Z" fill="white"/>
<path d="M85.8252 34.0681C86.9508 34.1122 87.9109 33.2404 87.9771 32.1148C86.8515 32.0706 85.9024 32.9314 85.8252 34.0681Z" fill="white"/>
<path d="M89.4967 33.0722C88.371 33.028 87.4109 33.8998 87.3447 35.0255C88.4704 35.0696 89.4194 34.1978 89.4967 33.0722Z" fill="white"/>
<path d="M97.5306 28.639C98.4466 27.9769 98.6784 26.7078 98.0493 25.7698C97.1223 26.4319 96.8906 27.701 97.5306 28.639Z" fill="white"/>
<path d="M95.37 27.1915C94.454 27.8537 94.2223 29.1228 94.8623 30.0608C95.7783 29.3987 95.999 28.1296 95.37 27.1915Z" fill="white"/>
<path d="M92.5205 23.2386C92.5867 24.3642 93.5468 25.236 94.6725 25.1919C94.6062 24.0663 93.6461 23.2055 92.5205 23.2386Z" fill="white"/>
<path d="M100.213 32.0356C100.158 30.8989 99.1982 30.005 98.0615 30.0381C98.1057 31.1858 99.0658 32.0687 100.213 32.0356Z" fill="white"/>
<path d="M97.5103 33.5347C97.4331 32.409 96.484 31.5483 95.3584 31.5814C95.4246 32.707 96.3847 33.5788 97.5103 33.5347Z" fill="white"/>
<path d="M105.072 44.2736C105.006 43.137 104.046 42.2762 102.92 42.3093C102.975 43.4349 103.935 44.3178 105.072 44.2736Z" fill="white"/>
<path d="M101.982 45.7089C101.916 44.5833 100.956 43.7115 99.8301 43.7446C99.8963 44.8702 100.845 45.753 101.982 45.7089Z" fill="white"/>
<path d="M98.3857 40.4121C98.452 41.5267 99.3789 42.3985 100.505 42.3764C100.438 41.2618 99.5003 40.4011 98.3857 40.4121Z" fill="white"/>
<path d="M96.3394 48.58C96.2732 47.4544 95.3131 46.5826 94.1875 46.6157C94.2537 47.7413 95.2138 48.6131 96.3394 48.58Z" fill="white"/>
<path d="M108.26 45.1882C108.061 46.2697 108.778 47.3071 109.86 47.5057C109.893 47.5167 109.926 47.5167 109.959 47.5167C110.158 46.4353 109.44 45.3979 108.359 45.1993C108.326 45.1882 108.293 45.1882 108.26 45.1882Z" fill="white"/>
<path d="M105.303 47.3756C105.314 48.4792 106.219 49.3731 107.322 49.3621C107.377 49.3621 107.433 49.362 107.499 49.351C107.488 48.2475 106.583 47.3536 105.479 47.3646C105.413 47.3646 105.358 47.3756 105.303 47.3756Z" fill="white"/>
<path d="M100.754 51.7542C101.825 51.368 102.398 50.2092 102.045 49.1167C100.975 49.5029 100.412 50.6727 100.754 51.7542Z" fill="white"/>
<path d="M106.074 31.5544C105.997 30.4288 105.048 29.568 103.922 29.6011C103.988 30.7268 104.937 31.5876 106.074 31.5544Z" fill="white"/>
<path d="M105.973 33.5354C105.907 32.4097 104.947 31.5379 103.821 31.582C103.888 32.7077 104.848 33.5795 105.973 33.5354Z" fill="white"/>
<path d="M107.161 34.8177C108.287 34.8618 109.247 33.99 109.313 32.8644C108.187 32.8203 107.227 33.6921 107.161 34.8177Z" fill="white"/>
<path d="M108.989 29.5857C107.863 29.5416 106.903 30.4134 106.837 31.539C107.952 31.5832 108.912 30.7114 108.989 29.5857Z" fill="white"/>
</svg>
