<svg width="102" height="84" viewBox="0 0 102 84" fill="none" xmlns="http://www.w3.org/2000/svg">
<path d="M25.4343 82.7523C21.6797 82.7523 20.5963 79.0023 20.5963 76.2788C20.5963 73.4721 21.7368 69.7654 25.5004 69.7654C29.2355 69.7654 30.3236 73.5405 30.3065 76.1956C30.3065 77.3771 29.9894 82.7523 25.4286 82.7523H25.4343ZM25.5004 68.5519C21.1163 68.5519 19.1239 72.2015 19.1239 76.2686C19.1239 78.862 19.9222 80.7963 20.9646 82.0064C22.1907 83.4412 23.679 83.9989 25.5061 83.9989C26.7128 83.9989 28.4919 83.7799 29.9301 82.0862C31.1219 80.6777 31.796 78.4116 31.8176 76.175C31.8279 72.8528 30.3943 68.5485 25.5061 68.5485L25.5004 68.5519ZM10.4835 75.4828H1.38685V68.9192H0V83.6419H1.38685V76.7076H10.4835V83.6419H11.8737V68.9192H10.4835V75.4828ZM97.6347 75.7109C97.1785 75.5455 95.0742 75.0015 94.6557 74.8783C93.8277 74.6228 92.1808 74.1005 92.1808 72.3065C92.1808 70.3539 94.0546 69.6833 95.6354 69.6833C96.9116 69.6833 98.0931 70.1395 98.8288 71.1568C99.1013 71.5632 99.3087 72.0095 99.4435 72.4798L100.737 71.7659C100.413 70.9516 99.4435 68.5417 95.6787 68.5417C93.3874 68.5417 90.8373 69.4746 90.8373 72.3715C90.8373 75.1087 93.1856 75.8694 95.2613 76.4168C97.1887 76.9141 98.0498 77.1262 98.7227 77.6885C99.1196 77.9873 99.6169 78.6009 99.6169 79.6661C99.6169 81.2195 98.3623 82.7865 95.535 82.7865C94.0181 82.7865 92.4944 82.2607 91.8318 80.8944C91.5581 80.3766 91.4999 79.7642 91.4783 79.1837L90.0811 79.9182C90.3332 81.2696 90.9639 82.3463 92.077 83.1001C92.848 83.6008 93.9748 84 95.535 84C99.2884 84 101.029 81.662 101.029 79.5977C101.029 76.8103 98.4319 75.9561 97.6347 75.7109ZM57.8712 76.7373H65.3209V75.4508H57.8712V70.2194H66.0999V68.9192H56.4798V83.6419H66.6302V82.3417H57.8712V76.7373ZM82.9085 1.79058L73.7617 1.81111L62.18 28.8227L48.5294 0L35.0099 28.8227L23.6653 1.79286H14.4935L34.873 48.9468L48.5727 19.2699L62.0716 49.0437L82.9085 1.79058ZM37.6387 70.1407H42.2828V83.6419H43.6697V70.1407H48.3275V68.9192H37.6387V70.1407ZM76.8593 68.9192H75.4292V83.6419H84.99V82.3417H76.8593V68.9192Z" fill="white"/>
</svg>
